SplineFontDB: 3.2
FontName: NKL_MadaniArabic-Regular
FullName: NKL Madani Arabic Regular
FamilyName: NKL MadaniArabic-Regular
Weight: Regular
Copyright: Copyright (c) 2020 by Namela. All rights reserved.\n\n2021 - Modified by Niskala5570 for Jawi (Malay Arabic) script support.\nAdded: Nga, Ga, Nya, Va,Hamza Three Quarter Workaround, Reversed Tilde, Reversed Semicolon, Reversed Comma.\nAdjusted Ya and Nya spacing cuz intercepting with Ra.
Version: 2.727_Jawi
ItalicAngle: 0
UnderlinePosition: -75
UnderlineWidth: 50
Ascent: 775
Descent: 225
InvalidEm: 0
sfntRevision: 0x00010000
LayerCount: 2
Layer: 0 1 "Back" 1
Layer: 1 1 "Fore" 0
XUID: [1021 250 -1551560589 1857]
StyleMap: 0x0040
FSType: 4
OS2Version: 4
OS2_WeightWidthSlopeOnly: 0
OS2_UseTypoMetrics: 0
CreationTime: 1593079175
ModificationTime: 1630336084
PfmFamily: 81
TTFWeight: 400
TTFWidth: 5
LineGap: 497
VLineGap: 0
Panose: 0 0 5 0 0 0 0 0 0 0
OS2TypoAscent: 775
OS2TypoAOffset: 0
OS2TypoDescent: -225
OS2TypoDOffset: 0
OS2TypoLinegap: 497
OS2WinAscent: 1213
OS2WinAOffset: 0
OS2WinDescent: 284
OS2WinDOffset: 0
HheadAscent: 775
HheadAOffset: 0
HheadDescent: -225
HheadDOffset: 0
OS2SubXSize: 650
OS2SubYSize: 600
OS2SubXOff: 0
OS2SubYOff: 75
OS2SupXSize: 650
OS2SupYSize: 600
OS2SupXOff: 0
OS2SupYOff: 350
OS2StrikeYSize: 50
OS2StrikeYPos: 330
OS2CapHeight: 730
OS2XHeight: 550
OS2Vendor: 'UKWN'
OS2CodePages: 200001d3.00000000
OS2UnicodeRanges: 20002007.00000000.00000008.00000000
Lookup: 1 0 0 "'aalt' Access All Alternates lookup 0" { "'aalt' Access All Alternates lookup 0 subtable"  } ['aalt' ('DFLT' <'dflt' > 'arab' <'URD ' 'dflt' > 'latn' <'AZE ' 'CAT ' 'CRT ' 'KAZ ' 'MOL ' 'NLD ' 'ROM ' 'TAT ' 'TRK ' 'dflt' > ) ]
Lookup: 3 0 0 "'aalt' Access All Alternates lookup 1" { "'aalt' Access All Alternates lookup 1 subtable"  } ['aalt' ('DFLT' <'dflt' > 'arab' <'URD ' 'dflt' > 'latn' <'AZE ' 'CAT ' 'CRT ' 'KAZ ' 'MOL ' 'NLD ' 'ROM ' 'TAT ' 'TRK ' 'dflt' > ) ]

StartChar: exclam
Encoding: 5 33 5
Width: 250
GlyphClass: 2
Flags: W
LayerCount: 2
Fore
SplineSet
175 730 m 1,0,-1
 166 163 l 1,1,-1
 85 163 l 1,2,-1
 76 730 l 1,3,-1
 175 730 l 1,0,-1
83 93 m 0,4,5
 101 110 101 110 126 110 c 0,6,7
 150 110 150 110 167.5 92.5 c 128,-1,8
 185 75 185 75 185 50 c 128,-1,9
 185 25 185 25 167.5 7 c 128,-1,10
 150 -11 150 -11 126 -11 c 0,11,12
 100 -11 100 -11 82.5 6.5 c 128,-1,13
 65 24 65 24 65 50 c 0,14,15
 65 75 65 75 83 93 c 0,4,5
EndSplineSet
Validated: 1
EndChar

StartChar: quotedbl
Encoding: 6 34 6
Width: 341
GlyphClass: 2
Flags: W
LayerCount: 2
Fore
SplineSet
203 730 m 1,0,-1
 293 730 l 1,1,-1
 282 517 l 1,2,-1
 214 517 l 1,3,-1
 203 730 l 1,0,-1
138 730 m 1,4,-1
 128 517 l 1,5,-1
 60 517 l 1,6,-1
 49 730 l 1,7,-1
 138 730 l 1,4,-1
EndSplineSet
Validated: 1
EndChar

StartChar: numbersign
Encoding: 7 35 7
Width: 756
GlyphClass: 2
Flags: W
LayerCount: 2
Fore
SplineSet
49 201 m 1,0,-1
 66 282 l 1,1,-1
 192 282 l 1,2,-1
 227 449 l 1,3,-1
 100 449 l 1,4,-1
 118 529 l 1,5,-1
 242 529 l 1,6,-1
 268 653 l 1,7,-1
 350 653 l 1,8,-1
 325 529 l 1,9,-1
 498 529 l 1,10,-1
 523 653 l 1,11,-1
 606 653 l 1,12,-1
 581 529 l 1,13,-1
 708 529 l 1,14,-1
 690 449 l 1,15,-1
 565 449 l 1,16,-1
 531 282 l 1,17,-1
 656 282 l 1,18,-1
 639 201 l 1,19,-1
 514 201 l 1,20,-1
 490 78 l 1,21,-1
 407 78 l 1,22,-1
 431 201 l 1,23,-1
 259 201 l 1,24,-1
 233 78 l 1,25,-1
 151 78 l 1,26,-1
 176 201 l 1,27,-1
 49 201 l 1,0,-1
447 282 m 1,28,-1
 482 449 l 1,29,-1
 309 449 l 1,30,-1
 275 282 l 1,31,-1
 447 282 l 1,28,-1
EndSplineSet
Validated: 1
EndChar

StartChar: dollar
Encoding: 8 36 8
Width: 610
GlyphClass: 2
Flags: W
LayerCount: 2
Fore
SplineSet
101 165 m 1,0,1
 175 92 175 92 278 81 c 1,2,-1
 278 348 l 1,3,4
 229 364 229 364 197 378 c 128,-1,5
 165 392 165 392 129.5 416.5 c 128,-1,6
 94 441 94 441 76.5 476.5 c 128,-1,7
 59 512 59 512 59 559 c 0,8,9
 59 634 59 634 119 686 c 128,-1,10
 179 738 179 738 278 743 c 1,11,-1
 278 809 l 1,12,-1
 336 809 l 1,13,-1
 336 742 l 1,14,15
 467 727 467 727 547 628 c 1,16,-1
 478 578 l 1,17,18
 421 643 421 643 336 655 c 1,19,-1
 336 425 l 1,20,21
 389 409 389 409 422.5 394.5 c 128,-1,22
 456 380 456 380 494 354.5 c 128,-1,23
 532 329 532 329 551 290 c 128,-1,24
 570 251 570 251 570 199 c 0,25,26
 570 108 570 108 504.5 51.5 c 128,-1,27
 439 -5 439 -5 336 -11 c 1,28,-1
 336 -78 l 1,29,-1
 278 -78 l 1,30,-1
 278 -8 l 1,31,32
 140 5 140 5 40 105 c 1,33,-1
 101 165 l 1,0,1
336 77 m 1,34,35
 404 80 404 80 445.5 111 c 128,-1,36
 487 142 487 142 487 195 c 0,37,38
 487 247 487 247 449 275 c 128,-1,39
 411 303 411 303 336 328 c 1,40,-1
 336 77 l 1,34,35
139 563 m 0,41,42
 139 517 139 517 174.5 491.5 c 128,-1,43
 210 466 210 466 278 444 c 1,44,-1
 278 660 l 1,45,46
 214 658 214 658 176.5 631 c 128,-1,47
 139 604 139 604 139 563 c 0,41,42
EndSplineSet
Validated: 1
EndChar

StartChar: percent
Encoding: 9 37 9
Width: 791
GlyphClass: 2
Flags: W
LayerCount: 2
Fore
SplineSet
33 591 m 0,0,1
 33 678 33 678 77.5 731 c 128,-1,2
 122 784 122 784 195 784 c 128,-1,3
 268 784 268 784 312 731 c 128,-1,4
 356 678 356 678 356 591 c 0,5,6
 356 501 356 501 312 447 c 256,7,8
 268 393 268 393 195 393 c 128,-1,9
 122 393 122 393 77.5 447.5 c 128,-1,10
 33 502 33 502 33 591 c 0,0,1
435 188 m 0,11,12
 435 275 435 275 480 328 c 128,-1,13
 525 381 525 381 598 381 c 128,-1,14
 671 381 671 381 714.5 328 c 128,-1,15
 758 275 758 275 758 188 c 0,16,17
 758 99 758 99 715 45 c 0,18,19
 671 -10 671 -10 598 -10 c 128,-1,20
 525 -10 525 -10 480 44.5 c 128,-1,21
 435 99 435 99 435 188 c 0,11,12
157 0 m 1,22,-1
 561 781 l 1,23,-1
 635 781 l 1,24,-1
 231 0 l 1,25,-1
 157 0 l 1,22,-1
125 491 m 0,26,27
 153 458 153 458 194 458 c 0,28,29
 236 458 236 458 264 490 c 128,-1,30
 292 522 292 522 292 591 c 0,31,32
 292 657 292 657 264 688.5 c 128,-1,33
 236 720 236 720 194 720 c 0,34,35
 154 720 154 720 125.5 688 c 128,-1,36
 97 656 97 656 97 591 c 0,37,38
 97 523 97 523 125 491 c 0,26,27
528 88 m 0,39,40
 556 55 556 55 597 55 c 0,41,42
 639 55 639 55 666.5 87 c 128,-1,43
 694 119 694 119 694 188 c 0,44,45
 694 254 694 254 666.5 285.5 c 128,-1,46
 639 317 639 317 597 317 c 0,47,48
 556 317 556 317 528 285.5 c 128,-1,49
 500 254 500 254 500 188 c 0,50,51
 500 120 500 120 528 88 c 0,39,40
EndSplineSet
Validated: 1
EndChar

StartChar: ampersand
Encoding: 10 38 10
Width: 699
GlyphClass: 2
Flags: W
LayerCount: 2
Fore
SplineSet
84 314 m 256,0,1
 123 358 123 358 192 392 c 1,2,3
 169 420 169 420 155.5 440.5 c 128,-1,4
 142 461 142 461 129.5 495 c 128,-1,5
 117 529 117 529 117 565 c 0,6,7
 117 645 117 645 180 695 c 128,-1,8
 243 745 243 745 334 745 c 128,-1,9
 425 745 425 745 484.5 694.5 c 128,-1,10
 544 644 544 644 544 564 c 0,11,12
 544 525 544 525 528 493 c 128,-1,13
 512 461 512 461 479.5 435.5 c 128,-1,14
 447 410 447 410 417.5 394 c 128,-1,15
 388 378 388 378 343 357 c 1,16,-1
 529 163 l 1,17,18
 562 198 562 198 570.5 235 c 128,-1,19
 579 272 579 272 579 297 c 0,20,21
 579 320 579 320 574 342 c 1,22,-1
 664 364 l 1,23,24
 670 328 670 328 670 295 c 0,25,26
 670 173 670 173 590 90 c 1,27,-1
 671 0 l 1,28,-1
 547 0 l 1,29,-1
 512 37 l 1,30,31
 436 -9 436 -9 330 -9 c 0,32,33
 199 -9 199 -9 122 48 c 128,-1,34
 45 105 45 105 45 203 c 0,35,36
 45 270 45 270 84 314 c 256,0,1
195 113 m 0,37,38
 248 83 248 83 330 83 c 0,39,40
 401 83 401 83 448 113 c 1,41,-1
 255 315 l 1,42,43
 200 290 200 290 171 264.5 c 128,-1,44
 142 239 142 239 142 201 c 0,45,46
 142 142 142 142 195 113 c 0,37,38
228 510 m 0,47,48
 239 484 239 484 250 469.5 c 128,-1,49
 261 455 261 455 281 431 c 1,50,51
 379 471 379 471 407 491 c 0,52,53
 447 523 447 523 448 562 c 0,54,55
 448 608 448 608 412.5 631.5 c 128,-1,56
 377 655 377 655 333 655 c 0,57,58
 286 655 286 655 251 631 c 128,-1,59
 216 607 216 607 216 562 c 0,60,61
 216 536 216 536 228 510 c 0,47,48
EndSplineSet
Validated: 1
Substitution2: "'ss02' Style Set 2 lookup 28 subtable" ampersand.ss02
Substitution2: "'ss01' Style Set 1 lookup 27 subtable" ampersand.ss01
Substitution2: "'salt' Stylistic Alternatives lookup 26 subtable" ampersand.ss01
AlternateSubs2: "'aalt' Access All Alternates lookup 1 subtable" ampersand.ss01 ampersand.ss02
EndChar

StartChar: quotesingle
Encoding: 11 39 11
Width: 187
GlyphClass: 2
Flags: W
LayerCount: 2
Fore
SplineSet
128 517 m 1,0,-1
 60 517 l 1,1,-1
 49 730 l 1,2,-1
 138 730 l 1,3,-1
 128 517 l 1,0,-1
EndSplineSet
Validated: 1
EndChar

StartChar: parenleft
Encoding: 12 40 12
Width: 321
GlyphClass: 2
Flags: W
LayerCount: 2
Fore
SplineSet
95 596 m 256,0,1
 137 712 137 712 210 780 c 1,2,-1
 305 780 l 1,3,4
 226 708 226 708 183.5 591.5 c 128,-1,5
 141 475 141 475 141 335 c 0,6,7
 141 196 141 196 183.5 78.5 c 128,-1,8
 226 -39 226 -39 305 -110 c 1,9,-1
 210 -110 l 1,10,11
 137 -43 137 -43 95 73.5 c 128,-1,12
 53 190 53 190 53 335 c 128,-1,13
 53 480 53 480 95 596 c 256,0,1
EndSplineSet
Validated: 1
EndChar

StartChar: parenright
Encoding: 13 41 13
Width: 321
GlyphClass: 2
Flags: W
LayerCount: 2
Fore
SplineSet
17 -110 m 1,0,1
 95 -39 95 -39 137.5 78.5 c 128,-1,2
 180 196 180 196 180 335 c 0,3,4
 180 475 180 475 138 591.5 c 128,-1,5
 96 708 96 708 17 780 c 1,6,-1
 112 780 l 1,7,8
 184 711 184 711 226.5 595 c 128,-1,9
 269 479 269 479 269 335 c 0,10,11
 269 190 269 190 226.5 74 c 128,-1,12
 184 -42 184 -42 112 -110 c 1,13,-1
 17 -110 l 1,0,1
EndSplineSet
Validated: 1
EndChar

StartChar: asterisk
Encoding: 14 42 14
Width: 405
GlyphClass: 2
Flags: W
LayerCount: 2
Fore
SplineSet
203 497 m 1,0,-1
 122 383 l 1,1,-1
 70 421 l 1,2,-1
 153 533 l 1,3,-1
 20 574 l 1,4,-1
 40 636 l 1,5,-1
 172 591 l 1,6,-1
 170 730 l 1,7,-1
 236 730 l 1,8,-1
 233 591 l 1,9,-1
 366 635 l 1,10,-1
 385 574 l 1,11,-1
 252 533 l 1,12,-1
 335 421 l 1,13,-1
 283 383 l 1,14,-1
 203 497 l 1,0,-1
EndSplineSet
Validated: 1
EndChar

StartChar: plus
Encoding: 15 43 15
Width: 533
GlyphClass: 2
Flags: W
LayerCount: 2
Fore
SplineSet
49 325 m 1,0,-1
 49 406 l 1,1,-1
 226 406 l 1,2,-1
 226 583 l 1,3,-1
 307 583 l 1,4,-1
 307 406 l 1,5,-1
 484 406 l 1,6,-1
 484 325 l 1,7,-1
 307 325 l 1,8,-1
 307 148 l 1,9,-1
 226 148 l 1,10,-1
 226 325 l 1,11,-1
 49 325 l 1,0,-1
EndSplineSet
Validated: 1
EndChar

StartChar: comma
Encoding: 16 44 16
Width: 181
GlyphClass: 2
Flags: W
LayerCount: 2
Fore
SplineSet
100 -140 m 1,0,-1
 33 -140 l 1,1,-1
 60 104 l 1,2,-1
 149 104 l 1,3,-1
 100 -140 l 1,0,-1
EndSplineSet
Validated: 1
EndChar

StartChar: hyphen
Encoding: 17 45 17
Width: 465
GlyphClass: 2
Flags: W
LayerCount: 2
Fore
SplineSet
417 325 m 1,0,-1
 49 325 l 1,1,-1
 49 406 l 1,2,-1
 417 406 l 1,3,-1
 417 325 l 1,0,-1
EndSplineSet
Validated: 1
EndChar

StartChar: period
Encoding: 18 46 18
Width: 185
GlyphClass: 2
Flags: W
LayerCount: 2
Fore
SplineSet
33 54 m 256,0,1
 33 79 33 79 50.5 96.5 c 128,-1,2
 68 114 68 114 93 114 c 128,-1,3
 118 114 118 114 135.5 96.5 c 128,-1,4
 153 79 153 79 153 54 c 128,-1,5
 153 29 153 29 136 11 c 0,6,7
 118 -7 118 -7 93 -7 c 128,-1,8
 68 -7 68 -7 50.5 11 c 128,-1,9
 33 29 33 29 33 54 c 256,0,1
EndSplineSet
Validated: 1
EndChar

StartChar: slash
Encoding: 19 47 19
Width: 494
GlyphClass: 2
Flags: W
LayerCount: 2
Fore
SplineSet
118 -110 m 1,0,-1
 23 -110 l 1,1,-1
 377 781 l 1,2,-1
 472 781 l 1,3,-1
 118 -110 l 1,0,-1
EndSplineSet
Validated: 1
EndChar

StartChar: zero
Encoding: 20 48 20
Width: 668
GlyphClass: 2
Flags: W
LayerCount: 2
Fore
SplineSet
129 640 m 0,0,1
 208 741 208 741 335 741 c 0,2,3
 461 741 461 741 540.5 640 c 128,-1,4
 620 539 620 539 620 365 c 128,-1,5
 620 191 620 191 540.5 89 c 128,-1,6
 461 -13 461 -13 335 -13 c 0,7,8
 208 -13 208 -13 128.5 89 c 128,-1,9
 49 191 49 191 49 365 c 128,-1,10
 49 539 49 539 129 640 c 0,0,1
148 367 m 0,11,12
 148 229 148 229 200.5 157 c 128,-1,13
 253 85 253 85 335 85 c 0,14,15
 416 85 416 85 468.5 157 c 128,-1,16
 521 229 521 229 521 367 c 0,17,18
 521 501 521 501 468.5 572 c 128,-1,19
 416 643 416 643 335 643 c 0,20,21
 253 643 253 643 200.5 572.5 c 128,-1,22
 148 502 148 502 148 367 c 0,11,12
EndSplineSet
Validated: 1
Substitution2: "'tnum' Tabular Numbers lookup 20 subtable" zero.tf
Substitution2: "'aalt' Access All Alternates lookup 0 subtable" zero.tf
EndChar

StartChar: one
Encoding: 21 49 21
Width: 335
GlyphClass: 2
Flags: W
LayerCount: 2
Fore
SplineSet
230 0 m 1,0,-1
 133 0 l 1,1,-1
 133 638 l 1,2,-1
 33 638 l 1,3,-1
 33 730 l 1,4,-1
 230 730 l 1,5,-1
 230 0 l 1,0,-1
EndSplineSet
Validated: 1
Substitution2: "'tnum' Tabular Numbers lookup 20 subtable" one.tf
Substitution2: "'sups' Superscript lookup 12 subtable" onesuperior
AlternateSubs2: "'aalt' Access All Alternates lookup 1 subtable" onesuperior one.tf
EndChar

StartChar: two
Encoding: 22 50 22
Width: 595
GlyphClass: 2
Flags: W
LayerCount: 2
Fore
SplineSet
28 0 m 1,0,-1
 28 67 l 1,1,-1
 331 334 l 2,2,3
 429 420 429 420 429 500 c 0,4,5
 429 567 429 567 387 607 c 128,-1,6
 345 647 345 647 283 647 c 0,7,8
 228 647 228 647 186 615 c 128,-1,9
 144 583 144 583 127 538 c 1,10,-1
 37 570 l 1,11,12
 60 645 60 645 128.5 694.5 c 128,-1,13
 197 744 197 744 281 744 c 0,14,15
 386 744 386 744 456 677 c 128,-1,16
 526 610 526 610 526 500 c 0,17,18
 526 385 526 385 398 272 c 1,19,-1
 184 92 l 1,20,-1
 545 92 l 1,21,-1
 545 0 l 1,22,-1
 28 0 l 1,0,-1
EndSplineSet
Validated: 1
Substitution2: "'tnum' Tabular Numbers lookup 20 subtable" two.tf
Substitution2: "'sups' Superscript lookup 12 subtable" twosuperior
AlternateSubs2: "'aalt' Access All Alternates lookup 1 subtable" twosuperior two.tf
EndChar

StartChar: three
Encoding: 23 51 23
Width: 592
GlyphClass: 2
Flags: W
LayerCount: 2
Fore
SplineSet
114 175 m 1,0,1
 132 137 132 137 180 110.5 c 128,-1,2
 228 84 228 84 285 84 c 0,3,4
 355 84 355 84 399.5 121 c 128,-1,5
 444 158 444 158 444 216 c 0,6,7
 444 275 444 275 395 310.5 c 128,-1,8
 346 346 346 346 276 346 c 2,9,-1
 239 346 l 1,10,-1
 239 437 l 1,11,-1
 277 437 l 2,12,13
 335 437 335 437 375.5 466.5 c 128,-1,14
 416 496 416 496 416 543 c 128,-1,15
 416 590 416 590 377.5 620 c 128,-1,16
 339 650 339 650 281 650 c 0,17,18
 240 650 240 650 206 634 c 128,-1,19
 172 618 172 618 155 592 c 1,20,-1
 65 628 l 1,21,22
 92 680 92 680 152 713 c 128,-1,23
 212 746 212 746 281 746 c 0,24,25
 380 746 380 746 447 694 c 128,-1,26
 514 642 514 642 514 550 c 0,27,28
 514 499 514 499 486 458.5 c 128,-1,29
 458 418 458 418 410 394 c 1,30,31
 470 368 470 368 506 320 c 128,-1,32
 542 272 542 272 542 209 c 0,33,34
 542 109 542 109 469.5 47.5 c 128,-1,35
 397 -14 397 -14 287 -14 c 0,36,37
 198 -14 198 -14 128 27.5 c 128,-1,38
 58 69 58 69 26 136 c 1,39,-1
 114 175 l 1,0,1
EndSplineSet
Validated: 1
Substitution2: "'tnum' Tabular Numbers lookup 20 subtable" three.tf
Substitution2: "'sups' Superscript lookup 12 subtable" threesuperior
AlternateSubs2: "'aalt' Access All Alternates lookup 1 subtable" threesuperior three.tf
EndChar

StartChar: four
Encoding: 24 52 24
Width: 573
GlyphClass: 2
Flags: W
LayerCount: 2
Fore
SplineSet
25 264 m 1,0,-1
 385 730 l 1,1,-1
 497 730 l 1,2,-1
 497 272 l 1,3,-1
 557 272 l 1,4,-1
 557 176 l 1,5,-1
 497 176 l 1,6,-1
 497 0 l 1,7,-1
 400 0 l 1,8,-1
 400 176 l 1,9,-1
 25 176 l 1,10,-1
 25 264 l 1,0,-1
137 272 m 1,11,-1
 400 272 l 1,12,-1
 400 593 l 1,13,-1
 137 272 l 1,11,-1
EndSplineSet
Validated: 1
Substitution2: "'tnum' Tabular Numbers lookup 20 subtable" four.tf
Substitution2: "'aalt' Access All Alternates lookup 0 subtable" four.tf
EndChar

StartChar: five
Encoding: 25 53 25
Width: 585
GlyphClass: 2
Flags: W
LayerCount: 2
Fore
SplineSet
126 191 m 1,0,1
 143 146 143 146 186.5 117 c 128,-1,2
 230 88 230 88 283 88 c 0,3,4
 352 88 352 88 401 136 c 128,-1,5
 450 184 450 184 450 253 c 128,-1,6
 450 322 450 322 401.5 370 c 128,-1,7
 353 418 353 418 284 418 c 0,8,9
 240 418 240 418 201 397.5 c 128,-1,10
 162 377 162 377 140 342 c 1,11,-1
 42 342 l 1,12,-1
 69 730 l 1,13,-1
 524 730 l 1,14,-1
 524 638 l 1,15,-1
 161 638 l 1,16,-1
 148 450 l 1,17,18
 210 509 210 509 297 509 c 0,19,20
 404 509 404 509 476 435 c 128,-1,21
 548 361 548 361 548 251 c 128,-1,22
 548 141 548 141 470 65.5 c 128,-1,23
 392 -10 392 -10 281 -10 c 0,24,25
 196 -10 196 -10 128.5 36 c 128,-1,26
 61 82 61 82 33 157 c 1,27,-1
 126 191 l 1,0,1
EndSplineSet
Validated: 1
Substitution2: "'tnum' Tabular Numbers lookup 20 subtable" five.tf
Substitution2: "'aalt' Access All Alternates lookup 0 subtable" five.tf
EndChar

StartChar: six
Encoding: 26 54 26
Width: 606
GlyphClass: 2
Flags: W
LayerCount: 2
Fore
SplineSet
98 415 m 2,0,-1
 345 731 l 1,1,-1
 465 731 l 1,2,-1
 279 498 l 1,3,4
 303 503 303 503 326 503 c 0,5,6
 408 503 408 503 488 436 c 128,-1,7
 568 369 568 369 568 251 c 0,8,9
 568 141 568 141 491 66 c 0,10,11
 413 -10 413 -10 303 -10 c 128,-1,12
 193 -10 193 -10 116 65.5 c 128,-1,13
 39 141 39 141 39 251 c 0,14,15
 39 345 39 345 98 415 c 2,0,-1
138 251 m 256,16,17
 138 184 138 184 186.5 136 c 128,-1,18
 235 88 235 88 303 88 c 0,19,20
 372 88 372 88 420.5 135.5 c 128,-1,21
 469 183 469 183 469 251 c 128,-1,22
 469 319 469 319 420.5 366.5 c 128,-1,23
 372 414 372 414 303 414 c 0,24,25
 235 414 235 414 186.5 366 c 128,-1,26
 138 318 138 318 138 251 c 256,16,17
EndSplineSet
Validated: 1
Substitution2: "'tnum' Tabular Numbers lookup 20 subtable" six.tf
Substitution2: "'aalt' Access All Alternates lookup 0 subtable" six.tf
EndChar

StartChar: seven
Encoding: 27 55 27
Width: 570
GlyphClass: 2
Flags: W
LayerCount: 2
Fore
SplineSet
227 0 m 1,0,-1
 118 0 l 1,1,-1
 416 638 l 1,2,-1
 15 638 l 1,3,-1
 15 730 l 1,4,-1
 531 730 l 1,5,-1
 531 665 l 1,6,-1
 227 0 l 1,0,-1
EndSplineSet
Validated: 1
Substitution2: "'tnum' Tabular Numbers lookup 20 subtable" seven.tf
Substitution2: "'aalt' Access All Alternates lookup 0 subtable" seven.tf
EndChar

StartChar: eight
Encoding: 28 56 28
Width: 625
GlyphClass: 2
Flags: W
LayerCount: 2
Fore
SplineSet
86 321 m 0,0,1
 122 372 122 372 182 399 c 1,2,3
 139 423 139 423 113 463.5 c 128,-1,4
 87 504 87 504 87 552 c 0,5,6
 87 635 87 635 153 691.5 c 128,-1,7
 219 748 219 748 313 748 c 128,-1,8
 407 748 407 748 473 691.5 c 128,-1,9
 539 635 539 635 539 552 c 0,10,11
 539 504 539 504 513 463.5 c 128,-1,12
 487 423 487 423 443 399 c 1,13,14
 504 372 504 372 540.5 321 c 128,-1,15
 577 270 577 270 577 208 c 0,16,17
 577 108 577 108 503 43 c 0,18,19
 428 -23 428 -23 312 -23 c 128,-1,20
 196 -23 196 -23 122.5 42.5 c 128,-1,21
 49 108 49 108 49 208 c 0,22,23
 49 270 49 270 86 321 c 0,0,1
195 114 m 0,24,25
 241 73 241 73 313 73 c 128,-1,26
 385 73 385 73 431 113.5 c 128,-1,27
 477 154 477 154 477 213 c 0,28,29
 477 270 477 270 429 310.5 c 128,-1,30
 381 351 381 351 313 351 c 128,-1,31
 245 351 245 351 196.5 310.5 c 128,-1,32
 148 270 148 270 148 213 c 0,33,34
 148 154 148 154 195 114 c 0,24,25
221 475 m 0,35,36
 258 443 258 443 312 443 c 0,37,38
 367 443 367 443 404.5 474.5 c 128,-1,39
 442 506 442 506 442 551 c 128,-1,40
 442 596 442 596 404.5 626.5 c 128,-1,41
 367 657 367 657 312 657 c 128,-1,42
 257 657 257 657 220.5 627 c 128,-1,43
 184 597 184 597 184 551 c 0,44,45
 184 506 184 506 221 475 c 0,35,36
EndSplineSet
Validated: 1
Substitution2: "'tnum' Tabular Numbers lookup 20 subtable" eight.tf
Substitution2: "'aalt' Access All Alternates lookup 0 subtable" eight.tf
EndChar

StartChar: nine
Encoding: 29 57 29
Width: 606
GlyphClass: 2
Flags: W
LayerCount: 2
Fore
SplineSet
117 666 m 0,0,1
 194 741 194 741 304 741 c 0,2,3
 413 741 413 741 490.5 665.5 c 128,-1,4
 568 590 568 590 568 480 c 0,5,6
 568 386 568 386 509 316 c 2,7,-1
 262 0 l 1,8,-1
 142 0 l 1,9,-1
 328 233 l 1,10,11
 305 229 305 229 282 229 c 0,12,13
 199 229 199 229 119 295.5 c 128,-1,14
 39 362 39 362 39 480 c 0,15,16
 39 590 39 590 117 666 c 0,0,1
137 480 m 256,17,18
 137 413 137 413 186 365 c 128,-1,19
 235 317 235 317 304 317 c 0,20,21
 372 317 372 317 420.5 365 c 128,-1,22
 469 413 469 413 469 480 c 128,-1,23
 469 547 469 547 420.5 595 c 128,-1,24
 372 643 372 643 304 643 c 0,25,26
 235 643 235 643 186 595 c 128,-1,27
 137 547 137 547 137 480 c 256,17,18
EndSplineSet
Validated: 1
Substitution2: "'tnum' Tabular Numbers lookup 20 subtable" nine.tf
Substitution2: "'aalt' Access All Alternates lookup 0 subtable" nine.tf
EndChar

StartChar: colon
Encoding: 30 58 30
Width: 225
GlyphClass: 2
Flags: W
LayerCount: 2
Fore
SplineSet
71 116 m 0,0,1
 88 134 88 134 113 134 c 128,-1,2
 138 134 138 134 155.5 116 c 128,-1,3
 173 98 173 98 173 73 c 128,-1,4
 173 48 173 48 156 31 c 0,5,6
 138 13 138 13 113 13 c 128,-1,7
 88 13 88 13 70.5 30.5 c 128,-1,8
 53 48 53 48 53 73 c 128,-1,9
 53 98 53 98 71 116 c 0,0,1
71 520 m 0,10,11
 88 538 88 538 113 538 c 128,-1,12
 138 538 138 538 155.5 520 c 128,-1,13
 173 502 173 502 173 477 c 128,-1,14
 173 452 173 452 156 435 c 0,15,16
 138 417 138 417 113 417 c 128,-1,17
 88 417 88 417 70.5 434.5 c 128,-1,18
 53 452 53 452 53 477 c 128,-1,19
 53 502 53 502 71 520 c 0,10,11
EndSplineSet
Validated: 1
EndChar

StartChar: semicolon
Encoding: 31 59 31
Width: 225
GlyphClass: 2
Flags: W
LayerCount: 2
Fore
SplineSet
49 -140 m 1,0,-1
 76 104 l 1,1,-1
 165 104 l 1,2,-1
 117 -140 l 1,3,-1
 49 -140 l 1,0,-1
75 522 m 0,4,5
 92 539 92 539 117 539 c 128,-1,6
 142 539 142 539 159.5 521.5 c 128,-1,7
 177 504 177 504 177 479 c 128,-1,8
 177 454 177 454 160 436 c 0,9,10
 142 418 142 418 117 418 c 128,-1,11
 92 418 92 418 74.5 436 c 128,-1,12
 57 454 57 454 57 479 c 128,-1,13
 57 504 57 504 75 522 c 0,4,5
EndSplineSet
Validated: 1
EndChar

StartChar: less
Encoding: 32 60 32
Width: 565
GlyphClass: 2
Flags: W
LayerCount: 2
Fore
SplineSet
513 616 m 1,0,-1
 513 528 l 1,1,-1
 150 370 l 1,2,-1
 513 212 l 1,3,-1
 513 124 l 1,4,-1
 49 326 l 1,5,-1
 49 414 l 1,6,-1
 513 616 l 1,0,-1
EndSplineSet
Validated: 1
EndChar

StartChar: equal
Encoding: 33 61 33
Width: 548
GlyphClass: 2
Flags: W
LayerCount: 2
Fore
SplineSet
57 223 m 1,0,-1
 57 304 l 1,1,-1
 492 304 l 1,2,-1
 492 223 l 1,3,-1
 57 223 l 1,0,-1
492 498 m 1,4,-1
 492 418 l 1,5,-1
 57 418 l 1,6,-1
 57 498 l 1,7,-1
 492 498 l 1,4,-1
EndSplineSet
Validated: 1
EndChar

StartChar: greater
Encoding: 34 62 34
Width: 561
GlyphClass: 2
Flags: W
LayerCount: 2
Fore
SplineSet
513 414 m 1,0,-1
 513 326 l 1,1,-1
 49 124 l 1,2,-1
 49 212 l 1,3,-1
 411 370 l 1,4,-1
 49 528 l 1,5,-1
 49 616 l 1,6,-1
 513 414 l 1,0,-1
EndSplineSet
Validated: 1
EndChar

StartChar: question
Encoding: 35 63 35
Width: 557
GlyphClass: 2
Flags: W
LayerCount: 2
Fore
SplineSet
49 572 m 1,0,1
 72 647 72 647 135 695.5 c 128,-1,2
 198 744 198 744 279 744 c 0,3,4
 377 744 377 744 442.5 684.5 c 128,-1,5
 508 625 508 625 508 532 c 0,6,7
 508 459 508 459 477 408 c 128,-1,8
 446 357 446 357 376 298 c 0,9,10
 346 273 346 273 331 248 c 128,-1,11
 316 223 316 223 316 186 c 2,12,-1
 316 154 l 1,13,-1
 218 154 l 1,14,-1
 218 195 l 2,15,16
 218 287 218 287 302 355 c 0,17,18
 364 405 364 405 387.5 444 c 128,-1,19
 411 483 411 483 411 524 c 0,20,21
 411 577 411 577 373.5 611.5 c 128,-1,22
 336 646 336 646 280 646 c 0,23,24
 228 646 228 646 190 614.5 c 128,-1,25
 152 583 152 583 137 538 c 1,26,-1
 49 572 l 1,0,1
225 93 m 0,27,28
 243 110 243 110 268 110 c 0,29,30
 292 110 292 110 309.5 92.5 c 128,-1,31
 327 75 327 75 327 50 c 128,-1,32
 327 25 327 25 309.5 7 c 128,-1,33
 292 -11 292 -11 268 -11 c 0,34,35
 242 -11 242 -11 224.5 6.5 c 128,-1,36
 207 24 207 24 207 50 c 0,37,38
 207 75 207 75 225 93 c 0,27,28
EndSplineSet
Validated: 1
EndChar

StartChar: at
Encoding: 36 64 36
Width: 831
GlyphClass: 2
Flags: W
LayerCount: 2
Fore
SplineSet
150 631 m 0,0,1
 260 741 260 741 416 741 c 128,-1,2
 572 741 572 741 682 630.5 c 128,-1,3
 792 520 792 520 792 365 c 0,4,5
 792 311 792 311 776 262 c 128,-1,6
 760 213 760 213 722 177.5 c 128,-1,7
 684 142 684 142 631 142 c 0,8,9
 629 142 629 142 628 142 c 0,10,11
 586 143 586 143 555 170 c 128,-1,12
 524 197 524 197 516 244 c 1,13,14
 470 185 470 185 393 185 c 0,15,16
 320 185 320 185 268 238.5 c 128,-1,17
 216 292 216 292 216 367 c 0,18,19
 216 443 216 443 267.5 496 c 128,-1,20
 319 549 319 549 393 549 c 0,21,22
 469 549 469 549 515 492 c 1,23,-1
 517 548 l 1,24,-1
 574 548 l 1,25,-1
 574 281 l 2,26,27
 574 243 574 243 592 220 c 128,-1,28
 610 197 610 197 637 197 c 0,29,30
 638 197 638 197 639 197 c 0,31,32
 675 197 675 197 700 228 c 128,-1,33
 725 259 725 259 733.5 295 c 128,-1,34
 742 331 742 331 742 366 c 0,35,36
 742 499 742 499 646 595 c 128,-1,37
 550 691 550 691 416 691 c 0,38,39
 280 691 280 691 184.5 595 c 128,-1,40
 89 499 89 499 89 366 c 0,41,42
 89 230 89 230 185.5 134 c 128,-1,43
 282 38 282 38 416 38 c 0,44,45
 463 38 463 38 510 52 c 1,46,-1
 523 3 l 1,47,48
 474 -13 474 -13 416 -13 c 0,49,50
 259 -13 259 -13 149 97.5 c 128,-1,51
 39 208 39 208 39 365 c 0,52,53
 39 520 39 520 150 631 c 0,0,1
279 367 m 0,54,55
 279 319 279 319 312.5 285 c 128,-1,56
 346 251 346 251 394 251 c 0,57,58
 441 251 441 251 475 285.5 c 128,-1,59
 509 320 509 320 509 367 c 128,-1,60
 509 414 509 414 475 448 c 128,-1,61
 441 482 441 482 394 482 c 0,62,63
 346 482 346 482 312.5 448 c 128,-1,64
 279 414 279 414 279 367 c 0,54,55
EndSplineSet
Validated: 1
EndChar

StartChar: A
Encoding: 37 65 37
Width: 676
GlyphClass: 2
Flags: W
LayerCount: 2
Fore
SplineSet
282 730 m 1,0,-1
 394 730 l 1,1,-1
 661 0 l 1,2,-1
 549 0 l 1,3,-1
 479 190 l 1,4,-1
 198 190 l 1,5,-1
 129 0 l 1,6,-1
 15 0 l 1,7,-1
 282 730 l 1,0,-1
449 287 m 1,8,-1
 338 591 l 1,9,-1
 228 287 l 1,10,-1
 449 287 l 1,8,-1
EndSplineSet
Validated: 1
Substitution2: "'ss02' Style Set 2 lookup 28 subtable" A.ss02
Substitution2: "Single Substitution lookup 4 subtable" ordfeminine
AlternateSubs2: "'aalt' Access All Alternates lookup 1 subtable" ordfeminine A.ss02
EndChar

StartChar: B
Encoding: 38 66 38
Width: 651
GlyphClass: 2
Flags: W
LayerCount: 2
Fore
SplineSet
82 730 m 1,0,-1
 343 730 l 2,1,2
 444 730 444 730 506 677.5 c 128,-1,3
 568 625 568 625 568 541 c 0,4,5
 568 442 568 442 480 391 c 1,6,7
 540 371 540 371 576 323.5 c 128,-1,8
 612 276 612 276 612 210 c 0,9,10
 612 118 612 118 546.5 59 c 128,-1,11
 481 0 481 0 375 0 c 2,12,-1
 82 0 l 1,13,-1
 82 730 l 1,0,-1
185 100 m 1,14,-1
 372 100 l 2,15,16
 434 100 434 100 470 132.5 c 128,-1,17
 506 165 506 165 506 217 c 0,18,19
 506 268 506 268 469.5 300.5 c 128,-1,20
 433 333 433 333 378 333 c 2,21,-1
 185 333 l 1,22,-1
 185 100 l 1,14,-1
185 424 m 1,23,-1
 347 425 l 2,24,25
 400 426 400 426 433.5 454.5 c 128,-1,26
 467 483 467 483 467 527 c 0,27,28
 467 574 467 574 434 604.5 c 128,-1,29
 401 635 401 635 341 635 c 2,30,-1
 185 635 l 1,31,-1
 185 424 l 1,23,-1
EndSplineSet
Validated: 1
EndChar

StartChar: C
Encoding: 39 67 39
Width: 761
GlyphClass: 2
Flags: W
LayerCount: 2
Fore
SplineSet
159 630 m 256,0,1
 269 740 269 740 425 740 c 0,2,3
 513 740 513 740 590 702 c 128,-1,4
 667 664 667 664 720 598 c 1,5,-1
 635 535 l 1,6,7
 597 582 597 582 542 608.5 c 128,-1,8
 487 635 487 635 425 635 c 0,9,10
 313 635 313 635 233.5 556.5 c 128,-1,11
 154 478 154 478 154 366 c 0,12,13
 154 252 154 252 233.5 173 c 128,-1,14
 313 94 313 94 425 94 c 0,15,16
 489 94 489 94 544.5 121.5 c 128,-1,17
 600 149 600 149 637 198 c 1,18,-1
 727 142 l 1,19,20
 675 71 675 71 595.5 29.5 c 128,-1,21
 516 -12 516 -12 425 -12 c 0,22,23
 269 -12 269 -12 159 98.5 c 128,-1,24
 49 209 49 209 49 365 c 0,25,26
 49 520 49 520 159 630 c 256,0,1
EndSplineSet
Validated: 1
EndChar

StartChar: D
Encoding: 40 68 40
Width: 739
GlyphClass: 2
Flags: W
LayerCount: 2
Fore
SplineSet
306 730 m 2,0,1
 474 730 474 730 582 625 c 128,-1,2
 690 520 690 520 690 366 c 0,3,4
 690 209 690 209 584 104.5 c 128,-1,5
 478 0 478 0 306 0 c 2,6,-1
 82 0 l 1,7,-1
 82 730 l 1,8,-1
 306 730 l 2,0,1
185 629 m 1,9,-1
 185 102 l 1,10,-1
 306 102 l 2,11,12
 433 102 433 102 508 178 c 128,-1,13
 583 254 583 254 583 367 c 0,14,15
 583 476 583 476 506 552.5 c 128,-1,16
 429 629 429 629 306 629 c 2,17,-1
 185 629 l 1,9,-1
EndSplineSet
Validated: 1
EndChar

StartChar: E
Encoding: 41 69 41
Width: 591
GlyphClass: 2
Flags: W
LayerCount: 2
Fore
SplineSet
82 730 m 1,0,-1
 533 730 l 1,1,-1
 533 635 l 1,2,-1
 184 635 l 1,3,-1
 184 422 l 1,4,-1
 513 422 l 1,5,-1
 513 327 l 1,6,-1
 184 327 l 1,7,-1
 184 100 l 1,8,-1
 543 100 l 1,9,-1
 543 0 l 1,10,-1
 82 0 l 1,11,-1
 82 730 l 1,0,-1
EndSplineSet
Validated: 1
EndChar

StartChar: F
Encoding: 42 70 42
Width: 593
GlyphClass: 2
Flags: W
LayerCount: 2
Fore
SplineSet
82 730 m 1,0,-1
 553 730 l 1,1,-1
 553 631 l 1,2,-1
 184 631 l 1,3,-1
 184 417 l 1,4,-1
 533 417 l 1,5,-1
 533 318 l 1,6,-1
 184 318 l 1,7,-1
 184 0 l 1,8,-1
 82 0 l 1,9,-1
 82 730 l 1,0,-1
EndSplineSet
Validated: 1
EndChar

StartChar: G
Encoding: 43 71 43
Width: 839
GlyphClass: 2
Flags: W
LayerCount: 2
Fore
SplineSet
159 630 m 256,0,1
 269 740 269 740 425 740 c 0,2,3
 514 740 514 740 592 701 c 128,-1,4
 670 662 670 662 723 594 c 1,5,-1
 631 538 l 1,6,7
 594 583 594 583 540 609 c 128,-1,8
 486 635 486 635 425 635 c 0,9,10
 313 635 313 635 233.5 556.5 c 128,-1,11
 154 478 154 478 154 366 c 0,12,13
 154 252 154 252 233.5 173 c 128,-1,14
 313 94 313 94 425 94 c 0,15,16
 530 94 530 94 598 156.5 c 128,-1,17
 666 219 666 219 674 321 c 1,18,-1
 401 321 l 1,19,-1
 401 416 l 1,20,-1
 786 416 l 1,21,22
 790 395 790 395 790 365 c 0,23,24
 790 198 790 198 688.5 93 c 128,-1,25
 587 -12 587 -12 425 -12 c 0,26,27
 269 -12 269 -12 159 98.5 c 128,-1,28
 49 209 49 209 49 365 c 0,29,30
 49 520 49 520 159 630 c 256,0,1
EndSplineSet
Validated: 1
Substitution2: "'ss01' Style Set 1 lookup 27 subtable" G.ss01
Substitution2: "'salt' Stylistic Alternatives lookup 26 subtable" G.ss01
Substitution2: "'aalt' Access All Alternates lookup 0 subtable" G.ss01
EndChar

StartChar: H
Encoding: 44 72 44
Width: 731
GlyphClass: 2
Flags: W
LayerCount: 2
Fore
SplineSet
82 730 m 1,0,-1
 185 730 l 1,1,-1
 185 415 l 1,2,-1
 547 415 l 1,3,-1
 547 730 l 1,4,-1
 650 730 l 1,5,-1
 650 0 l 1,6,-1
 547 0 l 1,7,-1
 547 312 l 1,8,-1
 185 312 l 1,9,-1
 185 0 l 1,10,-1
 82 0 l 1,11,-1
 82 730 l 1,0,-1
EndSplineSet
Validated: 1
EndChar

StartChar: I
Encoding: 45 73 45
Width: 266
GlyphClass: 2
Flags: W
LayerCount: 2
Fore
SplineSet
185 0 m 1,0,-1
 82 0 l 1,1,-1
 82 730 l 1,2,-1
 185 730 l 1,3,-1
 185 0 l 1,0,-1
EndSplineSet
Validated: 1
EndChar

StartChar: J
Encoding: 46 74 46
Width: 506
GlyphClass: 2
Flags: W
LayerCount: 2
Fore
SplineSet
25 69 m 1,0,-1
 100 133 l 1,1,2
 141 94 141 94 196 94 c 0,3,4
 258 94 258 94 295 137 c 128,-1,5
 332 180 332 180 332 252 c 2,6,-1
 332 730 l 1,7,-1
 435 730 l 1,8,-1
 435 252 l 2,9,10
 435 134 435 134 368.5 63 c 128,-1,11
 302 -8 302 -8 196 -8 c 0,12,13
 92 -8 92 -8 25 69 c 1,0,-1
EndSplineSet
Validated: 1
EndChar

StartChar: K
Encoding: 47 75 47
Width: 656
GlyphClass: 2
Flags: W
LayerCount: 2
Fore
SplineSet
82 730 m 1,0,-1
 185 730 l 1,1,-1
 185 378 l 1,2,-1
 494 730 l 1,3,-1
 613 730 l 1,4,-1
 357 429 l 1,5,-1
 638 0 l 1,6,-1
 517 0 l 1,7,-1
 292 336 l 1,8,-1
 185 220 l 1,9,-1
 185 0 l 1,10,-1
 82 0 l 1,11,-1
 82 730 l 1,0,-1
EndSplineSet
Validated: 1
Substitution2: "'ss02' Style Set 2 lookup 28 subtable" K.ss02
Substitution2: "'aalt' Access All Alternates lookup 0 subtable" K.ss02
EndChar

StartChar: L
Encoding: 48 76 48
Width: 575
GlyphClass: 2
Flags: W
LayerCount: 2
Fore
SplineSet
553 0 m 1,0,-1
 82 0 l 1,1,-1
 82 730 l 1,2,-1
 185 730 l 1,3,-1
 185 103 l 1,4,-1
 553 103 l 1,5,-1
 553 0 l 1,0,-1
EndSplineSet
Validated: 1
EndChar

StartChar: M
Encoding: 49 77 49
Width: 933
GlyphClass: 2
Flags: W
LayerCount: 2
Fore
SplineSet
82 0 m 1,0,-1
 82 730 l 1,1,-1
 190 730 l 1,2,-1
 467 260 l 1,3,-1
 743 730 l 1,4,-1
 852 730 l 1,5,-1
 852 0 l 1,6,-1
 749 0 l 1,7,-1
 749 558 l 1,8,-1
 497 129 l 1,9,-1
 436 129 l 1,10,-1
 185 558 l 1,11,-1
 185 0 l 1,12,-1
 82 0 l 1,0,-1
EndSplineSet
Validated: 1
Substitution2: "'ss02' Style Set 2 lookup 28 subtable" M.ss02
Substitution2: "'ss01' Style Set 1 lookup 27 subtable" M.ss01
Substitution2: "'salt' Stylistic Alternatives lookup 26 subtable" M.ss01
AlternateSubs2: "'aalt' Access All Alternates lookup 1 subtable" M.ss01 M.ss02
EndChar

StartChar: N
Encoding: 50 78 50
Width: 778
GlyphClass: 2
Flags: W
LayerCount: 2
Fore
SplineSet
82 0 m 1,0,-1
 82 730 l 1,1,-1
 185 730 l 1,2,-1
 593 181 l 1,3,-1
 593 730 l 1,4,-1
 697 730 l 1,5,-1
 697 0 l 1,6,-1
 593 0 l 1,7,-1
 185 550 l 1,8,-1
 185 0 l 1,9,-1
 82 0 l 1,0,-1
EndSplineSet
Validated: 1
Substitution2: "'ss02' Style Set 2 lookup 28 subtable" N.ss02
Substitution2: "'aalt' Access All Alternates lookup 0 subtable" N.ss02
EndChar

StartChar: O
Encoding: 51 79 51
Width: 849
GlyphClass: 2
Flags: W
LayerCount: 2
Fore
SplineSet
159 630 m 256,0,1
 269 740 269 740 425 740 c 0,2,3
 580 740 580 740 690 630 c 128,-1,4
 800 520 800 520 800 365 c 0,5,6
 800 209 800 209 690 98.5 c 128,-1,7
 580 -12 580 -12 425 -12 c 0,8,9
 269 -12 269 -12 159 98.5 c 128,-1,10
 49 209 49 209 49 365 c 0,11,12
 49 520 49 520 159 630 c 256,0,1
154 366 m 0,13,14
 154 252 154 252 233.5 173 c 128,-1,15
 313 94 313 94 425 94 c 0,16,17
 536 94 536 94 615.5 173 c 128,-1,18
 695 252 695 252 695 366 c 0,19,20
 695 477 695 477 615.5 556 c 128,-1,21
 536 635 536 635 425 635 c 0,22,23
 313 635 313 635 233.5 556.5 c 128,-1,24
 154 478 154 478 154 366 c 0,13,14
EndSplineSet
Validated: 1
Substitution2: "Single Substitution lookup 4 subtable" ordmasculine
Substitution2: "'aalt' Access All Alternates lookup 0 subtable" ordmasculine
EndChar

StartChar: P
Encoding: 52 80 52
Width: 639
GlyphClass: 2
Flags: W
LayerCount: 2
Fore
SplineSet
359 730 m 2,0,1
 468 730 468 730 536.5 664 c 128,-1,2
 605 598 605 598 605 501 c 128,-1,3
 605 404 605 404 536.5 337.5 c 128,-1,4
 468 271 468 271 359 271 c 2,5,-1
 185 271 l 1,6,-1
 185 0 l 1,7,-1
 82 0 l 1,8,-1
 82 730 l 1,9,-1
 359 730 l 2,0,1
357 372 m 2,10,11
 421 372 421 372 460 409.5 c 128,-1,12
 499 447 499 447 499 501 c 0,13,14
 499 554 499 554 460 591.5 c 128,-1,15
 421 629 421 629 357 629 c 2,16,-1
 185 629 l 1,17,-1
 185 372 l 1,18,-1
 357 372 l 2,10,11
EndSplineSet
Validated: 1
EndChar

StartChar: Q
Encoding: 53 81 53
Width: 858
GlyphClass: 2
Flags: W
LayerCount: 2
Fore
SplineSet
159 630 m 256,0,1
 269 740 269 740 425 740 c 0,2,3
 580 740 580 740 690 630 c 128,-1,4
 800 520 800 520 800 365 c 0,5,6
 800 222 800 222 706 118 c 1,7,-1
 782 31 l 1,8,-1
 717 -27 l 1,9,-1
 644 61 l 1,10,11
 547 -12 547 -12 425 -12 c 0,12,13
 269 -12 269 -12 159 98.5 c 128,-1,14
 49 209 49 209 49 365 c 0,15,16
 49 520 49 520 159 630 c 256,0,1
154 366 m 0,17,18
 154 252 154 252 233.5 173 c 128,-1,19
 313 94 313 94 425 94 c 0,20,21
 510 94 510 94 574 144 c 1,22,-1
 498 234 l 1,23,-1
 558 285 l 1,24,-1
 632 201 l 1,25,26
 695 272 695 272 695 366 c 0,27,28
 695 477 695 477 615.5 556 c 128,-1,29
 536 635 536 635 425 635 c 0,30,31
 313 635 313 635 233.5 556.5 c 128,-1,32
 154 478 154 478 154 366 c 0,17,18
EndSplineSet
Validated: 1
Substitution2: "'ss01' Style Set 1 lookup 27 subtable" Q.ss01
Substitution2: "'salt' Stylistic Alternatives lookup 26 subtable" Q.ss01
Substitution2: "'aalt' Access All Alternates lookup 0 subtable" Q.ss01
EndChar

StartChar: R
Encoding: 54 82 54
Width: 641
GlyphClass: 2
Flags: W
LayerCount: 2
Fore
SplineSet
359 730 m 2,0,1
 468 730 468 730 536.5 664 c 128,-1,2
 605 598 605 598 605 501 c 0,3,4
 605 424 605 424 559 365.5 c 128,-1,5
 513 307 513 307 438 289 c 1,6,-1
 617 0 l 1,7,-1
 497 0 l 1,8,-1
 331 271 l 1,9,-1
 185 271 l 1,10,-1
 185 0 l 1,11,-1
 82 0 l 1,12,-1
 82 730 l 1,13,-1
 359 730 l 2,0,1
357 372 m 2,14,15
 421 372 421 372 460 409.5 c 128,-1,16
 499 447 499 447 499 501 c 0,17,18
 499 554 499 554 460 591.5 c 128,-1,19
 421 629 421 629 357 629 c 2,20,-1
 185 629 l 1,21,-1
 185 372 l 1,22,-1
 357 372 l 2,14,15
EndSplineSet
Validated: 1
Substitution2: "'ss02' Style Set 2 lookup 28 subtable" R.ss02
Substitution2: "'aalt' Access All Alternates lookup 0 subtable" R.ss02
EndChar

StartChar: S
Encoding: 55 83 55
Width: 606
GlyphClass: 2
Flags: W
LayerCount: 2
Fore
SplineSet
46 104 m 1,0,-1
 111 170 l 1,1,2
 196 85 196 85 310 84 c 0,3,4
 377 84 377 84 418.5 114.5 c 128,-1,5
 460 145 460 145 460 199 c 0,6,7
 460 235 460 235 438 260.5 c 128,-1,8
 416 286 416 286 380.5 302 c 128,-1,9
 345 318 345 318 302.5 331.5 c 128,-1,10
 260 345 260 345 217.5 362 c 128,-1,11
 175 379 175 379 139.5 401 c 128,-1,12
 104 423 104 423 82 461 c 128,-1,13
 60 499 60 499 60 551 c 0,14,15
 60 634 60 634 124 688 c 128,-1,16
 188 742 188 742 298 742 c 0,17,18
 364 742 364 742 430 713 c 128,-1,19
 496 684 496 684 541 624 c 1,20,-1
 468 567 l 1,21,22
 442 604 442 604 396.5 625 c 128,-1,23
 351 646 351 646 303 647 c 0,24,25
 301 647 301 647 298 647 c 0,26,27
 238 647 238 647 199 620.5 c 128,-1,28
 160 594 160 594 160 552 c 0,29,30
 160 520 160 520 182 496.5 c 128,-1,31
 204 473 204 473 239.5 458.5 c 128,-1,32
 275 444 275 444 317.5 431 c 128,-1,33
 360 418 360 418 403 401 c 128,-1,34
 446 384 446 384 481.5 361 c 128,-1,35
 517 338 517 338 539 298 c 128,-1,36
 561 258 561 258 561 204 c 0,37,38
 561 106 561 106 491 47.5 c 128,-1,39
 421 -11 421 -11 313 -11 c 0,40,41
 311 -11 311 -11 309 -11 c 0,42,43
 153 -11 153 -11 46 104 c 1,0,-1
EndSplineSet
Validated: 1
EndChar

StartChar: T
Encoding: 56 84 56
Width: 594
GlyphClass: 2
Flags: W
LayerCount: 2
Fore
SplineSet
23 730 m 1,0,-1
 572 730 l 1,1,-1
 572 631 l 1,2,-1
 349 631 l 1,3,-1
 349 0 l 1,4,-1
 246 0 l 1,5,-1
 246 631 l 1,6,-1
 23 631 l 1,7,-1
 23 730 l 1,0,-1
EndSplineSet
Validated: 1
EndChar

StartChar: U
Encoding: 57 85 57
Width: 708
GlyphClass: 2
Flags: W
LayerCount: 2
Fore
SplineSet
72 730 m 1,0,-1
 175 730 l 1,1,-1
 175 279 l 2,2,3
 175 190 175 190 224.5 141.5 c 128,-1,4
 274 93 274 93 352 93 c 128,-1,5
 430 93 430 93 481.5 141.5 c 128,-1,6
 533 190 533 190 533 279 c 2,7,-1
 533 730 l 1,8,-1
 637 730 l 1,9,-1
 637 278 l 2,10,11
 637 147 637 147 556 68 c 128,-1,12
 475 -11 475 -11 354 -11 c 0,13,14
 232 -11 232 -11 152 68 c 128,-1,15
 72 147 72 147 72 278 c 2,16,-1
 72 730 l 1,0,-1
EndSplineSet
Validated: 1
EndChar

StartChar: V
Encoding: 58 86 58
Width: 663
GlyphClass: 2
Flags: W
LayerCount: 2
Fore
SplineSet
122 730 m 1,0,-1
 332 153 l 1,1,-1
 542 730 l 1,2,-1
 655 730 l 1,3,-1
 384 0 l 1,4,-1
 280 0 l 1,5,-1
 9 730 l 1,6,-1
 122 730 l 1,0,-1
EndSplineSet
Validated: 1
Substitution2: "'ss02' Style Set 2 lookup 28 subtable" V.ss02
Substitution2: "'aalt' Access All Alternates lookup 0 subtable" V.ss02
EndChar

StartChar: W
Encoding: 59 87 59
Width: 1018
GlyphClass: 2
Flags: W
LayerCount: 2
Fore
SplineSet
19 730 m 1,0,-1
 127 730 l 1,1,-1
 297 176 l 1,2,-1
 463 731 l 1,3,-1
 555 731 l 1,4,-1
 721 176 l 1,5,-1
 891 730 l 1,6,-1
 999 730 l 1,7,-1
 777 0 l 1,8,-1
 672 0 l 1,9,-1
 510 555 l 1,10,-1
 347 0 l 1,11,-1
 241 0 l 1,12,-1
 19 730 l 1,0,-1
EndSplineSet
Validated: 1
Substitution2: "'ss02' Style Set 2 lookup 28 subtable" W.ss02
Substitution2: "'ss01' Style Set 1 lookup 27 subtable" W.ss01
Substitution2: "'salt' Stylistic Alternatives lookup 26 subtable" W.ss01
AlternateSubs2: "'aalt' Access All Alternates lookup 1 subtable" W.ss01 W.ss02
EndChar

StartChar: X
Encoding: 60 88 60
Width: 685
GlyphClass: 2
Flags: W
LayerCount: 2
Fore
SplineSet
275 373 m 1,0,-1
 33 730 l 1,1,-1
 154 730 l 1,2,-1
 343 462 l 1,3,-1
 531 730 l 1,4,-1
 652 730 l 1,5,-1
 410 373 l 1,6,-1
 662 0 l 1,7,-1
 541 0 l 1,8,-1
 343 284 l 1,9,-1
 144 0 l 1,10,-1
 23 0 l 1,11,-1
 275 373 l 1,0,-1
EndSplineSet
Validated: 1
EndChar

StartChar: Y
Encoding: 61 89 61
Width: 648
GlyphClass: 2
Flags: W
LayerCount: 2
Fore
SplineSet
131 730 m 1,0,-1
 324 423 l 1,1,-1
 517 730 l 1,2,-1
 635 730 l 1,3,-1
 375 310 l 1,4,-1
 375 0 l 1,5,-1
 272 0 l 1,6,-1
 272 311 l 1,7,-1
 13 730 l 1,8,-1
 131 730 l 1,0,-1
EndSplineSet
Validated: 1
EndChar

StartChar: Z
Encoding: 62 90 62
Width: 641
GlyphClass: 2
Flags: W
LayerCount: 2
Fore
SplineSet
599 0 m 1,0,-1
 43 0 l 1,1,-1
 43 102 l 1,2,-1
 451 629 l 1,3,-1
 53 629 l 1,4,-1
 53 730 l 1,5,-1
 589 730 l 1,6,-1
 589 629 l 1,7,-1
 181 102 l 1,8,-1
 599 102 l 1,9,-1
 599 0 l 1,0,-1
EndSplineSet
Validated: 1
Substitution2: "'ss02' Style Set 2 lookup 28 subtable" Z.ss02
Substitution2: "'aalt' Access All Alternates lookup 0 subtable" Z.ss02
EndChar

StartChar: bracketleft
Encoding: 63 91 63
Width: 312
GlyphClass: 2
Flags: W
LayerCount: 2
Fore
SplineSet
79 780 m 1,0,-1
 296 780 l 1,1,-1
 296 700 l 1,2,-1
 167 700 l 1,3,-1
 167 -30 l 1,4,-1
 296 -30 l 1,5,-1
 296 -110 l 1,6,-1
 79 -110 l 1,7,-1
 79 780 l 1,0,-1
EndSplineSet
Validated: 1
EndChar

StartChar: backslash
Encoding: 64 92 64
Width: 514
GlyphClass: 2
Flags: W
LayerCount: 2
Fore
SplineSet
482 -110 m 1,0,-1
 387 -110 l 1,1,-1
 33 781 l 1,2,-1
 128 781 l 1,3,-1
 482 -110 l 1,0,-1
EndSplineSet
Validated: 1
EndChar

StartChar: bracketright
Encoding: 65 93 65
Width: 312
GlyphClass: 2
Flags: W
LayerCount: 2
Fore
SplineSet
234 780 m 1,0,-1
 234 -110 l 1,1,-1
 17 -110 l 1,2,-1
 17 -30 l 1,3,-1
 146 -30 l 1,4,-1
 146 700 l 1,5,-1
 17 700 l 1,6,-1
 17 780 l 1,7,-1
 234 780 l 1,0,-1
EndSplineSet
Validated: 1
EndChar

StartChar: asciicircum
Encoding: 66 94 66
Width: 478
GlyphClass: 2
Flags: W
LayerCount: 2
Fore
SplineSet
198 730 m 1,0,-1
 280 730 l 1,1,-1
 458 415 l 1,2,-1
 366 415 l 1,3,-1
 239 643 l 1,4,-1
 113 415 l 1,5,-1
 20 415 l 1,6,-1
 198 730 l 1,0,-1
EndSplineSet
Validated: 1
EndChar

StartChar: underscore
Encoding: 67 95 67
Width: 535
GlyphClass: 2
Flags: W
LayerCount: 2
Fore
SplineSet
487 0 m 1,0,-1
 49 0 l 1,1,-1
 49 81 l 1,2,-1
 486 81 l 1,3,-1
 487 0 l 1,0,-1
EndSplineSet
Validated: 1
EndChar

StartChar: grave
Encoding: 68 96 68
Width: 246
GlyphClass: 2
Flags: W
LayerCount: 2
Fore
SplineSet
197 570 m 1,0,-1
 133 570 l 1,1,-1
 49 730 l 1,2,-1
 138 730 l 1,3,-1
 197 570 l 1,0,-1
EndSplineSet
Validated: 1
EndChar

StartChar: a
Encoding: 69 97 69
Width: 678
GlyphClass: 2
Flags: W
LayerCount: 2
Fore
SplineSet
118 475 m 0,0,1
 196 558 196 558 307 558 c 0,2,3
 373 558 373 558 429.5 523 c 128,-1,4
 486 488 486 488 512 434 c 1,5,-1
 517 550 l 1,6,-1
 607 550 l 1,7,-1
 607 0 l 1,8,-1
 517 0 l 1,9,-1
 512 115 l 1,10,11
 486 62 486 62 429.5 27.5 c 128,-1,12
 373 -7 373 -7 307 -7 c 0,13,14
 196 -7 196 -7 117.5 76 c 128,-1,15
 39 159 39 159 39 275 c 0,16,17
 39 392 39 392 118 475 c 0,0,1
192 144 m 256,18,19
 246 90 246 90 323 90 c 128,-1,20
 400 90 400 90 454.5 144 c 128,-1,21
 509 198 509 198 509 275 c 128,-1,22
 509 352 509 352 454.5 407 c 128,-1,23
 400 462 400 462 323 462 c 0,24,25
 247 462 247 462 192.5 407 c 128,-1,26
 138 352 138 352 138 275 c 128,-1,27
 138 198 138 198 192 144 c 256,18,19
EndSplineSet
Validated: 1
Substitution2: "'ss02' Style Set 2 lookup 28 subtable" a.ss02
Substitution2: "'ss01' Style Set 1 lookup 27 subtable" a.ss01
Substitution2: "'salt' Stylistic Alternatives lookup 26 subtable" a.ss01
Substitution2: "Single Substitution lookup 4 subtable" ordfeminine
AlternateSubs2: "'aalt' Access All Alternates lookup 1 subtable" ordfeminine a.ss01 a.ss02
EndChar

StartChar: b
Encoding: 70 98 70
Width: 678
GlyphClass: 2
Flags: W
LayerCount: 2
Fore
SplineSet
72 780 m 1,0,-1
 169 780 l 1,1,-1
 169 437 l 1,2,3
 194 490 194 490 249.5 524 c 128,-1,4
 305 558 305 558 371 558 c 0,5,6
 482 558 482 558 560.5 475 c 128,-1,7
 639 392 639 392 639 275 c 0,8,9
 639 159 639 159 560.5 76 c 128,-1,10
 482 -7 482 -7 371 -7 c 0,11,12
 305 -7 305 -7 248.5 27.5 c 128,-1,13
 192 62 192 62 167 115 c 1,14,-1
 162 0 l 1,15,-1
 72 0 l 1,16,-1
 72 780 l 1,0,-1
224 144 m 0,17,18
 278 90 278 90 356 90 c 0,19,20
 432 90 432 90 486.5 144 c 128,-1,21
 541 198 541 198 541 275 c 128,-1,22
 541 352 541 352 486.5 407 c 128,-1,23
 432 462 432 462 356 462 c 0,24,25
 278 462 278 462 223.5 407 c 128,-1,26
 169 352 169 352 169 275 c 128,-1,27
 169 198 169 198 224 144 c 0,17,18
EndSplineSet
Validated: 1
EndChar

StartChar: c
Encoding: 71 99 71
Width: 591
GlyphClass: 2
Flags: W
LayerCount: 2
Fore
SplineSet
122 475 m 0,0,1
 204 557 204 557 321 557 c 0,2,3
 391 557 391 557 451.5 525 c 128,-1,4
 512 493 512 493 552 438 c 1,5,-1
 471 384 l 1,6,7
 415 458 415 458 321 458 c 0,8,9
 245 458 245 458 191.5 404.5 c 128,-1,10
 138 351 138 351 138 276 c 0,11,12
 138 199 138 199 191.5 145.5 c 128,-1,13
 245 92 245 92 321 92 c 0,14,15
 368 92 368 92 408 113 c 128,-1,16
 448 134 448 134 473 171 c 1,17,-1
 554 117 l 1,18,19
 516 60 516 60 454 26 c 128,-1,20
 392 -8 392 -8 321 -8 c 0,21,22
 204 -8 204 -8 121.5 75.5 c 128,-1,23
 39 159 39 159 39 276 c 0,24,25
 39 392 39 392 122 475 c 0,0,1
EndSplineSet
Validated: 1
EndChar

StartChar: d
Encoding: 72 100 72
Width: 678
GlyphClass: 2
Flags: W
LayerCount: 2
Fore
SplineSet
118 475 m 0,0,1
 196 558 196 558 307 558 c 0,2,3
 373 558 373 558 428.5 524 c 128,-1,4
 484 490 484 490 509 437 c 1,5,-1
 509 780 l 1,6,-1
 607 780 l 1,7,-1
 607 0 l 1,8,-1
 517 0 l 1,9,-1
 512 115 l 1,10,11
 486 62 486 62 429.5 27.5 c 128,-1,12
 373 -7 373 -7 307 -7 c 0,13,14
 196 -7 196 -7 117.5 76 c 128,-1,15
 39 159 39 159 39 275 c 0,16,17
 39 392 39 392 118 475 c 0,0,1
192 144 m 256,18,19
 246 90 246 90 323 90 c 128,-1,20
 400 90 400 90 454.5 144 c 128,-1,21
 509 198 509 198 509 275 c 128,-1,22
 509 352 509 352 454.5 407 c 128,-1,23
 400 462 400 462 323 462 c 0,24,25
 247 462 247 462 192.5 407 c 128,-1,26
 138 352 138 352 138 275 c 128,-1,27
 138 198 138 198 192 144 c 256,18,19
EndSplineSet
Validated: 1
Substitution2: "'ss01' Style Set 1 lookup 27 subtable" d.ss01
Substitution2: "'salt' Stylistic Alternatives lookup 26 subtable" d.ss01
Substitution2: "'aalt' Access All Alternates lookup 0 subtable" d.ss01
EndChar

StartChar: e
Encoding: 73 101 73
Width: 635
GlyphClass: 2
Flags: W
LayerCount: 2
Fore
SplineSet
121 475 m 0,0,1
 203 557 203 557 318 557 c 0,2,3
 437 557 437 557 517 475 c 128,-1,4
 597 393 597 393 597 276 c 0,5,6
 597 272 597 272 594 230 c 1,7,-1
 144 230 l 1,8,9
 155 167 155 167 207.5 125.5 c 128,-1,10
 260 84 260 84 331 84 c 0,11,12
 430 84 430 84 488 155 c 1,13,-1
 567 106 l 1,14,15
 528 54 528 54 464 23 c 128,-1,16
 400 -8 400 -8 331 -8 c 0,17,18
 207 -8 207 -8 123 75 c 128,-1,19
 39 158 39 158 39 276 c 0,20,21
 39 392 39 392 121 475 c 0,0,1
143 310 m 1,22,-1
 496 310 l 1,23,24
 492 375 492 375 442.5 420.5 c 128,-1,25
 393 466 393 466 319 466 c 0,26,27
 247 466 247 466 197.5 420.5 c 128,-1,28
 148 375 148 375 143 310 c 1,22,-1
EndSplineSet
Validated: 1
EndChar

StartChar: f
Encoding: 74 102 74
Width: 365
GlyphClass: 2
Flags: W
LayerCount: 2
Fore
SplineSet
23 550 m 1,0,-1
 93 550 l 1,1,-1
 93 571 l 2,2,3
 93 688 93 688 146 741.5 c 128,-1,4
 199 795 199 795 285 795 c 0,5,6
 325 795 325 795 359 783 c 1,7,-1
 333 696 l 1,8,9
 303 701 303 701 293 701 c 0,10,11
 243 701 243 701 216.5 671.5 c 128,-1,12
 190 642 190 642 190 571 c 2,13,-1
 190 550 l 1,14,-1
 332 550 l 1,15,-1
 332 462 l 1,16,-1
 190 462 l 1,17,-1
 190 -1 l 1,18,-1
 93 1 l 1,19,-1
 93 462 l 1,20,-1
 23 462 l 1,21,-1
 23 550 l 1,0,-1
EndSplineSet
Validated: 1
EndChar

StartChar: g
Encoding: 75 103 75
Width: 678
GlyphClass: 2
Flags: W
LayerCount: 2
Fore
SplineSet
39 275 m 0,0,1
 39 392 39 392 117.5 475 c 128,-1,2
 196 558 196 558 307 558 c 0,3,4
 373 558 373 558 429.5 523 c 128,-1,5
 486 488 486 488 512 434 c 1,6,-1
 517 550 l 1,7,-1
 607 550 l 1,8,-1
 607 86 l 2,9,10
 607 -68 607 -68 524 -149 c 128,-1,11
 441 -230 441 -230 306 -230 c 0,12,13
 236 -230 236 -230 173 -200.5 c 128,-1,14
 110 -171 110 -171 71 -120 c 1,15,-1
 145 -63 l 1,16,17
 174 -97 174 -97 218 -116.5 c 128,-1,18
 262 -136 262 -136 311 -136 c 0,19,20
 397 -136 397 -136 453 -84.5 c 128,-1,21
 509 -33 509 -33 509 70 c 2,22,-1
 509 112 l 1,23,24
 484 61 484 61 428 27 c 128,-1,25
 372 -7 372 -7 307 -7 c 0,26,27
 196 -7 196 -7 117.5 76 c 128,-1,28
 39 159 39 159 39 275 c 0,0,1
138 275 m 256,29,30
 138 198 138 198 192 144 c 256,31,32
 246 90 246 90 323 90 c 128,-1,33
 400 90 400 90 454.5 144 c 128,-1,34
 509 198 509 198 509 275 c 128,-1,35
 509 352 509 352 454.5 407 c 128,-1,36
 400 462 400 462 323 462 c 0,37,38
 247 462 247 462 192.5 407 c 128,-1,39
 138 352 138 352 138 275 c 256,29,30
EndSplineSet
Validated: 1
Substitution2: "'ss01' Style Set 1 lookup 27 subtable" g.ss01
Substitution2: "'salt' Stylistic Alternatives lookup 26 subtable" g.ss01
Substitution2: "'aalt' Access All Alternates lookup 0 subtable" g.ss01
EndChar

StartChar: h
Encoding: 76 104 76
Width: 624
GlyphClass: 2
Flags: W
LayerCount: 2
Fore
SplineSet
72 780 m 1,0,-1
 169 780 l 1,1,-1
 169 455 l 1,2,3
 193 501 193 501 237.5 529.5 c 128,-1,4
 282 558 282 558 340 558 c 0,5,6
 441 558 441 558 503 487.5 c 128,-1,7
 565 417 565 417 565 280 c 2,8,-1
 565 0 l 1,9,-1
 467 0 l 1,10,-1
 467 280 l 2,11,12
 467 369 467 369 425 415.5 c 128,-1,13
 383 462 383 462 318 462 c 0,14,15
 254 462 254 462 211.5 416 c 128,-1,16
 169 370 169 370 169 280 c 2,17,-1
 169 0 l 1,18,-1
 72 0 l 1,19,-1
 72 780 l 1,0,-1
EndSplineSet
Validated: 1
EndChar

StartChar: i
Encoding: 77 105 77
Width: 240
GlyphClass: 2
Flags: W
LayerCount: 2
Fore
SplineSet
72 0 m 1,0,-1
 72 550 l 1,1,-1
 169 550 l 1,2,-1
 169 0 l 1,3,-1
 72 0 l 1,0,-1
59 668 m 256,4,5
 59 694 59 694 77.5 712 c 128,-1,6
 96 730 96 730 121 730 c 128,-1,7
 146 730 146 730 164 711.5 c 128,-1,8
 182 693 182 693 182 668 c 128,-1,9
 182 643 182 643 164 625 c 0,10,11
 146 606 146 606 121 606 c 128,-1,12
 96 606 96 606 77.5 624 c 128,-1,13
 59 642 59 642 59 668 c 256,4,5
EndSplineSet
Validated: 1
Substitution2: "'locl' Localized Forms in Latin lookup 8 subtable" i.loclTRK
Substitution2: "Single Substitution lookup 2 subtable" dotlessi
Substitution2: "'aalt' Access All Alternates lookup 0 subtable" i.loclTRK
EndChar

StartChar: j
Encoding: 78 106 78
Width: 268
GlyphClass: 2
Flags: W
LayerCount: 2
Fore
SplineSet
-48 -127 m 1,0,1
 -27 -135 -27 -135 -7 -135 c 0,2,3
 99 -135 99 -135 99 8 c 2,4,-1
 99 550 l 1,5,-1
 196 550 l 1,6,-1
 196 8 l 2,7,8
 196 -116 196 -116 144 -173.5 c 128,-1,9
 92 -231 92 -231 6 -231 c 0,10,11
 -38 -231 -38 -231 -74 -217 c 1,12,-1
 -48 -127 l 1,0,1
105 712 m 256,13,14
 123 730 123 730 148 730 c 128,-1,15
 173 730 173 730 191 711.5 c 128,-1,16
 209 693 209 693 209 668 c 128,-1,17
 209 643 209 643 191 625 c 0,18,19
 173 606 173 606 148 606 c 128,-1,20
 123 606 123 606 105 624 c 128,-1,21
 87 642 87 642 87 668 c 128,-1,22
 87 694 87 694 105 712 c 256,13,14
EndSplineSet
Validated: 1
Substitution2: "Single Substitution lookup 2 subtable" uni0237
EndChar

StartChar: k
Encoding: 79 107 79
Width: 577
GlyphClass: 2
Flags: W
LayerCount: 2
Fore
SplineSet
72 0 m 1,0,-1
 72 780 l 1,1,-1
 165 780 l 1,2,-1
 165 304 l 1,3,-1
 411 550 l 1,4,-1
 527 550 l 1,5,-1
 317 331 l 1,6,-1
 555 0 l 1,7,-1
 440 0 l 1,8,-1
 254 258 l 1,9,-1
 165 172 l 1,10,-1
 165 0 l 1,11,-1
 72 0 l 1,0,-1
EndSplineSet
Validated: 1
Substitution2: "'ss02' Style Set 2 lookup 28 subtable" k.ss02
Substitution2: "'aalt' Access All Alternates lookup 0 subtable" k.ss02
EndChar

StartChar: l
Encoding: 80 108 80
Width: 240
GlyphClass: 2
Flags: W
LayerCount: 2
Fore
SplineSet
169 0 m 1,0,-1
 72 0 l 1,1,-1
 72 780 l 1,2,-1
 169 780 l 1,3,-1
 169 0 l 1,0,-1
EndSplineSet
Validated: 1
Substitution2: "'ss01' Style Set 1 lookup 27 subtable" l.ss01
Substitution2: "'salt' Stylistic Alternatives lookup 26 subtable" l.ss01
Substitution2: "'aalt' Access All Alternates lookup 0 subtable" l.ss01
EndChar

StartChar: m
Encoding: 81 109 81
Width: 909
GlyphClass: 2
Flags: W
LayerCount: 2
Fore
SplineSet
72 0 m 1,0,-1
 72 550 l 1,1,-1
 162 550 l 1,2,-1
 167 459 l 1,3,4
 187 506 187 506 228.5 532 c 128,-1,5
 270 558 270 558 317 558 c 0,6,7
 380 558 380 558 423.5 525.5 c 128,-1,8
 467 493 467 493 485 441 c 1,9,10
 503 492 503 492 545 525 c 128,-1,11
 587 558 587 558 645 558 c 0,12,13
 738 558 738 558 793.5 493.5 c 128,-1,14
 849 429 849 429 849 292 c 2,15,-1
 849 0 l 1,16,-1
 751 0 l 1,17,-1
 751 292 l 2,18,19
 751 381 751 381 717.5 421.5 c 128,-1,20
 684 462 684 462 630 462 c 0,21,22
 579 462 579 462 544 421 c 128,-1,23
 509 380 509 380 509 292 c 2,24,-1
 509 0 l 1,25,-1
 411 0 l 1,26,-1
 411 292 l 2,27,28
 411 381 411 381 377.5 421.5 c 128,-1,29
 344 462 344 462 290 462 c 0,30,31
 238 462 238 462 203.5 416 c 128,-1,32
 169 370 169 370 169 280 c 2,33,-1
 169 0 l 1,34,-1
 72 0 l 1,0,-1
EndSplineSet
Validated: 1
Substitution2: "'ss01' Style Set 1 lookup 27 subtable" m.ss01
Substitution2: "'salt' Stylistic Alternatives lookup 26 subtable" m.ss01
Substitution2: "'aalt' Access All Alternates lookup 0 subtable" m.ss01
EndChar

StartChar: n
Encoding: 82 110 82
Width: 624
GlyphClass: 2
Flags: W
LayerCount: 2
Fore
SplineSet
72 0 m 1,0,-1
 72 550 l 1,1,-1
 162 550 l 1,2,-1
 167 453 l 1,3,4
 191 500 191 500 235.5 529 c 128,-1,5
 280 558 280 558 340 558 c 0,6,7
 441 558 441 558 503 487.5 c 128,-1,8
 565 417 565 417 565 280 c 2,9,-1
 565 0 l 1,10,-1
 467 0 l 1,11,-1
 467 280 l 2,12,13
 467 369 467 369 425 415.5 c 128,-1,14
 383 462 383 462 318 462 c 0,15,16
 254 462 254 462 211.5 416 c 128,-1,17
 169 370 169 370 169 280 c 2,18,-1
 169 0 l 1,19,-1
 72 0 l 1,0,-1
EndSplineSet
Validated: 1
Substitution2: "'ss01' Style Set 1 lookup 27 subtable" n.ss01
Substitution2: "'salt' Stylistic Alternatives lookup 26 subtable" n.ss01
Substitution2: "'aalt' Access All Alternates lookup 0 subtable" n.ss01
EndChar

StartChar: o
Encoding: 83 111 83
Width: 642
GlyphClass: 2
Flags: W
LayerCount: 2
Fore
SplineSet
122 475 m 0,0,1
 204 557 204 557 321 557 c 0,2,3
 437 557 437 557 520 474.5 c 128,-1,4
 603 392 603 392 603 276 c 0,5,6
 603 159 603 159 520 75.5 c 128,-1,7
 437 -8 437 -8 321 -8 c 0,8,9
 204 -8 204 -8 121.5 75.5 c 128,-1,10
 39 159 39 159 39 276 c 0,11,12
 39 392 39 392 122 475 c 0,0,1
138 276 m 0,13,14
 138 199 138 199 192 146 c 0,15,16
 245 92 245 92 321 92 c 128,-1,17
 397 92 397 92 450.5 146 c 128,-1,18
 504 200 504 200 504 276 c 0,19,20
 504 351 504 351 450.5 404.5 c 128,-1,21
 397 458 397 458 321 458 c 128,-1,22
 245 458 245 458 191.5 404.5 c 128,-1,23
 138 351 138 351 138 276 c 0,13,14
EndSplineSet
Validated: 1
Substitution2: "Single Substitution lookup 4 subtable" ordmasculine
Substitution2: "'aalt' Access All Alternates lookup 0 subtable" ordmasculine
EndChar

StartChar: p
Encoding: 84 112 84
Width: 678
GlyphClass: 2
Flags: W
LayerCount: 2
Fore
SplineSet
72 -220 m 1,0,-1
 72 550 l 1,1,-1
 162 550 l 1,2,-1
 167 436 l 1,3,4
 192 488 192 488 248.5 522.5 c 128,-1,5
 305 557 305 557 371 557 c 0,6,7
 482 557 482 557 560.5 474.5 c 128,-1,8
 639 392 639 392 639 276 c 0,9,10
 639 159 639 159 560.5 75.5 c 128,-1,11
 482 -8 482 -8 371 -8 c 0,12,13
 306 -8 306 -8 250 26.5 c 128,-1,14
 194 61 194 61 169 113 c 1,15,-1
 169 -220 l 1,16,-1
 72 -220 l 1,0,-1
224 144 m 0,17,18
 278 89 278 89 356 89 c 0,19,20
 432 89 432 89 486.5 144 c 128,-1,21
 541 199 541 199 541 276 c 0,22,23
 541 352 541 352 486.5 406.5 c 128,-1,24
 432 461 432 461 356 461 c 0,25,26
 278 461 278 461 223.5 407 c 128,-1,27
 169 353 169 353 169 276 c 128,-1,28
 169 199 169 199 224 144 c 0,17,18
EndSplineSet
Validated: 1
Substitution2: "'ss01' Style Set 1 lookup 27 subtable" p.ss01
Substitution2: "'salt' Stylistic Alternatives lookup 26 subtable" p.ss01
Substitution2: "'aalt' Access All Alternates lookup 0 subtable" p.ss01
EndChar

StartChar: q
Encoding: 85 113 85
Width: 682
GlyphClass: 2
Flags: W
LayerCount: 2
Fore
SplineSet
122 475 m 0,0,1
 200 557 200 557 311 557 c 0,2,3
 377 557 377 557 433.5 522.5 c 128,-1,4
 490 488 490 488 515 436 c 1,5,-1
 521 550 l 1,6,-1
 611 550 l 1,7,-1
 611 -220 l 1,8,-1
 513 -220 l 1,9,-1
 513 113 l 1,10,11
 488 61 488 61 432 26.5 c 128,-1,12
 376 -8 376 -8 311 -8 c 0,13,14
 200 -8 200 -8 121.5 75.5 c 128,-1,15
 43 159 43 159 43 276 c 0,16,17
 43 392 43 392 122 475 c 0,0,1
141 276 m 0,18,19
 141 199 141 199 196 144 c 0,20,21
 250 89 250 89 327 89 c 128,-1,22
 404 89 404 89 458.5 144 c 128,-1,23
 513 199 513 199 513 276 c 128,-1,24
 513 353 513 353 458.5 407 c 128,-1,25
 404 461 404 461 327 461 c 128,-1,26
 250 461 250 461 195.5 406.5 c 128,-1,27
 141 352 141 352 141 276 c 0,18,19
EndSplineSet
Validated: 1
EndChar

StartChar: r
Encoding: 86 114 86
Width: 408
GlyphClass: 2
Flags: W
LayerCount: 2
Fore
SplineSet
72 550 m 1,0,-1
 162 550 l 1,1,-1
 168 460 l 1,2,3
 192 505 192 505 236.5 529 c 128,-1,4
 281 553 281 553 338 553 c 0,5,6
 341 553 341 553 343 553 c 0,7,8
 364 553 364 553 384 550 c 1,9,-1
 364 456 l 1,10,11
 352 458 352 458 345 458 c 0,12,13
 268 458 268 458 218.5 409 c 128,-1,14
 169 360 169 360 169 254 c 2,15,-1
 169 0 l 1,16,-1
 72 0 l 1,17,-1
 72 550 l 1,0,-1
EndSplineSet
Validated: 1
Substitution2: "'ss01' Style Set 1 lookup 27 subtable" r.ss01
Substitution2: "'salt' Stylistic Alternatives lookup 26 subtable" r.ss01
Substitution2: "'aalt' Access All Alternates lookup 0 subtable" r.ss01
EndChar

StartChar: s
Encoding: 87 115 87
Width: 553
GlyphClass: 2
Flags: W
LayerCount: 2
Fore
SplineSet
111 150 m 1,0,1
 139 119 139 119 188 100.5 c 128,-1,2
 237 82 237 82 289 82 c 0,3,4
 344 82 344 82 377.5 102.5 c 128,-1,5
 411 123 411 123 411 158 c 0,6,7
 411 189 411 189 375 207 c 128,-1,8
 339 225 339 225 288 236 c 128,-1,9
 237 247 237 247 186 262.5 c 128,-1,10
 135 278 135 278 99 313.5 c 128,-1,11
 63 349 63 349 63 406 c 0,12,13
 63 474 63 474 120 516.5 c 128,-1,14
 177 559 177 559 271 559 c 0,15,16
 416 559 416 559 492 468 c 1,17,-1
 432 408 l 1,18,19
 406 440 406 440 361.5 455.5 c 128,-1,20
 317 471 317 471 274 471 c 0,21,22
 223 471 223 471 192 453.5 c 128,-1,23
 161 436 161 436 161 405 c 0,24,25
 161 378 161 378 197 361.5 c 128,-1,26
 233 345 233 345 284 334.5 c 128,-1,27
 335 324 335 324 386 308 c 128,-1,28
 437 292 437 292 473 255 c 128,-1,29
 509 218 509 218 509 161 c 0,30,31
 509 77 509 77 445.5 33.5 c 128,-1,32
 382 -10 382 -10 289 -10 c 0,33,34
 223 -10 223 -10 156 13.5 c 128,-1,35
 89 37 89 37 44 86 c 1,36,-1
 111 150 l 1,0,1
EndSplineSet
Validated: 1
EndChar

StartChar: t
Encoding: 88 116 88
Width: 394
GlyphClass: 2
Flags: W
LayerCount: 2
Fore
SplineSet
23 550 m 1,0,-1
 100 550 l 1,1,-1
 112 730 l 1,2,-1
 194 730 l 1,3,-1
 194 550 l 1,4,-1
 326 550 l 1,5,-1
 326 462 l 1,6,-1
 194 462 l 1,7,-1
 194 206 l 2,8,9
 194 148 194 148 221 117 c 128,-1,10
 248 86 248 86 295 86 c 0,11,12
 319 86 319 86 337 93 c 1,13,-1
 362 6 l 1,14,15
 328 -9 328 -9 282 -9 c 0,16,17
 200 -9 200 -9 148.5 43.5 c 128,-1,18
 97 96 97 96 97 205 c 2,19,-1
 97 462 l 1,20,-1
 23 462 l 1,21,-1
 23 550 l 1,0,-1
EndSplineSet
Validated: 1
Substitution2: "'ss02' Style Set 2 lookup 28 subtable" t.ss02
Substitution2: "'aalt' Access All Alternates lookup 0 subtable" t.ss02
EndChar

StartChar: u
Encoding: 89 117 89
Width: 624
GlyphClass: 2
Flags: W
LayerCount: 2
Fore
SplineSet
60 550 m 1,0,-1
 158 550 l 1,1,-1
 158 271 l 2,2,3
 158 181 158 181 200 135 c 128,-1,4
 242 89 242 89 307 89 c 0,5,6
 371 89 371 89 413.5 135 c 128,-1,7
 456 181 456 181 456 271 c 2,8,-1
 456 550 l 1,9,-1
 553 550 l 1,10,-1
 553 0 l 1,11,-1
 463 0 l 1,12,-1
 458 98 l 1,13,14
 434 51 434 51 389 21.5 c 128,-1,15
 344 -8 344 -8 285 -8 c 0,16,17
 184 -8 184 -8 122 63 c 128,-1,18
 60 134 60 134 60 271 c 2,19,-1
 60 550 l 1,0,-1
EndSplineSet
Validated: 1
Substitution2: "'ss01' Style Set 1 lookup 27 subtable" u.ss01
Substitution2: "'salt' Stylistic Alternatives lookup 26 subtable" u.ss01
Substitution2: "'aalt' Access All Alternates lookup 0 subtable" u.ss01
EndChar

StartChar: v
Encoding: 90 118 90
Width: 554
GlyphClass: 2
Flags: W
LayerCount: 2
Fore
SplineSet
118 550 m 1,0,-1
 278 146 l 1,1,-1
 437 550 l 1,2,-1
 542 550 l 1,3,-1
 326 0 l 1,4,-1
 229 0 l 1,5,-1
 13 550 l 1,6,-1
 118 550 l 1,0,-1
EndSplineSet
Validated: 1
Substitution2: "'ss02' Style Set 2 lookup 28 subtable" v.ss02
Substitution2: "'aalt' Access All Alternates lookup 0 subtable" v.ss02
EndChar

StartChar: w
Encoding: 91 119 91
Width: 883
GlyphClass: 2
Flags: W
LayerCount: 2
Fore
SplineSet
18 550 m 1,0,-1
 122 550 l 1,1,-1
 259 150 l 1,2,-1
 392 550 l 1,3,-1
 491 550 l 1,4,-1
 625 150 l 1,5,-1
 762 550 l 1,6,-1
 866 550 l 1,7,-1
 673 0 l 1,8,-1
 577 0 l 1,9,-1
 442 395 l 1,10,-1
 307 0 l 1,11,-1
 210 0 l 1,12,-1
 18 550 l 1,0,-1
EndSplineSet
Validated: 1
Substitution2: "'ss02' Style Set 2 lookup 28 subtable" w.ss02
Substitution2: "'ss01' Style Set 1 lookup 27 subtable" w.ss01
Substitution2: "'salt' Stylistic Alternatives lookup 26 subtable" w.ss01
AlternateSubs2: "'aalt' Access All Alternates lookup 1 subtable" w.ss01 w.ss02
EndChar

StartChar: x
Encoding: 92 120 92
Width: 595
GlyphClass: 2
Flags: W
LayerCount: 2
Fore
SplineSet
23 550 m 1,0,-1
 140 550 l 1,1,-1
 298 350 l 1,2,-1
 456 550 l 1,3,-1
 573 550 l 1,4,-1
 365 275 l 1,5,-1
 573 0 l 1,6,-1
 456 0 l 1,7,-1
 298 201 l 1,8,-1
 140 0 l 1,9,-1
 23 0 l 1,10,-1
 231 275 l 1,11,-1
 23 550 l 1,0,-1
EndSplineSet
Validated: 1
EndChar

StartChar: y
Encoding: 93 121 93
Width: 564
GlyphClass: 2
Flags: W
LayerCount: 2
Fore
SplineSet
13 -206 m 1,0,-1
 42 -119 l 1,1,2
 76 -133 76 -133 110 -133 c 0,3,4
 190 -133 190 -133 244 11 c 1,5,-1
 24 550 l 1,6,-1
 129 550 l 1,7,-1
 289 143 l 1,8,-1
 448 550 l 1,9,-1
 552 550 l 1,10,-1
 342 0 l 2,11,12
 296 -120 296 -120 244 -173 c 128,-1,13
 192 -226 192 -226 114 -226 c 0,14,15
 61 -226 61 -226 13 -206 c 1,0,-1
EndSplineSet
Validated: 1
Substitution2: "'ss01' Style Set 1 lookup 27 subtable" y.ss01
Substitution2: "'salt' Stylistic Alternatives lookup 26 subtable" y.ss01
Substitution2: "'aalt' Access All Alternates lookup 0 subtable" y.ss01
EndChar

StartChar: z
Encoding: 94 122 94
Width: 572
GlyphClass: 2
Flags: W
LayerCount: 2
Fore
SplineSet
51 462 m 1,0,-1
 51 550 l 1,1,-1
 507 550 l 1,2,-1
 507 473 l 1,3,-1
 191 92 l 1,4,-1
 521 92 l 1,5,-1
 521 0 l 1,6,-1
 51 0 l 1,7,-1
 51 73 l 1,8,-1
 374 462 l 1,9,-1
 51 462 l 1,0,-1
EndSplineSet
Validated: 1
Substitution2: "'ss02' Style Set 2 lookup 28 subtable" z.ss02
Substitution2: "'aalt' Access All Alternates lookup 0 subtable" z.ss02
EndChar

StartChar: braceleft
Encoding: 95 123 95
Width: 336
GlyphClass: 2
Flags: W
LayerCount: 2
Fore
SplineSet
118 398 m 0,0,1
 145 419 145 419 145 468 c 2,2,-1
 145 614 l 2,3,4
 145 688 145 688 188 734 c 128,-1,5
 231 780 231 780 316 780 c 1,6,-1
 316 700 l 1,7,8
 271 700 271 700 252 680.5 c 128,-1,9
 233 661 233 661 233 615 c 2,10,-1
 233 468 l 2,11,12
 233 380 233 380 171 336 c 1,13,14
 233 290 233 290 233 204 c 2,15,-1
 233 56 l 2,16,17
 233 9 233 9 252 -10.5 c 128,-1,18
 271 -30 271 -30 316 -30 c 1,19,-1
 316 -110 l 1,20,21
 231 -110 231 -110 188 -64 c 128,-1,22
 145 -18 145 -18 145 56 c 2,23,-1
 145 203 l 2,24,25
 145 252 145 252 117.5 273.5 c 128,-1,26
 90 295 90 295 53 295 c 1,27,-1
 53 376 l 1,28,29
 90 376 90 376 118 398 c 0,0,1
EndSplineSet
Validated: 1
EndChar

StartChar: bar
Encoding: 96 124 96
Width: 238
GlyphClass: 2
Flags: W
LayerCount: 2
Fore
SplineSet
160 -220 m 1,0,-1
 79 -220 l 1,1,-1
 79 730 l 1,2,-1
 160 730 l 1,3,-1
 160 -220 l 1,0,-1
EndSplineSet
Validated: 1
EndChar

StartChar: braceright
Encoding: 97 125 97
Width: 336
GlyphClass: 2
Flags: W
LayerCount: 2
Fore
SplineSet
28 -30 m 1,0,1
 73 -30 73 -30 92 -10.5 c 128,-1,2
 111 9 111 9 111 56 c 2,3,-1
 111 204 l 2,4,5
 111 290 111 290 173 336 c 1,6,7
 111 380 111 380 111 468 c 2,8,-1
 111 615 l 2,9,10
 111 661 111 661 92 680.5 c 128,-1,11
 73 700 73 700 28 700 c 1,12,-1
 28 780 l 1,13,14
 113 780 113 780 156 734 c 128,-1,15
 199 688 199 688 199 614 c 2,16,-1
 199 468 l 2,17,18
 199 419 199 419 226 397.5 c 128,-1,19
 253 376 253 376 291 376 c 1,20,-1
 291 295 l 1,21,22
 253 295 253 295 226 273.5 c 128,-1,23
 199 252 199 252 199 203 c 2,24,-1
 199 56 l 2,25,26
 199 -18 199 -18 156 -64 c 128,-1,27
 113 -110 113 -110 28 -110 c 1,28,-1
 28 -30 l 1,0,1
EndSplineSet
Validated: 1
EndChar

StartChar: asciitilde
Encoding: 98 126 98
Width: 523
GlyphClass: 2
Flags: W
LayerCount: 2
Fore
SplineSet
72 443 m 4,0,1
 106 471 106 471 150 473 c 4,2,3
 154 473 154 473 159 473 c 4,4,5
 186 473 186 473 216.5 461.5 c 132,-1,6
 247 450 247 450 269 434 c 132,-1,7
 291 418 291 418 315.5 408.5 c 132,-1,8
 340 399 340 399 359 399 c 4,9,10
 366 399 366 399 373 400 c 4,11,12
 418 406 418 406 435 464 c 5,13,-1
 503 435 l 5,14,15
 471 332 471 332 384 320 c 4,16,17
 375 319 375 319 366 319 c 4,18,19
 341 319 341 319 312.5 328.5 c 132,-1,20
 284 338 284 338 262 354 c 132,-1,21
 240 370 240 370 214 382 c 132,-1,22
 188 394 188 394 165 394 c 4,23,24
 161 394 161 394 158 394 c 4,25,26
 106 391 106 391 89 329 c 5,27,-1
 20 358 l 5,28,29
 37 414 37 414 72 443 c 4,0,1
EndSplineSet
Validated: 1
EndChar

StartChar: exclamdown
Encoding: 99 161 99
Width: 250
GlyphClass: 2
Flags: W
LayerCount: 2
Fore
SplineSet
76 -221 m 1,0,-1
 85 388 l 1,1,-1
 166 388 l 1,2,-1
 175 -221 l 1,3,-1
 76 -221 l 1,0,-1
83 544 m 0,4,5
 101 561 101 561 126 561 c 0,6,7
 150 561 150 561 167.5 543.5 c 128,-1,8
 185 526 185 526 185 501 c 128,-1,9
 185 476 185 476 167.5 458 c 128,-1,10
 150 440 150 440 126 440 c 0,11,12
 100 440 100 440 82.5 458 c 128,-1,13
 65 476 65 476 65 501 c 128,-1,14
 65 526 65 526 83 544 c 0,4,5
EndSplineSet
Validated: 1
EndChar

StartChar: cent
Encoding: 100 162 100
Width: 597
GlyphClass: 2
Flags: W
LayerCount: 2
Fore
SplineSet
112 558 m 256,0,1
 185 639 185 639 293 650 c 1,2,-1
 293 730 l 1,3,-1
 355 730 l 1,4,-1
 355 650 l 1,5,6
 417 643 417 643 470.5 611 c 128,-1,7
 524 579 524 579 559 529 c 1,8,-1
 492 485 l 1,9,10
 440 553 440 553 355 562 c 1,11,-1
 355 173 l 1,12,13
 440 181 440 181 492 254 c 1,14,-1
 560 208 l 1,15,16
 485 98 485 98 355 84 c 1,17,-1
 355 0 l 1,18,-1
 293 0 l 1,19,-1
 293 84 l 1,20,21
 185 95 185 95 112 176 c 128,-1,22
 39 257 39 257 39 367 c 128,-1,23
 39 477 39 477 112 558 c 256,0,1
126 367 m 256,24,25
 126 294 126 294 174 239 c 128,-1,26
 222 184 222 184 293 174 c 1,27,-1
 293 560 l 1,28,29
 222 549 222 549 174 494.5 c 128,-1,30
 126 440 126 440 126 367 c 256,24,25
EndSplineSet
Validated: 1
EndChar

StartChar: sterling
Encoding: 101 163 101
Width: 633
GlyphClass: 2
Flags: W
LayerCount: 2
Fore
SplineSet
49 0 m 1,0,-1
 49 92 l 1,1,-1
 135 92 l 1,2,-1
 135 304 l 1,3,-1
 68 304 l 1,4,-1
 68 377 l 1,5,-1
 135 377 l 1,6,-1
 135 451 l 2,7,8
 135 591 135 591 200 665.5 c 128,-1,9
 265 740 265 740 366 740 c 0,10,11
 427 740 427 740 479.5 708.5 c 128,-1,12
 532 677 532 677 564 624 c 1,13,-1
 484 573 l 1,14,15
 466 605 466 605 435 624 c 128,-1,16
 404 643 404 643 368 643 c 0,17,18
 308 643 308 643 270 595.5 c 128,-1,19
 232 548 232 548 232 451 c 2,20,-1
 232 377 l 1,21,-1
 439 377 l 1,22,-1
 439 304 l 1,23,-1
 232 304 l 1,24,-1
 232 92 l 1,25,-1
 584 92 l 1,26,-1
 584 0 l 1,27,-1
 49 0 l 1,0,-1
EndSplineSet
Validated: 1
EndChar

StartChar: currency
Encoding: 102 164 102
Width: 589
GlyphClass: 2
Flags: W
LayerCount: 2
Fore
SplineSet
106 591 m 1,0,-1
 177 521 l 1,1,2
 230 558 230 558 294 558 c 0,3,4
 360 558 360 558 412 520 c 1,5,-1
 483 591 l 1,6,-1
 537 538 l 1,7,-1
 466 467 l 1,8,9
 505 412 505 412 505 349 c 0,10,11
 505 282 505 282 466 231 c 1,12,-1
 537 161 l 1,13,-1
 484 107 l 1,14,-1
 413 178 l 1,15,16
 359 139 359 139 295 139 c 128,-1,17
 231 139 231 139 177 178 c 1,18,-1
 107 107 l 1,19,-1
 53 161 l 1,20,-1
 123 232 l 1,21,22
 85 287 85 287 85 350 c 128,-1,23
 85 413 85 413 124 467 c 1,24,-1
 53 538 l 1,25,-1
 106 591 l 1,0,-1
198 252 m 256,26,27
 237 212 237 212 294 212 c 128,-1,28
 351 212 351 212 391 251.5 c 128,-1,29
 431 291 431 291 431 346 c 0,30,31
 431 348 431 348 431 349 c 0,32,33
 431 405 431 405 391 445 c 128,-1,34
 351 485 351 485 294 485 c 128,-1,35
 237 485 237 485 198 445.5 c 128,-1,36
 159 406 159 406 159 349 c 128,-1,37
 159 292 159 292 198 252 c 256,26,27
EndSplineSet
Validated: 1
EndChar

StartChar: yen
Encoding: 103 165 103
Width: 656
GlyphClass: 2
Flags: W
LayerCount: 2
Fore
SplineSet
122 730 m 1,0,-1
 328 417 l 1,1,-1
 535 730 l 1,2,-1
 644 730 l 1,3,-1
 414 390 l 1,4,-1
 582 390 l 1,5,-1
 583 317 l 1,6,-1
 374 317 l 1,7,-1
 374 231 l 1,8,-1
 582 231 l 1,9,-1
 583 158 l 1,10,-1
 374 158 l 1,11,-1
 374 0 l 1,12,-1
 283 0 l 1,13,-1
 283 158 l 1,14,-1
 78 158 l 1,15,-1
 78 231 l 1,16,-1
 283 231 l 1,17,-1
 283 317 l 1,18,-1
 78 317 l 1,19,-1
 78 390 l 1,20,-1
 243 390 l 1,21,-1
 13 730 l 1,22,-1
 122 730 l 1,0,-1
EndSplineSet
Validated: 1
EndChar

StartChar: brokenbar
Encoding: 104 166 104
Width: 222
GlyphClass: 2
Flags: W
LayerCount: 2
Fore
SplineSet
152 780 m 1,0,-1
 152 398 l 1,1,-1
 71 398 l 1,2,-1
 71 780 l 1,3,-1
 152 780 l 1,0,-1
71 -220 m 1,4,-1
 71 162 l 1,5,-1
 152 162 l 1,6,-1
 152 -220 l 1,7,-1
 71 -220 l 1,4,-1
EndSplineSet
Validated: 1
EndChar

StartChar: section
Encoding: 105 167 105
Width: 475
GlyphClass: 2
Flags: W
LayerCount: 2
Fore
SplineSet
122 491 m 1,0,1
 53 533 53 533 53 604 c 0,2,3
 53 668 53 668 100 707 c 128,-1,4
 147 746 147 746 220 746 c 0,5,6
 275 746 275 746 328.5 721.5 c 128,-1,7
 382 697 382 697 415 651 c 1,8,-1
 355 608 l 1,9,10
 335 633 335 633 301 651 c 128,-1,11
 267 669 267 669 228 669 c 0,12,13
 184 669 184 669 159.5 650 c 128,-1,14
 135 631 135 631 135 601 c 128,-1,15
 135 571 135 571 165.5 550.5 c 128,-1,16
 196 530 196 530 239 516.5 c 128,-1,17
 282 503 282 503 325 487 c 128,-1,18
 368 471 368 471 398.5 438 c 128,-1,19
 429 405 429 405 429 356 c 0,20,21
 429 281 429 281 352 251 c 1,22,23
 422 211 422 211 422 140 c 0,24,25
 422 68 422 68 371 29 c 128,-1,26
 320 -10 320 -10 245 -10 c 0,27,28
 188 -10 188 -10 136.5 15 c 128,-1,29
 85 40 85 40 50 86 c 1,30,-1
 114 132 l 1,31,32
 134 106 134 106 169 88.5 c 128,-1,33
 204 71 204 71 243 71 c 0,34,35
 288 71 288 71 313.5 90.5 c 128,-1,36
 339 110 339 110 339 140 c 0,37,38
 339 172 339 172 309 193 c 128,-1,39
 279 214 279 214 236 227 c 128,-1,40
 193 240 193 240 150 256 c 128,-1,41
 107 272 107 272 77 304.5 c 128,-1,42
 47 337 47 337 47 386 c 0,43,44
 47 460 47 460 122 491 c 1,0,1
146 347 m 0,45,46
 163 330 163 330 183 321.5 c 128,-1,47
 203 313 203 313 240 301 c 0,48,49
 254 298 254 298 268 298 c 0,50,51
 291 298 291 298 318 310.5 c 128,-1,52
 345 323 345 323 345 356 c 0,53,54
 345 379 345 379 327 395.5 c 128,-1,55
 309 412 309 412 289 420.5 c 128,-1,56
 269 429 269 429 231 440 c 0,57,58
 217 443 217 443 203 443 c 0,59,60
 181 443 181 443 154.5 431 c 128,-1,61
 128 419 128 419 128 386 c 0,62,63
 128 364 128 364 146 347 c 0,45,46
EndSplineSet
Validated: 1
EndChar

StartChar: dieresis
Encoding: 106 168 106
Width: 339
GlyphClass: 2
Flags: W
LayerCount: 2
Fore
SplineSet
36 682 m 0,0,1
 51 697 51 697 73 697 c 0,2,3
 94 697 94 697 109.5 682 c 128,-1,4
 125 667 125 667 125 645 c 128,-1,5
 125 623 125 623 109.5 607.5 c 128,-1,6
 94 592 94 592 73 592 c 0,7,8
 51 592 51 592 35.5 607.5 c 128,-1,9
 20 623 20 623 20 645 c 128,-1,10
 20 667 20 667 36 682 c 0,0,1
230 682 m 256,11,12
 245 697 245 697 267 697 c 0,13,14
 288 697 288 697 303.5 682 c 128,-1,15
 319 667 319 667 319 645 c 128,-1,16
 319 623 319 623 303.5 607.5 c 128,-1,17
 288 592 288 592 267 592 c 0,18,19
 245 592 245 592 230 607.5 c 128,-1,20
 215 623 215 623 215 645 c 128,-1,21
 215 667 215 667 230 682 c 256,11,12
EndSplineSet
Validated: 1
EndChar

StartChar: copyright
Encoding: 107 169 107
Width: 831
GlyphClass: 2
Flags: W
LayerCount: 2
Fore
SplineSet
150 631 m 0,0,1
 260 741 260 741 416 741 c 128,-1,2
 572 741 572 741 682 630.5 c 128,-1,3
 792 520 792 520 792 365 c 0,4,5
 792 208 792 208 682 97.5 c 128,-1,6
 572 -13 572 -13 416 -13 c 0,7,8
 259 -13 259 -13 149 97.5 c 128,-1,9
 39 208 39 208 39 365 c 0,10,11
 39 520 39 520 150 631 c 0,0,1
186 133 m 0,12,13
 282 36 282 36 416 36 c 128,-1,14
 550 36 550 36 646 133 c 128,-1,15
 742 230 742 230 742 365 c 0,16,17
 742 499 742 499 646 595.5 c 128,-1,18
 550 692 550 692 416 692 c 128,-1,19
 282 692 282 692 185.5 595.5 c 128,-1,20
 89 499 89 499 89 365 c 0,21,22
 89 230 89 230 186 133 c 0,12,13
271 510 m 0,23,24
 331 570 331 570 417 570 c 0,25,26
 467 570 467 570 510 548 c 128,-1,27
 553 526 553 526 581 487 c 1,28,-1
 531 448 l 1,29,30
 487 505 487 505 417 505 c 0,31,32
 359 505 359 505 318 464 c 128,-1,33
 277 423 277 423 277 365 c 128,-1,34
 277 307 277 307 318 265.5 c 128,-1,35
 359 224 359 224 417 224 c 0,36,37
 490 224 490 224 532 284 c 1,38,-1
 585 244 l 1,39,40
 556 205 556 205 511.5 182 c 128,-1,41
 467 159 467 159 417 159 c 0,42,43
 331 159 331 159 270.5 219.5 c 128,-1,44
 210 280 210 280 210 365 c 128,-1,45
 210 450 210 450 271 510 c 0,23,24
EndSplineSet
Validated: 1
EndChar

StartChar: ordfeminine
Encoding: 108 170 108
Width: 362
GlyphClass: 2
Flags: W
LayerCount: 2
Fore
SplineSet
69 566 m 0,0,1
 105 597 105 597 162 597 c 2,2,-1
 252 597 l 1,3,4
 252 635 252 635 230.5 656.5 c 128,-1,5
 209 678 209 678 171 678 c 0,6,7
 128 678 128 678 89 648 c 1,8,-1
 43 682 l 1,9,10
 97 739 97 739 179 739 c 0,11,12
 241 739 241 739 280 698 c 128,-1,13
 319 657 319 657 319 582 c 2,14,-1
 319 379 l 1,15,-1
 261 379 l 1,16,-1
 257 421 l 1,17,18
 224 373 224 373 156 373 c 0,19,20
 106 373 106 373 69.5 405 c 128,-1,21
 33 437 33 437 33 485 c 0,22,23
 33 534 33 534 69 566 c 0,0,1
119 446 m 0,24,25
 139 429 139 429 167 429 c 0,26,27
 204 429 204 429 228 447.5 c 128,-1,28
 252 466 252 466 252 493 c 2,29,-1
 252 546 l 1,30,-1
 172 546 l 2,31,32
 139 546 139 546 119 530.5 c 128,-1,33
 99 515 99 515 99 488 c 0,34,35
 99 462 99 462 119 446 c 0,24,25
EndSplineSet
Validated: 1
EndChar

StartChar: guillemotleft
Encoding: 109 171 109
Width: 421
GlyphClass: 2
Flags: W
LayerCount: 2
Fore
SplineSet
198 365 m 1,0,-1
 296 537 l 1,1,-1
 372 537 l 1,2,-1
 274 365 l 1,3,-1
 372 193 l 1,4,-1
 296 193 l 1,5,-1
 198 365 l 1,0,-1
49 365 m 1,6,-1
 148 537 l 1,7,-1
 223 537 l 1,8,-1
 125 365 l 1,9,-1
 223 193 l 1,10,-1
 148 193 l 1,11,-1
 49 365 l 1,6,-1
EndSplineSet
Validated: 1
EndChar

StartChar: logicalnot
Encoding: 110 172 110
Width: 533
GlyphClass: 2
Flags: W
LayerCount: 2
Fore
SplineSet
485 185 m 1,0,-1
 404 185 l 1,1,-1
 404 325 l 1,2,-1
 49 325 l 1,3,-1
 49 406 l 1,4,-1
 484 406 l 1,5,-1
 485 185 l 1,0,-1
EndSplineSet
Validated: 1
EndChar

StartChar: registered
Encoding: 111 174 111
Width: 831
GlyphClass: 2
Flags: W
LayerCount: 2
Fore
SplineSet
150 631 m 0,0,1
 260 741 260 741 416 741 c 128,-1,2
 572 741 572 741 682 630.5 c 128,-1,3
 792 520 792 520 792 365 c 0,4,5
 792 208 792 208 682 97.5 c 128,-1,6
 572 -13 572 -13 416 -13 c 0,7,8
 259 -13 259 -13 149 97.5 c 128,-1,9
 39 208 39 208 39 365 c 0,10,11
 39 520 39 520 150 631 c 0,0,1
89 365 m 0,12,13
 89 230 89 230 186 133 c 0,14,15
 282 36 282 36 416 36 c 128,-1,16
 550 36 550 36 646 133 c 128,-1,17
 742 230 742 230 742 365 c 0,18,19
 742 499 742 499 646 595.5 c 128,-1,20
 550 692 550 692 416 692 c 128,-1,21
 282 692 282 692 185.5 595.5 c 128,-1,22
 89 499 89 499 89 365 c 0,12,13
414 555 m 2,23,24
 477 555 477 555 516 519 c 128,-1,25
 555 483 555 483 555 427 c 0,26,27
 555 385 555 385 529.5 354 c 128,-1,28
 504 323 504 323 464 312 c 1,29,-1
 565 175 l 1,30,-1
 493 175 l 1,31,-1
 403 301 l 1,32,-1
 349 301 l 1,33,-1
 349 175 l 1,34,-1
 290 175 l 1,35,-1
 290 555 l 1,36,-1
 414 555 l 2,23,24
349 360 m 1,37,-1
 417 360 l 2,38,39
 456 360 456 360 475.5 379.5 c 128,-1,40
 495 399 495 399 495 426 c 0,41,42
 495 458 495 458 472.5 476.5 c 128,-1,43
 450 495 450 495 417 495 c 2,44,-1
 349 495 l 1,45,-1
 349 360 l 1,37,-1
EndSplineSet
Validated: 1
EndChar

StartChar: macron
Encoding: 112 175 112
Width: 470
GlyphClass: 2
Flags: W
LayerCount: 2
Fore
SplineSet
418 623 m 1,0,-1
 53 623 l 1,1,-1
 53 704 l 1,2,-1
 418 704 l 1,3,-1
 418 623 l 1,0,-1
EndSplineSet
Validated: 1
EndChar

StartChar: degree
Encoding: 113 176 113
Width: 285
GlyphClass: 2
Flags: W
LayerCount: 2
Fore
SplineSet
56 755 m 0,0,1
 91 791 91 791 143 791 c 0,2,3
 193 791 193 791 229 755 c 128,-1,4
 265 719 265 719 265 668 c 0,5,6
 265 618 265 618 229 582 c 128,-1,7
 193 546 193 546 143 546 c 0,8,9
 92 546 92 546 56 582 c 128,-1,10
 20 618 20 618 20 668 c 0,11,12
 20 719 20 719 56 755 c 0,0,1
79 668 m 0,13,14
 79 641 79 641 97 623 c 0,15,16
 115 604 115 604 143 604 c 128,-1,17
 171 604 171 604 189 622.5 c 128,-1,18
 207 641 207 641 207 668 c 0,19,20
 207 696 207 696 189 714.5 c 128,-1,21
 171 733 171 733 143 733 c 128,-1,22
 115 733 115 733 97 714.5 c 128,-1,23
 79 696 79 696 79 668 c 0,13,14
EndSplineSet
Validated: 1
EndChar

StartChar: plusminus
Encoding: 114 177 114
Width: 533
GlyphClass: 2
Flags: W
LayerCount: 2
Fore
SplineSet
49 404 m 1,0,-1
 49 485 l 1,1,-1
 226 485 l 1,2,-1
 226 662 l 1,3,-1
 307 662 l 1,4,-1
 307 485 l 1,5,-1
 484 485 l 1,6,-1
 484 404 l 1,7,-1
 307 404 l 1,8,-1
 307 227 l 1,9,-1
 226 227 l 1,10,-1
 226 404 l 1,11,-1
 49 404 l 1,0,-1
49 159 m 1,12,-1
 484 159 l 1,13,-1
 484 78 l 1,14,-1
 49 78 l 1,15,-1
 49 159 l 1,12,-1
EndSplineSet
Validated: 1
EndChar

StartChar: twosuperior
Encoding: 115 178 115
Width: 356
GlyphClass: 2
Flags: W
LayerCount: 2
Fore
SplineSet
25 406 m 1,0,-1
 25 454 l 1,1,-1
 201 617 l 2,2,3
 250 661 250 661 250 707 c 0,4,5
 250 741 250 741 228 766.5 c 128,-1,6
 206 792 206 792 166 792 c 0,7,8
 135 792 135 792 112.5 772 c 128,-1,9
 90 752 90 752 83 729 c 1,10,-1
 28 748 l 1,11,12
 40 794 40 794 79 824.5 c 128,-1,13
 118 855 118 855 167 855 c 0,14,15
 229 855 229 855 271 814 c 128,-1,16
 313 773 313 773 313 707 c 0,17,18
 313 634 313 634 245 574 c 2,19,-1
 127 468 l 1,20,-1
 322 468 l 1,21,-1
 322 406 l 1,22,-1
 25 406 l 1,0,-1
EndSplineSet
Validated: 1
EndChar

StartChar: threesuperior
Encoding: 116 179 116
Width: 356
GlyphClass: 2
Flags: W
LayerCount: 2
Fore
SplineSet
82 513 m 1,0,1
 92 492 92 492 118 478.5 c 128,-1,2
 144 465 144 465 173 465 c 0,3,4
 210 465 210 465 234 485 c 128,-1,5
 258 505 258 505 258 537 c 128,-1,6
 258 569 258 569 232 591.5 c 128,-1,7
 206 614 206 614 169 614 c 2,8,-1
 146 614 l 1,9,-1
 146 675 l 1,10,-1
 169 675 l 2,11,12
 198 675 198 675 219.5 693.5 c 128,-1,13
 241 712 241 712 241 736 c 0,14,15
 241 764 241 764 220 780 c 128,-1,16
 199 796 199 796 170 796 c 0,17,18
 124 796 124 796 103 760 c 1,19,-1
 48 786 l 1,20,21
 64 817 64 817 98.5 837 c 128,-1,22
 133 857 133 857 172 857 c 0,23,24
 229 857 229 857 267 825.5 c 128,-1,25
 305 794 305 794 305 739 c 0,26,27
 305 681 305 681 252 646 c 1,28,29
 322 610 322 610 322 534 c 0,30,31
 322 476 322 476 278.5 439 c 128,-1,32
 235 402 235 402 175 402 c 0,33,34
 123 402 123 402 83 426 c 128,-1,35
 43 450 43 450 25 490 c 1,36,-1
 82 513 l 1,0,1
EndSplineSet
Validated: 1
EndChar

StartChar: acute
Encoding: 117 180 117
Width: 188
GlyphClass: 2
Flags: W
LayerCount: 2
Fore
SplineSet
84 570 m 1,0,-1
 20 570 l 1,1,-1
 79 730 l 1,2,-1
 168 730 l 1,3,-1
 84 570 l 1,0,-1
EndSplineSet
Validated: 1
EndChar

StartChar: uni00B5
Encoding: 118 181 118
Width: 611
GlyphClass: 2
Flags: W
LayerCount: 2
Fore
SplineSet
58 550 m 1,0,-1
 156 550 l 1,1,-1
 156 268 l 2,2,3
 156 177 156 177 197.5 130 c 128,-1,4
 239 83 239 83 306 83 c 0,5,6
 371 83 371 83 414.5 130.5 c 128,-1,7
 458 178 458 178 458 268 c 2,8,-1
 458 550 l 1,9,-1
 555 550 l 1,10,-1
 555 0 l 1,11,-1
 458 0 l 1,12,-1
 458 80 l 1,13,14
 400 -13 400 -13 287 -13 c 0,15,16
 195 -13 195 -13 156 64 c 1,17,-1
 156 -220 l 1,18,-1
 58 -220 l 1,19,-1
 58 550 l 1,0,-1
EndSplineSet
Validated: 1
EndChar

StartChar: paragraph
Encoding: 119 182 119
Width: 600
GlyphClass: 2
Flags: W
LayerCount: 2
Fore
SplineSet
107 706 m 0,0,1
 175 780 175 780 271 780 c 2,2,-1
 529 780 l 1,3,-1
 529 -131 l 1,4,-1
 478 -131 l 1,5,-1
 478 730 l 1,6,-1
 379 730 l 1,7,-1
 379 -131 l 1,8,-1
 328 -131 l 1,9,-1
 328 272 l 1,10,-1
 271 272 l 2,11,12
 175 272 175 272 107 346.5 c 128,-1,13
 39 421 39 421 39 526 c 128,-1,14
 39 631 39 631 107 706 c 0,0,1
EndSplineSet
Validated: 1
EndChar

StartChar: periodcentered
Encoding: 120 183 120
Width: 192
GlyphClass: 2
Flags: W
LayerCount: 2
Fore
SplineSet
52 411 m 0,0,1
 70 429 70 429 97 429 c 0,2,3
 123 429 123 429 141 410.5 c 128,-1,4
 159 392 159 392 159 366 c 0,5,6
 159 339 159 339 141 320.5 c 128,-1,7
 123 302 123 302 97 302 c 0,8,9
 70 302 70 302 51.5 320.5 c 128,-1,10
 33 339 33 339 33 366 c 0,11,12
 33 392 33 392 52 411 c 0,0,1
EndSplineSet
Validated: 1
EndChar

StartChar: cedilla
Encoding: 121 184 121
Width: 242
GlyphClass: 2
Flags: W
LayerCount: 2
Fore
SplineSet
43 -141 m 1,0,1
 66 -159 66 -159 107 -159 c 0,2,3
 157 -159 157 -159 157 -124 c 0,4,5
 157 -87 157 -87 98 -87 c 2,6,-1
 63 -87 l 1,7,-1
 89 0 l 1,8,-1
 155 0 l 1,9,-1
 140 -47 l 1,10,11
 180 -52 180 -52 201.5 -74 c 128,-1,12
 223 -96 223 -96 223 -128 c 0,13,14
 223 -167 223 -167 192 -193.5 c 128,-1,15
 161 -220 161 -220 114 -220 c 0,16,17
 54 -220 54 -220 20 -196 c 1,18,-1
 43 -141 l 1,0,1
EndSplineSet
Validated: 1
EndChar

StartChar: onesuperior
Encoding: 122 185 122
Width: 177
GlyphClass: 2
Flags: W
LayerCount: 2
Fore
SplineSet
125 407 m 1,0,-1
 62 407 l 1,1,-1
 62 788 l 1,2,-1
 17 788 l 1,3,-1
 17 850 l 1,4,-1
 125 850 l 1,5,-1
 125 407 l 1,0,-1
EndSplineSet
Validated: 1
EndChar

StartChar: ordmasculine
Encoding: 123 186 123
Width: 437
GlyphClass: 2
Flags: W
LayerCount: 2
Fore
SplineSet
33 553 m 256,0,1
 33 630 33 630 87.5 684.5 c 128,-1,2
 142 739 142 739 219 739 c 128,-1,3
 296 739 296 739 350.5 684.5 c 128,-1,4
 405 630 405 630 405 553 c 128,-1,5
 405 476 405 476 351 422 c 0,6,7
 296 367 296 367 219 367 c 128,-1,8
 142 367 142 367 87.5 421.5 c 128,-1,9
 33 476 33 476 33 553 c 256,0,1
100 553 m 256,10,11
 100 504 100 504 134 469 c 256,12,13
 168 434 168 434 218 434 c 128,-1,14
 268 434 268 434 303 469.5 c 128,-1,15
 338 505 338 505 338 553 c 0,16,17
 338 602 338 602 303 637 c 128,-1,18
 268 672 268 672 218 672 c 128,-1,19
 168 672 168 672 134 637 c 128,-1,20
 100 602 100 602 100 553 c 256,10,11
EndSplineSet
Validated: 1
EndChar

StartChar: guillemotright
Encoding: 124 187 124
Width: 421
GlyphClass: 2
Flags: W
LayerCount: 2
Fore
SplineSet
296 365 m 1,0,-1
 198 537 l 1,1,-1
 274 537 l 1,2,-1
 372 365 l 1,3,-1
 274 193 l 1,4,-1
 198 193 l 1,5,-1
 296 365 l 1,0,-1
49 537 m 1,6,-1
 125 537 l 1,7,-1
 223 365 l 1,8,-1
 125 193 l 1,9,-1
 49 193 l 1,10,-1
 148 365 l 1,11,-1
 49 537 l 1,6,-1
EndSplineSet
Validated: 1
EndChar

StartChar: onequarter
Encoding: 125 188 125
Width: 654
GlyphClass: 3
Flags: W
LayerCount: 2
Fore
SplineSet
310 110 m 1,0,-1
 310 173 l 1,1,-1
 522 444 l 1,2,-1
 598 444 l 1,3,-1
 598 173 l 1,4,-1
 628 173 l 1,5,-1
 628 110 l 1,6,-1
 598 110 l 1,7,-1
 598 0 l 1,8,-1
 535 0 l 1,9,-1
 535 110 l 1,10,-1
 310 110 l 1,0,-1
49 0 m 1,11,-1
 453 781 l 1,12,-1
 527 781 l 1,13,-1
 123 0 l 1,14,-1
 49 0 l 1,11,-1
27 718 m 1,15,-1
 27 780 l 1,16,-1
 135 780 l 1,17,-1
 135 337 l 1,18,-1
 72 337 l 1,19,-1
 72 718 l 1,20,-1
 27 718 l 1,15,-1
535 173 m 1,21,-1
 535 360 l 1,22,-1
 384 173 l 1,23,-1
 535 173 l 1,21,-1
EndSplineSet
Validated: 1
Ligature2: "'frac' Diagonal Fractions lookup 13 subtable" one slash four
EndChar

StartChar: onehalf
Encoding: 126 189 126
Width: 739
GlyphClass: 3
Flags: W
LayerCount: 2
Fore
SplineSet
576 211 m 2,0,1
 624 254 624 254 624 301 c 0,2,3
 624 335 624 335 602 360.5 c 128,-1,4
 580 386 580 386 541 386 c 0,5,6
 510 386 510 386 487 366 c 128,-1,7
 464 346 464 346 457 323 c 1,8,-1
 402 342 l 1,9,10
 415 388 415 388 453.5 418.5 c 128,-1,11
 492 449 492 449 542 449 c 0,12,13
 603 449 603 449 645 408 c 128,-1,14
 687 367 687 367 687 301 c 0,15,16
 687 228 687 228 620 168 c 2,17,-1
 501 62 l 1,18,-1
 697 62 l 1,19,-1
 697 0 l 1,20,-1
 399 0 l 1,21,-1
 399 48 l 1,22,-1
 576 211 l 2,0,1
455 781 m 1,23,-1
 529 781 l 1,24,-1
 125 0 l 1,25,-1
 51 0 l 1,26,-1
 455 781 l 1,23,-1
27 718 m 1,27,-1
 27 780 l 1,28,-1
 136 780 l 1,29,-1
 136 337 l 1,30,-1
 73 337 l 1,31,-1
 73 718 l 1,32,-1
 27 718 l 1,27,-1
EndSplineSet
Validated: 1
Ligature2: "'frac' Diagonal Fractions lookup 13 subtable" one slash two
EndChar

StartChar: threequarters
Encoding: 127 190 127
Width: 811
GlyphClass: 3
Flags: W
LayerCount: 2
Fore
SplineSet
467 173 m 1,0,-1
 679 444 l 1,1,-1
 755 444 l 1,2,-1
 755 173 l 1,3,-1
 785 173 l 1,4,-1
 785 110 l 1,5,-1
 755 110 l 1,6,-1
 755 0 l 1,7,-1
 692 0 l 1,8,-1
 692 110 l 1,9,-1
 467 110 l 1,10,-1
 467 173 l 1,0,-1
611 781 m 1,11,-1
 684 781 l 1,12,-1
 280 0 l 1,13,-1
 207 0 l 1,14,-1
 611 781 l 1,11,-1
89 435 m 1,15,16
 100 415 100 415 125.5 401 c 128,-1,17
 151 387 151 387 180 387 c 0,18,19
 217 387 217 387 241 407 c 128,-1,20
 265 427 265 427 265 460 c 0,21,22
 265 492 265 492 239 514.5 c 128,-1,23
 213 537 213 537 176 537 c 2,24,-1
 153 537 l 1,25,-1
 153 597 l 1,26,-1
 176 597 l 2,27,28
 206 597 206 597 227 616 c 128,-1,29
 248 635 248 635 248 659 c 0,30,31
 248 687 248 687 227 702.5 c 128,-1,32
 206 718 206 718 177 718 c 0,33,34
 131 718 131 718 110 683 c 1,35,-1
 55 708 l 1,36,37
 71 740 71 740 105 759.5 c 128,-1,38
 139 779 139 779 179 779 c 0,39,40
 235 779 235 779 273.5 748 c 128,-1,41
 312 717 312 717 312 662 c 0,42,43
 312 602 312 602 259 569 c 1,44,45
 291 553 291 553 310 523.5 c 128,-1,46
 329 494 329 494 329 457 c 0,47,48
 329 399 329 399 285.5 361.5 c 128,-1,49
 242 324 242 324 182 324 c 0,50,51
 131 324 131 324 90.5 348.5 c 128,-1,52
 50 373 50 373 32 412 c 1,53,-1
 89 435 l 1,15,16
692 173 m 1,54,-1
 692 360 l 1,55,-1
 541 173 l 1,56,-1
 692 173 l 1,54,-1
EndSplineSet
Validated: 1
Ligature2: "'frac' Diagonal Fractions lookup 13 subtable" three slash four
EndChar

StartChar: questiondown
Encoding: 128 191 128
Width: 557
GlyphClass: 2
Flags: W
LayerCount: 2
Fore
SplineSet
49 8 m 0,0,1
 49 81 49 81 80 132 c 128,-1,2
 111 183 111 183 181 242 c 0,3,4
 211 267 211 267 226.5 292 c 128,-1,5
 242 317 242 317 242 353 c 2,6,-1
 242 386 l 1,7,-1
 339 386 l 1,8,-1
 339 344 l 2,9,10
 339 252 339 252 256 185 c 0,11,12
 193 135 193 135 170 96.5 c 128,-1,13
 147 58 147 58 147 16 c 0,14,15
 147 -38 147 -38 184 -72.5 c 128,-1,16
 221 -107 221 -107 278 -107 c 0,17,18
 329 -107 329 -107 367 -75.5 c 128,-1,19
 405 -44 405 -44 420 2 c 1,20,-1
 508 -33 l 1,21,22
 485 -108 485 -108 422 -156.5 c 128,-1,23
 359 -205 359 -205 279 -205 c 0,24,25
 181 -205 181 -205 115 -145 c 128,-1,26
 49 -85 49 -85 49 8 c 0,0,1
230 490 m 256,27,28
 230 515 230 515 247.5 532.5 c 128,-1,29
 265 550 265 550 290 550 c 128,-1,30
 315 550 315 550 332.5 532.5 c 128,-1,31
 350 515 350 515 350 490 c 128,-1,32
 350 465 350 465 333 448 c 0,33,34
 315 430 315 430 290 430 c 128,-1,35
 265 430 265 430 247.5 447.5 c 128,-1,36
 230 465 230 465 230 490 c 256,27,28
EndSplineSet
Validated: 1
EndChar

StartChar: Agrave
Encoding: 129 192 129
Width: 676
GlyphClass: 2
Flags: W
LayerCount: 2
Fore
SplineSet
15 0 m 1,0,-1
 282 730 l 1,1,-1
 394 730 l 1,2,-1
 661 0 l 1,3,-1
 549 0 l 1,4,-1
 479 190 l 1,5,-1
 198 190 l 1,6,-1
 129 0 l 1,7,-1
 15 0 l 1,0,-1
228 287 m 1,8,-1
 449 287 l 1,9,-1
 338 591 l 1,10,-1
 228 287 l 1,8,-1
218 970 m 1,11,-1
 307 970 l 1,12,-1
 366 810 l 1,13,-1
 302 810 l 1,14,-1
 218 970 l 1,11,-1
EndSplineSet
Validated: 1
Substitution2: "'ss02' Style Set 2 lookup 28 subtable" Agrave.ss02
Substitution2: "'aalt' Access All Alternates lookup 0 subtable" Agrave.ss02
EndChar

StartChar: Aacute
Encoding: 130 193 130
Width: 676
GlyphClass: 2
Flags: W
LayerCount: 2
Fore
SplineSet
282 730 m 1,0,-1
 394 730 l 1,1,-1
 661 0 l 1,2,-1
 549 0 l 1,3,-1
 479 190 l 1,4,-1
 198 190 l 1,5,-1
 129 0 l 1,6,-1
 15 0 l 1,7,-1
 282 730 l 1,0,-1
449 287 m 1,8,-1
 338 591 l 1,9,-1
 228 287 l 1,10,-1
 449 287 l 1,8,-1
310 810 m 1,11,-1
 369 970 l 1,12,-1
 458 970 l 1,13,-1
 374 810 l 1,14,-1
 310 810 l 1,11,-1
EndSplineSet
Validated: 1
Substitution2: "'ss02' Style Set 2 lookup 28 subtable" Aacute.ss02
Substitution2: "'aalt' Access All Alternates lookup 0 subtable" Aacute.ss02
EndChar

StartChar: Acircumflex
Encoding: 131 194 131
Width: 676
GlyphClass: 2
Flags: W
LayerCount: 2
Fore
SplineSet
15 0 m 1,0,-1
 282 730 l 1,1,-1
 394 730 l 1,2,-1
 661 0 l 1,3,-1
 549 0 l 1,4,-1
 479 190 l 1,5,-1
 198 190 l 1,6,-1
 129 0 l 1,7,-1
 15 0 l 1,0,-1
449 287 m 1,8,-1
 338 591 l 1,9,-1
 228 287 l 1,10,-1
 449 287 l 1,8,-1
187 821 m 1,11,-1
 293 948 l 1,12,-1
 379 948 l 1,13,-1
 484 821 l 1,14,-1
 401 821 l 1,15,-1
 336 897 l 1,16,-1
 270 821 l 1,17,-1
 187 821 l 1,11,-1
EndSplineSet
Validated: 1
Substitution2: "'ss02' Style Set 2 lookup 28 subtable" Acircumflex.ss02
Substitution2: "'aalt' Access All Alternates lookup 0 subtable" Acircumflex.ss02
EndChar

StartChar: Atilde
Encoding: 132 195 132
Width: 676
GlyphClass: 2
Flags: W
LayerCount: 2
Fore
SplineSet
15 0 m 1,0,-1
 282 730 l 1,1,-1
 394 730 l 1,2,-1
 661 0 l 1,3,-1
 549 0 l 1,4,-1
 479 190 l 1,5,-1
 198 190 l 1,6,-1
 129 0 l 1,7,-1
 15 0 l 1,0,-1
228 287 m 1,8,-1
 449 287 l 1,9,-1
 338 591 l 1,10,-1
 228 287 l 1,8,-1
206 922 m 256,11,12
 229 955 229 955 269 956 c 0,13,14
 271 956 271 956 272 956 c 0,15,16
 300 956 300 956 323 939 c 128,-1,17
 346 922 346 922 363.5 904.5 c 128,-1,18
 381 887 381 887 395 887 c 0,19,20
 396 887 396 887 397 887 c 0,21,22
 424 889 424 889 424 944 c 1,23,-1
 489 944 l 1,24,25
 489 891 489 891 467.5 859.5 c 128,-1,26
 446 828 446 828 407 827 c 0,27,28
 403 827 403 827 400 827 c 0,29,30
 380 827 380 827 360.5 837 c 128,-1,31
 341 847 341 847 329 860.5 c 128,-1,32
 317 874 317 874 303.5 884.5 c 128,-1,33
 290 895 290 895 280 895 c 0,34,35
 279 895 279 895 278 895 c 0,36,37
 249 893 249 893 249 838 c 1,38,-1
 183 838 l 1,39,40
 183 889 183 889 206 922 c 256,11,12
EndSplineSet
Validated: 1
Substitution2: "'ss02' Style Set 2 lookup 28 subtable" Atilde.ss02
Substitution2: "'aalt' Access All Alternates lookup 0 subtable" Atilde.ss02
EndChar

StartChar: Adieresis
Encoding: 133 196 133
Width: 676
GlyphClass: 2
Flags: W
LayerCount: 2
Fore
SplineSet
282 730 m 1,0,-1
 394 730 l 1,1,-1
 661 0 l 1,2,-1
 549 0 l 1,3,-1
 479 190 l 1,4,-1
 198 190 l 1,5,-1
 129 0 l 1,6,-1
 15 0 l 1,7,-1
 282 730 l 1,0,-1
449 287 m 1,8,-1
 338 591 l 1,9,-1
 228 287 l 1,10,-1
 449 287 l 1,8,-1
191 890 m 256,11,12
 191 912 191 912 206.5 927.5 c 128,-1,13
 222 943 222 943 244 943 c 0,14,15
 265 943 265 943 280.5 927.5 c 128,-1,16
 296 912 296 912 296 890 c 128,-1,17
 296 868 296 868 280.5 853 c 128,-1,18
 265 838 265 838 244 838 c 0,19,20
 222 838 222 838 206.5 853 c 128,-1,21
 191 868 191 868 191 890 c 256,11,12
401 928 m 0,22,23
 416 943 416 943 438 943 c 128,-1,24
 460 943 460 943 475 927.5 c 128,-1,25
 490 912 490 912 490 890 c 128,-1,26
 490 868 490 868 475 853 c 256,27,28
 460 838 460 838 438 838 c 128,-1,29
 416 838 416 838 401 853 c 128,-1,30
 386 868 386 868 386 890 c 128,-1,31
 386 912 386 912 401 928 c 0,22,23
EndSplineSet
Validated: 1
Substitution2: "'ss02' Style Set 2 lookup 28 subtable" Adieresis.ss02
Substitution2: "'aalt' Access All Alternates lookup 0 subtable" Adieresis.ss02
EndChar

StartChar: Aring
Encoding: 134 197 134
Width: 676
GlyphClass: 2
Flags: W
LayerCount: 2
Fore
SplineSet
282 730 m 1,0,-1
 394 730 l 1,1,-1
 661 0 l 1,2,-1
 549 0 l 1,3,-1
 479 190 l 1,4,-1
 198 190 l 1,5,-1
 129 0 l 1,6,-1
 15 0 l 1,7,-1
 282 730 l 1,0,-1
229 890 m 0,8,9
 229 938 229 938 263 970 c 128,-1,10
 297 1002 297 1002 345 1002 c 0,11,12
 392 1002 392 1002 426 970 c 128,-1,13
 460 938 460 938 460 890 c 0,14,15
 460 843 460 843 426 811 c 256,16,17
 392 779 392 779 345 779 c 128,-1,18
 298 779 298 779 263.5 811 c 128,-1,19
 229 843 229 843 229 890 c 0,8,9
228 287 m 1,20,-1
 449 287 l 1,21,-1
 338 591 l 1,22,-1
 228 287 l 1,20,-1
307 853 m 0,23,24
 322 837 322 837 345 837 c 128,-1,25
 368 837 368 837 383 852.5 c 128,-1,26
 398 868 398 868 398 890 c 0,27,28
 398 913 398 913 382.5 929 c 128,-1,29
 367 945 367 945 345 945 c 128,-1,30
 323 945 323 945 307.5 929 c 128,-1,31
 292 913 292 913 292 890 c 0,32,33
 292 868 292 868 307 853 c 0,23,24
EndSplineSet
Validated: 1
Substitution2: "'ss02' Style Set 2 lookup 28 subtable" Aring.ss02
Substitution2: "'aalt' Access All Alternates lookup 0 subtable" Aring.ss02
EndChar

StartChar: AE
Encoding: 135 198 135
Width: 950
GlyphClass: 2
Flags: W
LayerCount: 2
Fore
SplineSet
285 730 m 1,0,-1
 903 730 l 1,1,-1
 903 634 l 1,2,-1
 554 634 l 1,3,-1
 554 424 l 1,4,-1
 883 424 l 1,5,-1
 883 329 l 1,6,-1
 554 329 l 1,7,-1
 554 99 l 1,8,-1
 908 99 l 1,9,-1
 908 -1 l 1,10,-1
 452 -1 l 1,11,-1
 452 227 l 1,12,-1
 211 227 l 1,13,-1
 130 0 l 1,14,-1
 15 0 l 1,15,-1
 285 730 l 1,0,-1
452 323 m 1,16,-1
 452 634 l 1,17,-1
 354 634 l 1,18,-1
 241 323 l 1,19,-1
 452 323 l 1,16,-1
EndSplineSet
Validated: 1
EndChar

StartChar: Ccedilla
Encoding: 136 199 136
Width: 761
GlyphClass: 2
Flags: W
LayerCount: 2
Fore
SplineSet
49 365 m 0,0,1
 49 520 49 520 159 630 c 128,-1,2
 269 740 269 740 425 740 c 0,3,4
 513 740 513 740 590 702 c 128,-1,5
 667 664 667 664 720 598 c 1,6,-1
 635 535 l 1,7,8
 597 582 597 582 542 608.5 c 128,-1,9
 487 635 487 635 425 635 c 0,10,11
 313 635 313 635 233.5 556.5 c 128,-1,12
 154 478 154 478 154 366 c 0,13,14
 154 252 154 252 233.5 173 c 128,-1,15
 313 94 313 94 425 94 c 0,16,17
 489 94 489 94 544.5 121.5 c 128,-1,18
 600 149 600 149 637 198 c 1,19,-1
 727 142 l 1,20,21
 677 73 677 73 601.5 32.5 c 128,-1,22
 526 -8 526 -8 439 -12 c 1,23,-1
 428 -47 l 1,24,25
 468 -52 468 -52 489 -74 c 128,-1,26
 510 -96 510 -96 510 -128 c 0,27,28
 510 -167 510 -167 479 -193.5 c 128,-1,29
 448 -220 448 -220 401 -220 c 0,30,31
 340 -220 340 -220 308 -196 c 1,32,-1
 331 -141 l 1,33,34
 354 -159 354 -159 395 -159 c 0,35,36
 445 -159 445 -159 445 -124 c 0,37,38
 445 -87 445 -87 386 -87 c 2,39,-1
 351 -87 l 1,40,-1
 374 -9 l 1,41,42
 235 10 235 10 142 116.5 c 128,-1,43
 49 223 49 223 49 365 c 0,0,1
EndSplineSet
Validated: 1
EndChar

StartChar: Egrave
Encoding: 137 200 137
Width: 591
GlyphClass: 2
Flags: W
LayerCount: 2
Fore
SplineSet
82 0 m 1,0,-1
 82 730 l 1,1,-1
 533 730 l 1,2,-1
 533 635 l 1,3,-1
 184 635 l 1,4,-1
 184 422 l 1,5,-1
 513 422 l 1,6,-1
 513 327 l 1,7,-1
 184 327 l 1,8,-1
 184 100 l 1,9,-1
 543 100 l 1,10,-1
 543 0 l 1,11,-1
 82 0 l 1,0,-1
202 970 m 1,12,-1
 292 970 l 1,13,-1
 350 810 l 1,14,-1
 287 810 l 1,15,-1
 202 970 l 1,12,-1
EndSplineSet
Validated: 1
EndChar

StartChar: Eacute
Encoding: 138 201 138
Width: 591
GlyphClass: 2
Flags: W
LayerCount: 2
Fore
SplineSet
82 730 m 1,0,-1
 533 730 l 1,1,-1
 533 635 l 1,2,-1
 184 635 l 1,3,-1
 184 422 l 1,4,-1
 513 422 l 1,5,-1
 513 327 l 1,6,-1
 184 327 l 1,7,-1
 184 100 l 1,8,-1
 543 100 l 1,9,-1
 543 0 l 1,10,-1
 82 0 l 1,11,-1
 82 730 l 1,0,-1
274 810 m 1,12,-1
 332 970 l 1,13,-1
 422 970 l 1,14,-1
 338 810 l 1,15,-1
 274 810 l 1,12,-1
EndSplineSet
Validated: 1
EndChar

StartChar: Ecircumflex
Encoding: 139 202 139
Width: 591
GlyphClass: 2
Flags: W
LayerCount: 2
Fore
SplineSet
82 730 m 1,0,-1
 533 730 l 1,1,-1
 533 635 l 1,2,-1
 184 635 l 1,3,-1
 184 422 l 1,4,-1
 513 422 l 1,5,-1
 513 327 l 1,6,-1
 184 327 l 1,7,-1
 184 100 l 1,8,-1
 543 100 l 1,9,-1
 543 0 l 1,10,-1
 82 0 l 1,11,-1
 82 730 l 1,0,-1
167 827 m 1,12,-1
 273 954 l 1,13,-1
 359 954 l 1,14,-1
 465 827 l 1,15,-1
 382 827 l 1,16,-1
 316 903 l 1,17,-1
 250 827 l 1,18,-1
 167 827 l 1,12,-1
EndSplineSet
Validated: 1
EndChar

StartChar: Edieresis
Encoding: 140 203 140
Width: 591
GlyphClass: 2
Flags: W
LayerCount: 2
Fore
SplineSet
82 730 m 1,0,-1
 533 730 l 1,1,-1
 533 635 l 1,2,-1
 184 635 l 1,3,-1
 184 422 l 1,4,-1
 513 422 l 1,5,-1
 513 327 l 1,6,-1
 184 327 l 1,7,-1
 184 100 l 1,8,-1
 543 100 l 1,9,-1
 543 0 l 1,10,-1
 82 0 l 1,11,-1
 82 730 l 1,0,-1
169 928 m 0,12,13
 184 943 184 943 206 943 c 0,14,15
 227 943 227 943 242.5 927.5 c 128,-1,16
 258 912 258 912 258 890 c 128,-1,17
 258 868 258 868 242.5 853 c 128,-1,18
 227 838 227 838 206 838 c 0,19,20
 184 838 184 838 168.5 853 c 128,-1,21
 153 868 153 868 153 890 c 128,-1,22
 153 912 153 912 169 928 c 0,12,13
363 928 m 0,23,24
 378 943 378 943 400 943 c 0,25,26
 421 943 421 943 436.5 927.5 c 128,-1,27
 452 912 452 912 452 890 c 128,-1,28
 452 868 452 868 436.5 853 c 128,-1,29
 421 838 421 838 400 838 c 0,30,31
 378 838 378 838 363 853 c 128,-1,32
 348 868 348 868 348 890 c 128,-1,33
 348 912 348 912 363 928 c 0,23,24
EndSplineSet
Validated: 1
EndChar

StartChar: Igrave
Encoding: 141 204 141
Width: 266
GlyphClass: 2
Flags: W
LayerCount: 2
Fore
SplineSet
185 810 m 1,0,-1
 121 810 l 1,1,-1
 37 970 l 1,2,-1
 126 970 l 1,3,-1
 185 810 l 1,0,-1
185 0 m 1,4,-1
 82 0 l 1,5,-1
 82 730 l 1,6,-1
 185 730 l 1,7,-1
 185 0 l 1,4,-1
EndSplineSet
Validated: 1
EndChar

StartChar: Iacute
Encoding: 142 205 142
Width: 266
GlyphClass: 2
Flags: W
LayerCount: 2
Fore
SplineSet
160 810 m 1,0,-1
 96 810 l 1,1,-1
 155 970 l 1,2,-1
 244 970 l 1,3,-1
 160 810 l 1,0,-1
185 0 m 1,4,-1
 82 0 l 1,5,-1
 82 730 l 1,6,-1
 185 730 l 1,7,-1
 185 0 l 1,4,-1
EndSplineSet
Validated: 1
EndChar

StartChar: Icircumflex
Encoding: 143 206 143
Width: 266
GlyphClass: 2
Flags: W
LayerCount: 2
Fore
SplineSet
185 730 m 1,0,-1
 185 0 l 1,1,-1
 82 0 l 1,2,-1
 82 730 l 1,3,-1
 185 730 l 1,0,-1
90 954 m 1,4,-1
 176 954 l 1,5,-1
 282 827 l 1,6,-1
 199 827 l 1,7,-1
 133 903 l 1,8,-1
 67 827 l 1,9,-1
 -17 827 l 1,10,-1
 90 954 l 1,4,-1
EndSplineSet
Validated: 1
EndChar

StartChar: Idieresis
Encoding: 144 207 144
Width: 266
GlyphClass: 2
Flags: W
LayerCount: 2
Fore
SplineSet
48 838 m 0,0,1
 27 838 27 838 11 853.5 c 128,-1,2
 -5 869 -5 869 -5 890 c 0,3,4
 -5 912 -5 912 11 927.5 c 128,-1,5
 27 943 27 943 48 943 c 0,6,7
 70 943 70 943 85 927.5 c 128,-1,8
 100 912 100 912 100 890 c 128,-1,9
 100 868 100 868 85 853 c 128,-1,10
 70 838 70 838 48 838 c 0,0,1
218 838 m 0,11,12
 196 838 196 838 180.5 853 c 128,-1,13
 165 868 165 868 165 890 c 128,-1,14
 165 912 165 912 180.5 927.5 c 128,-1,15
 196 943 196 943 218 943 c 0,16,17
 239 943 239 943 254.5 927.5 c 128,-1,18
 270 912 270 912 270 890 c 128,-1,19
 270 868 270 868 254.5 853 c 128,-1,20
 239 838 239 838 218 838 c 0,11,12
185 0 m 1,21,-1
 82 0 l 1,22,-1
 82 730 l 1,23,-1
 185 730 l 1,24,-1
 185 0 l 1,21,-1
EndSplineSet
Validated: 1
EndChar

StartChar: Eth
Encoding: 145 208 145
Width: 743
GlyphClass: 2
Flags: W
LayerCount: 2
Fore
SplineSet
310 0 m 2,0,-1
 85 0 l 1,1,-1
 85 325 l 1,2,-1
 35 325 l 1,3,-1
 35 406 l 1,4,-1
 85 406 l 1,5,-1
 85 730 l 1,6,-1
 310 730 l 2,7,8
 478 730 478 730 586 625 c 128,-1,9
 694 520 694 520 694 366 c 0,10,11
 694 209 694 209 588 104.5 c 128,-1,12
 482 0 482 0 310 0 c 2,0,-1
189 325 m 1,13,-1
 189 102 l 1,14,-1
 310 102 l 2,15,16
 436 102 436 102 511.5 178 c 128,-1,17
 587 254 587 254 587 367 c 0,18,19
 587 476 587 476 509.5 552 c 128,-1,20
 432 628 432 628 310 628 c 2,21,-1
 189 628 l 1,22,-1
 189 406 l 1,23,-1
 418 406 l 1,24,-1
 418 325 l 1,25,-1
 189 325 l 1,13,-1
EndSplineSet
Validated: 1
EndChar

StartChar: Ntilde
Encoding: 146 209 146
Width: 778
GlyphClass: 2
Flags: W
LayerCount: 2
Fore
SplineSet
448 827 m 0,0,1
 444.461538462 826.692307692 444.461538462 826.692307692 440.970414201 826.692307692 c 0,2,3
 421.769230769 826.692307692 421.769230769 826.692307692 404 836 c 0,4,5
 383 847 383 847 371 860.5 c 128,-1,6
 359 874 359 874 345 885 c 128,-1,7
 331 896 331 896 319 895 c 0,8,9
 290 893 290 893 290 838 c 1,10,-1
 225 838 l 1,11,12
 225 889 225 889 248 922 c 128,-1,13
 271 955 271 955 310 956 c 0,14,15
 311.621621622 956.054054054 311.621621622 956.054054054 313.225712199 956.054054054 c 0,16,17
 341.297297297 956.054054054 341.297297297 956.054054054 364 939.5 c 0,18,19
 388 922 388 922 406 904 c 0,20,21
 423.052631579 886.947368421 423.052631579 886.947368421 437.412742382 886.947368421 c 0,22,23
 438.210526316 886.947368421 438.210526316 886.947368421 439 887 c 0,24,25
 465 889 465 889 465 944 c 1,26,-1
 531 944 l 1,27,28
 531 891 531 891 509.5 859.5 c 128,-1,29
 488 828 488 828 448 827 c 0,0,1
185 0 m 1,30,-1
 82 0 l 1,31,-1
 82 730 l 1,32,-1
 185 730 l 1,33,-1
 593 181 l 1,34,-1
 593 730 l 1,35,-1
 697 730 l 1,36,-1
 697 0 l 1,37,-1
 593 0 l 1,38,-1
 185 550 l 1,39,-1
 185 0 l 1,30,-1
EndSplineSet
Validated: 1
Substitution2: "'ss02' Style Set 2 lookup 28 subtable" Ntilde.ss02
Substitution2: "'aalt' Access All Alternates lookup 0 subtable" Ntilde.ss02
EndChar

StartChar: Ograve
Encoding: 147 210 147
Width: 849
GlyphClass: 2
Flags: W
LayerCount: 2
Fore
SplineSet
454 810 m 1,0,-1
 390 810 l 1,1,-1
 306 970 l 1,2,-1
 395 970 l 1,3,-1
 454 810 l 1,0,-1
425 -12 m 0,4,5
 269 -12 269 -12 159 98.5 c 128,-1,6
 49 209 49 209 49 365 c 0,7,8
 49 520 49 520 159 630 c 128,-1,9
 269 740 269 740 425 740 c 0,10,11
 580 740 580 740 690 630 c 128,-1,12
 800 520 800 520 800 365 c 0,13,14
 800 209 800 209 690 98.5 c 128,-1,15
 580 -12 580 -12 425 -12 c 0,4,5
425 94 m 0,16,17
 536 94 536 94 615.5 173 c 128,-1,18
 695 252 695 252 695 366 c 0,19,20
 695 477 695 477 615.5 556 c 128,-1,21
 536 635 536 635 425 635 c 0,22,23
 313 635 313 635 233.5 556.5 c 128,-1,24
 154 478 154 478 154 366 c 0,25,26
 154 252 154 252 233.5 173 c 128,-1,27
 313 94 313 94 425 94 c 0,16,17
EndSplineSet
Validated: 1
EndChar

StartChar: Oacute
Encoding: 148 211 148
Width: 849
GlyphClass: 2
Flags: W
LayerCount: 2
Fore
SplineSet
461 810 m 1,0,-1
 397 810 l 1,1,-1
 456 970 l 1,2,-1
 545 970 l 1,3,-1
 461 810 l 1,0,-1
425 -12 m 0,4,5
 269 -12 269 -12 159 98.5 c 128,-1,6
 49 209 49 209 49 365 c 0,7,8
 49 520 49 520 159 630 c 128,-1,9
 269 740 269 740 425 740 c 0,10,11
 580 740 580 740 690 630 c 128,-1,12
 800 520 800 520 800 365 c 0,13,14
 800 209 800 209 690 98.5 c 128,-1,15
 580 -12 580 -12 425 -12 c 0,4,5
425 94 m 0,16,17
 536 94 536 94 615.5 173 c 128,-1,18
 695 252 695 252 695 366 c 0,19,20
 695 477 695 477 615.5 556 c 128,-1,21
 536 635 536 635 425 635 c 0,22,23
 313 635 313 635 233.5 556.5 c 128,-1,24
 154 478 154 478 154 366 c 0,25,26
 154 252 154 252 233.5 173 c 128,-1,27
 313 94 313 94 425 94 c 0,16,17
EndSplineSet
Validated: 1
EndChar

StartChar: Ocircumflex
Encoding: 149 212 149
Width: 849
GlyphClass: 2
Flags: W
LayerCount: 2
Fore
SplineSet
357 827 m 1,0,-1
 274 827 l 1,1,-1
 380 954 l 1,2,-1
 466 954 l 1,3,-1
 572 827 l 1,4,-1
 489 827 l 1,5,-1
 423 903 l 1,6,-1
 357 827 l 1,0,-1
425 -12 m 0,7,8
 269 -12 269 -12 159 98.5 c 128,-1,9
 49 209 49 209 49 365 c 0,10,11
 49 520 49 520 159 630 c 128,-1,12
 269 740 269 740 425 740 c 0,13,14
 580 740 580 740 690 630 c 128,-1,15
 800 520 800 520 800 365 c 0,16,17
 800 209 800 209 690 98.5 c 128,-1,18
 580 -12 580 -12 425 -12 c 0,7,8
425 94 m 0,19,20
 536 94 536 94 615.5 173 c 128,-1,21
 695 252 695 252 695 366 c 0,22,23
 695 477 695 477 615.5 556 c 128,-1,24
 536 635 536 635 425 635 c 0,25,26
 313 635 313 635 233.5 556.5 c 128,-1,27
 154 478 154 478 154 366 c 0,28,29
 154 252 154 252 233.5 173 c 128,-1,30
 313 94 313 94 425 94 c 0,19,20
EndSplineSet
Validated: 1
EndChar

StartChar: Otilde
Encoding: 150 213 150
Width: 849
GlyphClass: 2
Flags: W
LayerCount: 2
Fore
SplineSet
494 827 m 0,0,1
 471 825 471 825 450 836 c 128,-1,2
 429 847 429 847 417 860.5 c 128,-1,3
 405 874 405 874 391 885 c 128,-1,4
 377 896 377 896 365 895 c 0,5,6
 336 893 336 893 336 838 c 1,7,-1
 270 838 l 1,8,9
 270 889 270 889 293 922 c 128,-1,10
 316 955 316 955 356 956 c 0,11,12
 386 957 386 957 410 939.5 c 128,-1,13
 434 922 434 922 451.5 904 c 128,-1,14
 469 886 469 886 484 887 c 0,15,16
 511 889 511 889 511 944 c 1,17,-1
 577 944 l 1,18,19
 577 891 577 891 555 859.5 c 128,-1,20
 533 828 533 828 494 827 c 0,0,1
425 -12 m 0,21,22
 269 -12 269 -12 159 98.5 c 128,-1,23
 49 209 49 209 49 365 c 0,24,25
 49 520 49 520 159 630 c 128,-1,26
 269 740 269 740 425 740 c 0,27,28
 580 740 580 740 690 630 c 128,-1,29
 800 520 800 520 800 365 c 0,30,31
 800 209 800 209 690 98.5 c 128,-1,32
 580 -12 580 -12 425 -12 c 0,21,22
425 94 m 0,33,34
 536 94 536 94 615.5 173 c 128,-1,35
 695 252 695 252 695 366 c 0,36,37
 695 477 695 477 615.5 556 c 128,-1,38
 536 635 536 635 425 635 c 0,39,40
 313 635 313 635 233.5 556.5 c 128,-1,41
 154 478 154 478 154 366 c 0,42,43
 154 252 154 252 233.5 173 c 128,-1,44
 313 94 313 94 425 94 c 0,33,34
EndSplineSet
Validated: 33
EndChar

StartChar: Odieresis
Encoding: 151 214 151
Width: 849
GlyphClass: 2
Flags: W
LayerCount: 2
Fore
SplineSet
318 838 m 0,0,1
 296 838 296 838 280.5 853 c 128,-1,2
 265 868 265 868 265 890 c 128,-1,3
 265 912 265 912 280.5 927.5 c 128,-1,4
 296 943 296 943 318 943 c 0,5,6
 339 943 339 943 354.5 927.5 c 128,-1,7
 370 912 370 912 370 890 c 128,-1,8
 370 868 370 868 354.5 853 c 128,-1,9
 339 838 339 838 318 838 c 0,0,1
512 838 m 128,-1,11
 490 838 490 838 475 853 c 128,-1,12
 460 868 460 868 460 890 c 128,-1,13
 460 912 460 912 475 927.5 c 128,-1,14
 490 943 490 943 512 943 c 128,-1,15
 534 943 534 943 549 927.5 c 128,-1,16
 564 912 564 912 564 890 c 128,-1,17
 564 868 564 868 549 853 c 128,-1,10
 534 838 534 838 512 838 c 128,-1,11
425 -12 m 0,18,19
 269 -12 269 -12 159 98.5 c 128,-1,20
 49 209 49 209 49 365 c 0,21,22
 49 520 49 520 159 630 c 128,-1,23
 269 740 269 740 425 740 c 0,24,25
 580 740 580 740 690 630 c 128,-1,26
 800 520 800 520 800 365 c 0,27,28
 800 209 800 209 690 98.5 c 128,-1,29
 580 -12 580 -12 425 -12 c 0,18,19
425 94 m 0,30,31
 536 94 536 94 615.5 173 c 128,-1,32
 695 252 695 252 695 366 c 0,33,34
 695 477 695 477 615.5 556 c 128,-1,35
 536 635 536 635 425 635 c 0,36,37
 313 635 313 635 233.5 556.5 c 128,-1,38
 154 478 154 478 154 366 c 0,39,40
 154 252 154 252 233.5 173 c 128,-1,41
 313 94 313 94 425 94 c 0,30,31
EndSplineSet
Validated: 1
EndChar

StartChar: multiply
Encoding: 152 215 152
Width: 498
GlyphClass: 2
Flags: W
LayerCount: 2
Fore
SplineSet
457 229 m 1,0,-1
 391 162 l 1,1,-1
 254 299 l 1,2,-1
 118 163 l 1,3,-1
 51 229 l 1,4,-1
 188 365 l 1,5,-1
 51 502 l 1,6,-1
 118 568 l 1,7,-1
 254 432 l 1,8,-1
 391 568 l 1,9,-1
 457 502 l 1,10,-1
 320 365 l 1,11,-1
 457 229 l 1,0,-1
EndSplineSet
Validated: 1
EndChar

StartChar: Oslash
Encoding: 153 216 153
Width: 857
GlyphClass: 2
Flags: W
LayerCount: 2
Fore
SplineSet
429 -12 m 0,0,1
 299 -12 299 -12 194 73 c 1,2,-1
 121 0 l 1,3,-1
 63 57 l 1,4,-1
 137 130 l 1,5,6
 53 235 53 235 53 366 c 0,7,8
 53 521 53 521 163 631 c 128,-1,9
 273 741 273 741 429 741 c 0,10,11
 561 741 561 741 664 657 c 1,12,-1
 737 730 l 1,13,-1
 794 673 l 1,14,-1
 721 600 l 1,15,16
 804 498 804 498 804 366 c 0,17,18
 804 210 804 210 694.5 99 c 128,-1,19
 585 -12 585 -12 429 -12 c 0,0,1
215 208 m 1,20,-1
 586 579 l 1,21,22
 518 636 518 636 429 636 c 0,23,24
 317 636 317 636 238 557 c 128,-1,25
 159 478 159 478 159 367 c 0,26,27
 159 277 159 277 215 208 c 1,20,-1
429 94 m 0,28,29
 541 94 541 94 620 173.5 c 128,-1,30
 699 253 699 253 699 367 c 0,31,32
 699 455 699 455 643 522 c 1,33,-1
 272 151 l 1,34,35
 340 94 340 94 429 94 c 0,28,29
EndSplineSet
Validated: 1
EndChar

StartChar: Ugrave
Encoding: 154 217 154
Width: 708
GlyphClass: 2
Flags: W
LayerCount: 2
Fore
SplineSet
393 810 m 1,0,-1
 329 810 l 1,1,-1
 245 970 l 1,2,-1
 334 970 l 1,3,-1
 393 810 l 1,0,-1
354 -11 m 0,4,5
 232 -11 232 -11 152 68 c 128,-1,6
 72 147 72 147 72 278 c 2,7,-1
 72 730 l 1,8,-1
 175 730 l 1,9,-1
 175 279 l 2,10,11
 175 190 175 190 224.5 141.5 c 128,-1,12
 274 93 274 93 352 93 c 128,-1,13
 430 93 430 93 481.5 141.5 c 128,-1,14
 533 190 533 190 533 279 c 2,15,-1
 533 730 l 1,16,-1
 637 730 l 1,17,-1
 637 278 l 2,18,19
 637 147 637 147 556 68 c 128,-1,20
 475 -11 475 -11 354 -11 c 0,4,5
EndSplineSet
Validated: 1
EndChar

StartChar: Uacute
Encoding: 155 218 155
Width: 708
GlyphClass: 2
Flags: W
LayerCount: 2
Fore
SplineSet
377 810 m 1,0,-1
 314 810 l 1,1,-1
 372 970 l 1,2,-1
 462 970 l 1,3,-1
 377 810 l 1,0,-1
354 -11 m 0,4,5
 232 -11 232 -11 152 68 c 128,-1,6
 72 147 72 147 72 278 c 2,7,-1
 72 730 l 1,8,-1
 175 730 l 1,9,-1
 175 279 l 2,10,11
 175 190 175 190 224.5 141.5 c 128,-1,12
 274 93 274 93 352 93 c 128,-1,13
 430 93 430 93 481.5 141.5 c 128,-1,14
 533 190 533 190 533 279 c 2,15,-1
 533 730 l 1,16,-1
 637 730 l 1,17,-1
 637 278 l 2,18,19
 637 147 637 147 556 68 c 128,-1,20
 475 -11 475 -11 354 -11 c 0,4,5
EndSplineSet
Validated: 1
EndChar

StartChar: Ucircumflex
Encoding: 156 219 156
Width: 708
GlyphClass: 2
Flags: W
LayerCount: 2
Fore
SplineSet
284 827 m 1,0,-1
 201 827 l 1,1,-1
 307 954 l 1,2,-1
 393 954 l 1,3,-1
 499 827 l 1,4,-1
 416 827 l 1,5,-1
 350 903 l 1,6,-1
 284 827 l 1,0,-1
354 -11 m 0,7,8
 232 -11 232 -11 152 68 c 128,-1,9
 72 147 72 147 72 278 c 2,10,-1
 72 730 l 1,11,-1
 175 730 l 1,12,-1
 175 279 l 2,13,14
 175 190 175 190 224.5 141.5 c 128,-1,15
 274 93 274 93 352 93 c 128,-1,16
 430 93 430 93 481.5 141.5 c 128,-1,17
 533 190 533 190 533 279 c 2,18,-1
 533 730 l 1,19,-1
 637 730 l 1,20,-1
 637 278 l 2,21,22
 637 147 637 147 556 68 c 128,-1,23
 475 -11 475 -11 354 -11 c 0,7,8
EndSplineSet
Validated: 1
EndChar

StartChar: Udieresis
Encoding: 157 220 157
Width: 708
GlyphClass: 2
Flags: W
LayerCount: 2
Fore
SplineSet
262 838 m 0,0,1
 241 838 241 838 225.5 853 c 128,-1,2
 210 868 210 868 210 890 c 128,-1,3
 210 912 210 912 225.5 927.5 c 128,-1,4
 241 943 241 943 262 943 c 0,5,6
 284 943 284 943 299 927.5 c 128,-1,7
 314 912 314 912 314 890 c 128,-1,8
 314 868 314 868 299 853 c 128,-1,9
 284 838 284 838 262 838 c 0,0,1
457 838 m 0,10,11
 435 838 435 838 419.5 853 c 128,-1,12
 404 868 404 868 404 890 c 128,-1,13
 404 912 404 912 419.5 927.5 c 128,-1,14
 435 943 435 943 457 943 c 0,15,16
 478 943 478 943 493.5 927.5 c 128,-1,17
 509 912 509 912 509 890 c 128,-1,18
 509 868 509 868 493.5 853 c 128,-1,19
 478 838 478 838 457 838 c 0,10,11
354 -11 m 0,20,21
 232 -11 232 -11 152 68 c 128,-1,22
 72 147 72 147 72 278 c 2,23,-1
 72 730 l 1,24,-1
 175 730 l 1,25,-1
 175 279 l 2,26,27
 175 190 175 190 224.5 141.5 c 128,-1,28
 274 93 274 93 352 93 c 128,-1,29
 430 93 430 93 481.5 141.5 c 128,-1,30
 533 190 533 190 533 279 c 2,31,-1
 533 730 l 1,32,-1
 637 730 l 1,33,-1
 637 278 l 2,34,35
 637 147 637 147 556 68 c 128,-1,36
 475 -11 475 -11 354 -11 c 0,20,21
EndSplineSet
Validated: 1
EndChar

StartChar: Yacute
Encoding: 158 221 158
Width: 648
GlyphClass: 2
Flags: W
LayerCount: 2
Fore
SplineSet
350 810 m 1,0,-1
 286 810 l 1,1,-1
 345 970 l 1,2,-1
 434 970 l 1,3,-1
 350 810 l 1,0,-1
375 0 m 1,4,-1
 272 0 l 1,5,-1
 272 311 l 1,6,-1
 13 730 l 1,7,-1
 131 730 l 1,8,-1
 324 423 l 1,9,-1
 517 730 l 1,10,-1
 635 730 l 1,11,-1
 375 310 l 1,12,-1
 375 0 l 1,4,-1
EndSplineSet
Validated: 1
EndChar

StartChar: Thorn
Encoding: 159 222 159
Width: 649
GlyphClass: 2
Flags: W
LayerCount: 2
Fore
SplineSet
185 0 m 1,0,-1
 82 0 l 1,1,-1
 82 730 l 1,2,-1
 185 730 l 1,3,-1
 185 595 l 1,4,-1
 359 595 l 2,5,6
 468 595 468 595 536.5 529 c 128,-1,7
 605 463 605 463 605 366 c 128,-1,8
 605 269 605 269 536.5 202 c 128,-1,9
 468 135 468 135 359 135 c 2,10,-1
 185 135 l 1,11,-1
 185 0 l 1,0,-1
185 494 m 1,12,-1
 185 237 l 1,13,-1
 357 237 l 2,14,15
 421 237 421 237 460 274.5 c 128,-1,16
 499 312 499 312 499 366 c 0,17,18
 499 419 499 419 460 456.5 c 128,-1,19
 421 494 421 494 357 494 c 2,20,-1
 185 494 l 1,12,-1
EndSplineSet
Validated: 1
EndChar

StartChar: germandbls
Encoding: 160 223 160
Width: 627
GlyphClass: 2
Flags: W
LayerCount: 2
Fore
SplineSet
372 -10 m 0,0,1
 282 -10 282 -10 237 18 c 1,2,-1
 237 108 l 1,3,4
 292 81 292 81 355 81 c 0,5,6
 409 81 409 81 450 114.5 c 128,-1,7
 491 148 491 148 491 211 c 0,8,9
 491 248 491 248 474 274.5 c 128,-1,10
 457 301 457 301 432.5 315.5 c 128,-1,11
 408 330 408 330 383.5 343 c 128,-1,12
 359 356 359 356 342 374 c 128,-1,13
 325 392 325 392 325 417 c 0,14,15
 325 440 325 440 339 460.5 c 128,-1,16
 353 481 353 481 370.5 494.5 c 128,-1,17
 388 508 388 508 402 533 c 128,-1,18
 416 558 416 558 416 588 c 0,19,20
 416 635 416 635 383 669.5 c 128,-1,21
 350 704 350 704 298 704 c 0,22,23
 253 704 253 704 216 673 c 128,-1,24
 179 642 179 642 179 572 c 2,25,-1
 179 0 l 1,26,-1
 85 0 l 1,27,-1
 85 587 l 2,28,29
 85 680 85 680 146 735 c 128,-1,30
 207 790 207 790 298 790 c 0,31,32
 390 790 390 790 452 730.5 c 128,-1,33
 514 671 514 671 514 589 c 0,34,35
 514 553 514 553 499.5 523 c 128,-1,36
 485 493 485 493 468 477.5 c 128,-1,37
 451 462 451 462 436.5 447 c 128,-1,38
 422 432 422 432 422 423 c 0,39,40
 422 413 422 413 439 401 c 128,-1,41
 456 389 456 389 480.5 374.5 c 128,-1,42
 505 360 505 360 529.5 339 c 128,-1,43
 554 318 554 318 571 282 c 128,-1,44
 588 246 588 246 588 199 c 0,45,46
 588 110 588 110 527.5 50 c 128,-1,47
 467 -10 467 -10 372 -10 c 0,0,1
EndSplineSet
Validated: 1
EndChar

StartChar: agrave
Encoding: 161 224 161
Width: 678
GlyphClass: 2
Flags: W
LayerCount: 2
Fore
SplineSet
379 640 m 1,0,-1
 315 640 l 1,1,-1
 231 800 l 1,2,-1
 321 800 l 1,3,-1
 379 640 l 1,0,-1
307 -7 m 0,4,5
 196 -7 196 -7 117.5 76 c 128,-1,6
 39 159 39 159 39 275 c 0,7,8
 39 392 39 392 117.5 475 c 128,-1,9
 196 558 196 558 307 558 c 0,10,11
 373 558 373 558 429.5 523 c 128,-1,12
 486 488 486 488 512 434 c 1,13,-1
 517 550 l 1,14,-1
 607 550 l 1,15,-1
 607 0 l 1,16,-1
 517 0 l 1,17,-1
 512 115 l 1,18,19
 486 62 486 62 429.5 27.5 c 128,-1,20
 373 -7 373 -7 307 -7 c 0,4,5
323 90 m 128,-1,22
 400 90 400 90 454.5 144 c 128,-1,23
 509 198 509 198 509 275 c 128,-1,24
 509 352 509 352 454.5 407 c 128,-1,25
 400 462 400 462 323 462 c 0,26,27
 247 462 247 462 192.5 407 c 128,-1,28
 138 352 138 352 138 275 c 128,-1,29
 138 198 138 198 192 144 c 128,-1,21
 246 90 246 90 323 90 c 128,-1,22
EndSplineSet
Validated: 1
Substitution2: "'ss02' Style Set 2 lookup 28 subtable" agrave.ss02
Substitution2: "'ss01' Style Set 1 lookup 27 subtable" agrave.ss01
Substitution2: "'salt' Stylistic Alternatives lookup 26 subtable" agrave.ss01
AlternateSubs2: "'aalt' Access All Alternates lookup 1 subtable" agrave.ss01 agrave.ss02
EndChar

StartChar: aacute
Encoding: 162 225 162
Width: 678
GlyphClass: 2
Flags: W
LayerCount: 2
Fore
SplineSet
348 640 m 1,0,-1
 284 640 l 1,1,-1
 343 800 l 1,2,-1
 432 800 l 1,3,-1
 348 640 l 1,0,-1
307 -7 m 0,4,5
 196 -7 196 -7 117.5 76 c 128,-1,6
 39 159 39 159 39 275 c 0,7,8
 39 392 39 392 117.5 475 c 128,-1,9
 196 558 196 558 307 558 c 0,10,11
 373 558 373 558 429.5 523 c 128,-1,12
 486 488 486 488 512 434 c 1,13,-1
 517 550 l 1,14,-1
 607 550 l 1,15,-1
 607 0 l 1,16,-1
 517 0 l 1,17,-1
 512 115 l 1,18,19
 486 62 486 62 429.5 27.5 c 128,-1,20
 373 -7 373 -7 307 -7 c 0,4,5
323 90 m 128,-1,22
 400 90 400 90 454.5 144 c 128,-1,23
 509 198 509 198 509 275 c 128,-1,24
 509 352 509 352 454.5 407 c 128,-1,25
 400 462 400 462 323 462 c 0,26,27
 247 462 247 462 192.5 407 c 128,-1,28
 138 352 138 352 138 275 c 128,-1,29
 138 198 138 198 192 144 c 128,-1,21
 246 90 246 90 323 90 c 128,-1,22
EndSplineSet
Validated: 1
Substitution2: "'ss02' Style Set 2 lookup 28 subtable" aacute.ss02
Substitution2: "'ss01' Style Set 1 lookup 27 subtable" aacute.ss01
Substitution2: "'salt' Stylistic Alternatives lookup 26 subtable" aacute.ss01
AlternateSubs2: "'aalt' Access All Alternates lookup 1 subtable" aacute.ss01 aacute.ss02
EndChar

StartChar: acircumflex
Encoding: 163 226 163
Width: 678
GlyphClass: 2
Flags: W
LayerCount: 2
Fore
SplineSet
270 657 m 1,0,-1
 187 657 l 1,1,-1
 293 784 l 1,2,-1
 379 784 l 1,3,-1
 485 657 l 1,4,-1
 402 657 l 1,5,-1
 336 733 l 1,6,-1
 270 657 l 1,0,-1
307 -7 m 0,7,8
 196 -7 196 -7 117.5 76 c 128,-1,9
 39 159 39 159 39 275 c 0,10,11
 39 392 39 392 117.5 475 c 128,-1,12
 196 558 196 558 307 558 c 0,13,14
 373 558 373 558 429.5 523 c 128,-1,15
 486 488 486 488 512 434 c 1,16,-1
 517 550 l 1,17,-1
 607 550 l 1,18,-1
 607 0 l 1,19,-1
 517 0 l 1,20,-1
 512 115 l 1,21,22
 486 62 486 62 429.5 27.5 c 128,-1,23
 373 -7 373 -7 307 -7 c 0,7,8
323 90 m 128,-1,25
 400 90 400 90 454.5 144 c 128,-1,26
 509 198 509 198 509 275 c 128,-1,27
 509 352 509 352 454.5 407 c 128,-1,28
 400 462 400 462 323 462 c 0,29,30
 247 462 247 462 192.5 407 c 128,-1,31
 138 352 138 352 138 275 c 128,-1,32
 138 198 138 198 192 144 c 128,-1,24
 246 90 246 90 323 90 c 128,-1,25
EndSplineSet
Validated: 1
Substitution2: "'ss02' Style Set 2 lookup 28 subtable" acircumflex.ss02
Substitution2: "'ss01' Style Set 1 lookup 27 subtable" acircumflex.ss01
Substitution2: "'salt' Stylistic Alternatives lookup 26 subtable" acircumflex.ss01
AlternateSubs2: "'aalt' Access All Alternates lookup 1 subtable" acircumflex.ss01 acircumflex.ss02
EndChar

StartChar: atilde
Encoding: 164 227 164
Width: 678
GlyphClass: 2
Flags: W
LayerCount: 2
Fore
SplineSet
410 657 m 0,0,1
 387 656 387 656 366 666.5 c 128,-1,2
 345 677 345 677 333 690.5 c 128,-1,3
 321 704 321 704 307 715 c 128,-1,4
 293 726 293 726 281 725 c 0,5,6
 252 723 252 723 252 668 c 1,7,-1
 186 668 l 1,8,9
 186 719 186 719 209 752 c 128,-1,10
 232 785 232 785 272 786 c 0,11,12
 302 787 302 787 326 769.5 c 128,-1,13
 350 752 350 752 367.5 734 c 128,-1,14
 385 716 385 716 400 717 c 0,15,16
 427 719 427 719 427 774 c 1,17,-1
 493 774 l 1,18,19
 493 721 493 721 471 689.5 c 128,-1,20
 449 658 449 658 410 657 c 0,0,1
307 -7 m 0,21,22
 196 -7 196 -7 117.5 76 c 128,-1,23
 39 159 39 159 39 275 c 0,24,25
 39 392 39 392 117.5 475 c 128,-1,26
 196 558 196 558 307 558 c 0,27,28
 373 558 373 558 429.5 523 c 128,-1,29
 486 488 486 488 512 434 c 1,30,-1
 517 550 l 1,31,-1
 607 550 l 1,32,-1
 607 0 l 1,33,-1
 517 0 l 1,34,-1
 512 115 l 1,35,36
 486 62 486 62 429.5 27.5 c 128,-1,37
 373 -7 373 -7 307 -7 c 0,21,22
323 90 m 128,-1,39
 400 90 400 90 454.5 144 c 128,-1,40
 509 198 509 198 509 275 c 128,-1,41
 509 352 509 352 454.5 407 c 128,-1,42
 400 462 400 462 323 462 c 0,43,44
 247 462 247 462 192.5 407 c 128,-1,45
 138 352 138 352 138 275 c 128,-1,46
 138 198 138 198 192 144 c 128,-1,38
 246 90 246 90 323 90 c 128,-1,39
EndSplineSet
Validated: 33
Substitution2: "'ss02' Style Set 2 lookup 28 subtable" atilde.ss02
Substitution2: "'ss01' Style Set 1 lookup 27 subtable" atilde.ss01
Substitution2: "'salt' Stylistic Alternatives lookup 26 subtable" atilde.ss01
AlternateSubs2: "'aalt' Access All Alternates lookup 1 subtable" atilde.ss01 atilde.ss02
EndChar

StartChar: adieresis
Encoding: 165 228 165
Width: 678
GlyphClass: 2
Flags: W
LayerCount: 2
Fore
SplineSet
237 668 m 0,0,1
 215 668 215 668 200 683 c 128,-1,2
 185 698 185 698 185 720 c 128,-1,3
 185 742 185 742 200 757.5 c 128,-1,4
 215 773 215 773 237 773 c 0,5,6
 258 773 258 773 273.5 757.5 c 128,-1,7
 289 742 289 742 289 720 c 128,-1,8
 289 698 289 698 273.5 683 c 128,-1,9
 258 668 258 668 237 668 c 0,0,1
432 668 m 0,10,11
 410 668 410 668 394.5 683 c 128,-1,12
 379 698 379 698 379 720 c 128,-1,13
 379 742 379 742 394.5 757.5 c 128,-1,14
 410 773 410 773 432 773 c 0,15,16
 453 773 453 773 468 757.5 c 128,-1,17
 483 742 483 742 483 720 c 128,-1,18
 483 698 483 698 468 683 c 128,-1,19
 453 668 453 668 432 668 c 0,10,11
307 -7 m 0,20,21
 196 -7 196 -7 117.5 76 c 128,-1,22
 39 159 39 159 39 275 c 0,23,24
 39 392 39 392 117.5 475 c 128,-1,25
 196 558 196 558 307 558 c 0,26,27
 373 558 373 558 429.5 523 c 128,-1,28
 486 488 486 488 512 434 c 1,29,-1
 517 550 l 1,30,-1
 607 550 l 1,31,-1
 607 0 l 1,32,-1
 517 0 l 1,33,-1
 512 115 l 1,34,35
 486 62 486 62 429.5 27.5 c 128,-1,36
 373 -7 373 -7 307 -7 c 0,20,21
323 90 m 128,-1,38
 400 90 400 90 454.5 144 c 128,-1,39
 509 198 509 198 509 275 c 128,-1,40
 509 352 509 352 454.5 407 c 128,-1,41
 400 462 400 462 323 462 c 0,42,43
 247 462 247 462 192.5 407 c 128,-1,44
 138 352 138 352 138 275 c 128,-1,45
 138 198 138 198 192 144 c 128,-1,37
 246 90 246 90 323 90 c 128,-1,38
EndSplineSet
Validated: 1
Substitution2: "'ss02' Style Set 2 lookup 28 subtable" adieresis.ss02
Substitution2: "'ss01' Style Set 1 lookup 27 subtable" adieresis.ss01
Substitution2: "'salt' Stylistic Alternatives lookup 26 subtable" adieresis.ss01
AlternateSubs2: "'aalt' Access All Alternates lookup 1 subtable" adieresis.ss01 adieresis.ss02
EndChar

StartChar: aring
Encoding: 166 229 166
Width: 678
GlyphClass: 2
Flags: W
LayerCount: 2
Fore
SplineSet
325 609 m 128,-1,1
 278 609 278 609 244 641 c 128,-1,2
 210 673 210 673 210 720 c 0,3,4
 210 768 210 768 244 800 c 128,-1,5
 278 832 278 832 325 832 c 0,6,7
 373 832 373 832 407 800 c 128,-1,8
 441 768 441 768 441 720 c 0,9,10
 441 673 441 673 406.5 641 c 128,-1,0
 372 609 372 609 325 609 c 128,-1,1
325 667 m 0,11,12
 348 667 348 667 363 682.5 c 128,-1,13
 378 698 378 698 378 720 c 0,14,15
 378 743 378 743 362.5 759 c 128,-1,16
 347 775 347 775 325 775 c 128,-1,17
 303 775 303 775 288 759 c 128,-1,18
 273 743 273 743 273 720 c 128,-1,19
 273 697 273 697 288 682 c 128,-1,20
 303 667 303 667 325 667 c 0,11,12
307 -7 m 0,21,22
 196 -7 196 -7 117.5 76 c 128,-1,23
 39 159 39 159 39 275 c 0,24,25
 39 392 39 392 117.5 475 c 128,-1,26
 196 558 196 558 307 558 c 0,27,28
 373 558 373 558 429.5 523 c 128,-1,29
 486 488 486 488 512 434 c 1,30,-1
 517 550 l 1,31,-1
 607 550 l 1,32,-1
 607 0 l 1,33,-1
 517 0 l 1,34,-1
 512 115 l 1,35,36
 486 62 486 62 429.5 27.5 c 128,-1,37
 373 -7 373 -7 307 -7 c 0,21,22
323 90 m 128,-1,39
 400 90 400 90 454.5 144 c 128,-1,40
 509 198 509 198 509 275 c 128,-1,41
 509 352 509 352 454.5 407 c 128,-1,42
 400 462 400 462 323 462 c 0,43,44
 247 462 247 462 192.5 407 c 128,-1,45
 138 352 138 352 138 275 c 128,-1,46
 138 198 138 198 192 144 c 128,-1,38
 246 90 246 90 323 90 c 128,-1,39
EndSplineSet
Validated: 1
Substitution2: "'ss02' Style Set 2 lookup 28 subtable" aring.ss02
Substitution2: "'ss01' Style Set 1 lookup 27 subtable" aring.ss01
Substitution2: "'salt' Stylistic Alternatives lookup 26 subtable" aring.ss01
AlternateSubs2: "'aalt' Access All Alternates lookup 1 subtable" aring.ss01 aring.ss02
EndChar

StartChar: ae
Encoding: 167 230 167
Width: 1005
GlyphClass: 2
Flags: W
LayerCount: 2
Fore
SplineSet
258 -10 m 0,0,1
 162 -10 162 -10 102.5 38 c 128,-1,2
 43 86 43 86 43 162 c 0,3,4
 43 239 43 239 100.5 287 c 128,-1,5
 158 335 158 335 260 335 c 2,6,-1
 431 335 l 1,7,8
 430 398 430 398 389.5 436 c 128,-1,9
 349 474 349 474 279 474 c 0,10,11
 183 474 183 474 122 419 c 1,12,-1
 62 471 l 1,13,14
 150 559 150 559 292 559 c 0,15,16
 362 559 362 559 417.5 527 c 128,-1,17
 473 495 473 495 498 438 c 1,18,19
 531 495 531 495 588.5 527 c 128,-1,20
 646 559 646 559 712 559 c 0,21,22
 815 559 815 559 888.5 486.5 c 128,-1,23
 962 414 962 414 962 307 c 0,24,25
 962 272 962 272 958 253 c 1,26,-1
 539 253 l 1,27,28
 540 172 540 172 591.5 124.5 c 128,-1,29
 643 77 643 77 716 77 c 0,30,31
 817 77 817 77 872 148 c 1,32,-1
 942 103 l 1,33,34
 904 51 904 51 843 20.5 c 128,-1,35
 782 -10 782 -10 716 -10 c 0,36,37
 639 -10 639 -10 578.5 28 c 128,-1,38
 518 66 518 66 486 129 c 1,39,40
 458 63 458 63 397.5 26.5 c 128,-1,41
 337 -10 337 -10 258 -10 c 0,0,1
540 335 m 1,42,-1
 866 335 l 1,43,44
 862 392 862 392 817.5 429.5 c 128,-1,45
 773 467 773 467 711 467 c 0,46,47
 644 467 644 467 597.5 427.5 c 128,-1,48
 551 388 551 388 540 335 c 1,42,-1
267 81 m 0,49,50
 345 81 345 81 388 125.5 c 128,-1,51
 431 170 431 170 431 231 c 2,52,-1
 431 253 l 1,53,-1
 272 253 l 2,54,55
 213 253 213 253 178.5 230 c 128,-1,56
 144 207 144 207 144 168 c 0,57,58
 144 128 144 128 178 104.5 c 128,-1,59
 212 81 212 81 267 81 c 0,49,50
EndSplineSet
Validated: 1
EndChar

StartChar: ccedilla
Encoding: 168 231 168
Width: 591
GlyphClass: 2
Flags: W
LayerCount: 2
Fore
SplineSet
309 -220 m 0,0,1
 248 -220 248 -220 216 -196 c 1,2,-1
 239 -141 l 1,3,4
 262 -159 262 -159 303 -159 c 0,5,6
 353 -159 353 -159 353 -124 c 0,7,8
 353 -87 353 -87 294 -87 c 2,9,-1
 258 -87 l 1,10,-1
 283 -4 l 1,11,12
 179 10 179 10 109 89.5 c 128,-1,13
 39 169 39 169 39 276 c 0,14,15
 39 392 39 392 121.5 474.5 c 128,-1,16
 204 557 204 557 321 557 c 0,17,18
 391 557 391 557 451.5 525 c 128,-1,19
 512 493 512 493 552 438 c 1,20,-1
 471 384 l 1,21,22
 415 458 415 458 321 458 c 0,23,24
 245 458 245 458 191.5 404.5 c 128,-1,25
 138 351 138 351 138 276 c 0,26,27
 138 199 138 199 191.5 145.5 c 128,-1,28
 245 92 245 92 321 92 c 0,29,30
 368 92 368 92 408 113 c 128,-1,31
 448 134 448 134 473 171 c 1,32,-1
 554 117 l 1,33,34
 520 66 520 66 466.5 33.5 c 128,-1,35
 413 1 413 1 349 -6 c 1,36,-1
 336 -47 l 1,37,38
 376 -52 376 -52 397 -74 c 128,-1,39
 418 -96 418 -96 418 -128 c 0,40,41
 418 -167 418 -167 387 -193.5 c 128,-1,42
 356 -220 356 -220 309 -220 c 0,0,1
EndSplineSet
Validated: 1
EndChar

StartChar: egrave
Encoding: 169 232 169
Width: 635
GlyphClass: 2
Flags: W
LayerCount: 2
Fore
SplineSet
356 640 m 1,0,-1
 292 640 l 1,1,-1
 208 800 l 1,2,-1
 297 800 l 1,3,-1
 356 640 l 1,0,-1
331 -8 m 0,4,5
 207 -8 207 -8 123 75 c 128,-1,6
 39 158 39 158 39 276 c 0,7,8
 39 392 39 392 121 474.5 c 128,-1,9
 203 557 203 557 318 557 c 0,10,11
 437 557 437 557 517 475 c 128,-1,12
 597 393 597 393 597 276 c 0,13,14
 597 272 597 272 594 230 c 1,15,-1
 144 230 l 1,16,17
 155 167 155 167 207.5 125.5 c 128,-1,18
 260 84 260 84 331 84 c 0,19,20
 430 84 430 84 488 155 c 1,21,-1
 567 106 l 1,22,23
 528 54 528 54 464 23 c 128,-1,24
 400 -8 400 -8 331 -8 c 0,4,5
143 310 m 1,25,-1
 496 310 l 1,26,27
 492 375 492 375 442.5 420.5 c 128,-1,28
 393 466 393 466 319 466 c 0,29,30
 247 466 247 466 197.5 420.5 c 128,-1,31
 148 375 148 375 143 310 c 1,25,-1
EndSplineSet
Validated: 1
EndChar

StartChar: eacute
Encoding: 170 233 170
Width: 635
GlyphClass: 2
Flags: W
LayerCount: 2
Fore
SplineSet
342 640 m 1,0,-1
 278 640 l 1,1,-1
 337 800 l 1,2,-1
 426 800 l 1,3,-1
 342 640 l 1,0,-1
331 -8 m 0,4,5
 207 -8 207 -8 123 75 c 128,-1,6
 39 158 39 158 39 276 c 0,7,8
 39 392 39 392 121 474.5 c 128,-1,9
 203 557 203 557 318 557 c 0,10,11
 437 557 437 557 517 475 c 128,-1,12
 597 393 597 393 597 276 c 0,13,14
 597 272 597 272 594 230 c 1,15,-1
 144 230 l 1,16,17
 155 167 155 167 207.5 125.5 c 128,-1,18
 260 84 260 84 331 84 c 0,19,20
 430 84 430 84 488 155 c 1,21,-1
 567 106 l 1,22,23
 528 54 528 54 464 23 c 128,-1,24
 400 -8 400 -8 331 -8 c 0,4,5
143 310 m 1,25,-1
 496 310 l 1,26,27
 492 375 492 375 442.5 420.5 c 128,-1,28
 393 466 393 466 319 466 c 0,29,30
 247 466 247 466 197.5 420.5 c 128,-1,31
 148 375 148 375 143 310 c 1,25,-1
EndSplineSet
Validated: 1
EndChar

StartChar: ecircumflex
Encoding: 171 234 171
Width: 635
GlyphClass: 2
Flags: W
LayerCount: 2
Fore
SplineSet
256 657 m 1,0,-1
 173 657 l 1,1,-1
 279 784 l 1,2,-1
 365 784 l 1,3,-1
 471 657 l 1,4,-1
 388 657 l 1,5,-1
 322 733 l 1,6,-1
 256 657 l 1,0,-1
331 -8 m 0,7,8
 207 -8 207 -8 123 75 c 128,-1,9
 39 158 39 158 39 276 c 0,10,11
 39 392 39 392 121 474.5 c 128,-1,12
 203 557 203 557 318 557 c 0,13,14
 437 557 437 557 517 475 c 128,-1,15
 597 393 597 393 597 276 c 0,16,17
 597 272 597 272 594 230 c 1,18,-1
 144 230 l 1,19,20
 155 167 155 167 207.5 125.5 c 128,-1,21
 260 84 260 84 331 84 c 0,22,23
 430 84 430 84 488 155 c 1,24,-1
 567 106 l 1,25,26
 528 54 528 54 464 23 c 128,-1,27
 400 -8 400 -8 331 -8 c 0,7,8
143 310 m 1,28,-1
 496 310 l 1,29,30
 492 375 492 375 442.5 420.5 c 128,-1,31
 393 466 393 466 319 466 c 0,32,33
 247 466 247 466 197.5 420.5 c 128,-1,34
 148 375 148 375 143 310 c 1,28,-1
EndSplineSet
Validated: 1
EndChar

StartChar: edieresis
Encoding: 172 235 172
Width: 635
GlyphClass: 2
Flags: W
LayerCount: 2
Fore
SplineSet
220 668 m 128,-1,1
 198 668 198 668 183 683 c 128,-1,2
 168 698 168 698 168 720 c 128,-1,3
 168 742 168 742 183 757.5 c 128,-1,4
 198 773 198 773 220 773 c 128,-1,5
 242 773 242 773 257 757.5 c 128,-1,6
 272 742 272 742 272 720 c 128,-1,7
 272 698 272 698 257 683 c 128,-1,0
 242 668 242 668 220 668 c 128,-1,1
415 668 m 0,8,9
 393 668 393 668 377.5 683 c 128,-1,10
 362 698 362 698 362 720 c 128,-1,11
 362 742 362 742 377.5 757.5 c 128,-1,12
 393 773 393 773 415 773 c 0,13,14
 436 773 436 773 451.5 757.5 c 128,-1,15
 467 742 467 742 467 720 c 128,-1,16
 467 698 467 698 451.5 683 c 128,-1,17
 436 668 436 668 415 668 c 0,8,9
331 -8 m 0,18,19
 207 -8 207 -8 123 75 c 128,-1,20
 39 158 39 158 39 276 c 0,21,22
 39 392 39 392 121 474.5 c 128,-1,23
 203 557 203 557 318 557 c 0,24,25
 437 557 437 557 517 475 c 128,-1,26
 597 393 597 393 597 276 c 0,27,28
 597 272 597 272 594 230 c 1,29,-1
 144 230 l 1,30,31
 155 167 155 167 207.5 125.5 c 128,-1,32
 260 84 260 84 331 84 c 0,33,34
 430 84 430 84 488 155 c 1,35,-1
 567 106 l 1,36,37
 528 54 528 54 464 23 c 128,-1,38
 400 -8 400 -8 331 -8 c 0,18,19
143 310 m 1,39,-1
 496 310 l 1,40,41
 492 375 492 375 442.5 420.5 c 128,-1,42
 393 466 393 466 319 466 c 0,43,44
 247 466 247 466 197.5 420.5 c 128,-1,45
 148 375 148 375 143 310 c 1,39,-1
EndSplineSet
Validated: 1
EndChar

StartChar: igrave
Encoding: 173 236 173
Width: 240
GlyphClass: 2
Flags: W
LayerCount: 2
Fore
SplineSet
164 640 m 1,0,-1
 100 640 l 1,1,-1
 16 800 l 1,2,-1
 105 800 l 1,3,-1
 164 640 l 1,0,-1
169 0 m 1,4,-1
 72 0 l 1,5,-1
 72 550 l 1,6,-1
 169 550 l 1,7,-1
 169 0 l 1,4,-1
EndSplineSet
Validated: 1
EndChar

StartChar: iacute
Encoding: 174 237 174
Width: 240
GlyphClass: 2
Flags: W
LayerCount: 2
Fore
SplineSet
151 640 m 1,0,-1
 87 640 l 1,1,-1
 146 800 l 1,2,-1
 235 800 l 1,3,-1
 151 640 l 1,0,-1
169 0 m 1,4,-1
 72 0 l 1,5,-1
 72 551 l 1,6,-1
 169 550 l 1,7,-1
 169 0 l 1,4,-1
EndSplineSet
Validated: 1
EndChar

StartChar: icircumflex
Encoding: 175 238 175
Width: 240
GlyphClass: 2
Flags: W
LayerCount: 2
Fore
SplineSet
54 657 m 1,0,-1
 -29 657 l 1,1,-1
 77 784 l 1,2,-1
 163 784 l 1,3,-1
 269 657 l 1,4,-1
 186 657 l 1,5,-1
 120 733 l 1,6,-1
 54 657 l 1,0,-1
169 0 m 1,7,-1
 72 0 l 1,8,-1
 72 550 l 1,9,-1
 169 550 l 1,10,-1
 169 0 l 1,7,-1
EndSplineSet
Validated: 1
EndChar

StartChar: idieresis
Encoding: 176 239 176
Width: 240
GlyphClass: 2
Flags: W
LayerCount: 2
Fore
SplineSet
40 673 m 0,0,1
 20 673 20 673 6.5 686.5 c 128,-1,2
 -7 700 -7 700 -7 720 c 128,-1,3
 -7 740 -7 740 6.5 753.5 c 128,-1,4
 20 767 20 767 40 767 c 0,5,6
 59 767 59 767 72.5 753.5 c 128,-1,7
 86 740 86 740 86 720 c 0,8,9
 86 701 86 701 72.5 687 c 128,-1,10
 59 673 59 673 40 673 c 0,0,1
202 673 m 0,11,12
 182 673 182 673 168.5 686.5 c 128,-1,13
 155 700 155 700 155 720 c 128,-1,14
 155 740 155 740 168.5 753.5 c 128,-1,15
 182 767 182 767 202 767 c 0,16,17
 221 767 221 767 234.5 753.5 c 128,-1,18
 248 740 248 740 248 720 c 0,19,20
 248 701 248 701 234.5 687 c 128,-1,21
 221 673 221 673 202 673 c 0,11,12
169 0 m 1,22,-1
 72 0 l 1,23,-1
 72 550 l 1,24,-1
 169 550 l 1,25,-1
 169 0 l 1,22,-1
EndSplineSet
Validated: 1
EndChar

StartChar: eth
Encoding: 177 240 177
Width: 559
GlyphClass: 2
Flags: W
LayerCount: 2
Fore
SplineSet
280 -11 m 0,0,1
 175 -11 175 -11 106.5 58 c 128,-1,2
 38 127 38 127 39 227 c 0,3,4
 40 325 40 325 109.5 390.5 c 128,-1,5
 179 456 179 456 280 456 c 0,6,7
 320 456 320 456 355 434.5 c 128,-1,8
 390 413 390 413 408 379 c 1,9,10
 390 499 390 499 311 583 c 1,11,-1
 131 487 l 1,12,-1
 104 538 l 1,13,-1
 264 624 l 1,14,15
 206 673 206 673 116 710 c 1,16,-1
 176 780 l 1,17,18
 278 741 278 741 354 672 c 1,19,-1
 461 728 l 1,20,-1
 488 676 l 1,21,-1
 397 628 l 1,22,23
 516 489 516 489 519 285 c 1,24,25
 526 150 526 150 457 69.5 c 128,-1,26
 388 -11 388 -11 280 -11 c 0,0,1
276 82 m 0,27,28
 333 82 333 82 373 123.5 c 128,-1,29
 413 165 413 165 413 223 c 0,30,31
 413 282 413 282 372.5 324 c 128,-1,32
 332 366 332 366 276 366 c 0,33,34
 215 366 215 366 173.5 324.5 c 128,-1,35
 132 283 132 283 132 223 c 0,36,37
 132 165 132 165 174.5 123.5 c 128,-1,38
 217 82 217 82 276 82 c 0,27,28
EndSplineSet
Validated: 33
EndChar

StartChar: ntilde
Encoding: 178 241 178
Width: 591
GlyphClass: 2
Flags: W
LayerCount: 2
Fore
SplineSet
359 657 m 0,0,1
 335 655 335 655 314 666 c 128,-1,2
 293 677 293 677 281 690.5 c 128,-1,3
 269 704 269 704 255 715 c 128,-1,4
 241 726 241 726 230 725 c 0,5,6
 200 723 200 723 200 668 c 1,7,-1
 135 668 l 1,8,9
 135 719 135 719 158 752 c 128,-1,10
 181 785 181 785 220 786 c 0,11,12
 250 787 250 787 274 769.5 c 128,-1,13
 298 752 298 752 316 734 c 128,-1,14
 334 716 334 716 349 717 c 0,15,16
 375 719 375 719 375 774 c 1,17,-1
 441 774 l 1,18,19
 441 721 441 721 419.5 689.5 c 128,-1,20
 398 658 398 658 359 657 c 0,0,1
147 0 m 1,21,-1
 49 0 l 1,22,-1
 49 550 l 1,23,-1
 139 550 l 1,24,-1
 144 453 l 1,25,26
 168 500 168 500 213 529 c 128,-1,27
 258 558 258 558 318 558 c 0,28,29
 419 558 419 558 480.5 487.5 c 128,-1,30
 542 417 542 417 542 280 c 2,31,-1
 542 0 l 1,32,-1
 445 0 l 1,33,-1
 445 280 l 2,34,35
 445 369 445 369 402.5 415.5 c 128,-1,36
 360 462 360 462 296 462 c 0,37,38
 231 462 231 462 189 416 c 128,-1,39
 147 370 147 370 147 280 c 2,40,-1
 147 0 l 1,21,-1
EndSplineSet
Validated: 33
Substitution2: "'ss01' Style Set 1 lookup 27 subtable" ntilde.ss01
Substitution2: "'salt' Stylistic Alternatives lookup 26 subtable" ntilde.ss01
Substitution2: "'aalt' Access All Alternates lookup 0 subtable" ntilde.ss01
EndChar

StartChar: ograve
Encoding: 179 242 179
Width: 642
GlyphClass: 2
Flags: W
LayerCount: 2
Fore
SplineSet
360 640 m 1,0,-1
 296 640 l 1,1,-1
 212 800 l 1,2,-1
 301 800 l 1,3,-1
 360 640 l 1,0,-1
321 -8 m 0,4,5
 204 -8 204 -8 121.5 75.5 c 128,-1,6
 39 159 39 159 39 276 c 0,7,8
 39 392 39 392 121.5 474.5 c 128,-1,9
 204 557 204 557 321 557 c 0,10,11
 437 557 437 557 520 474.5 c 128,-1,12
 603 392 603 392 603 276 c 0,13,14
 603 159 603 159 520 75.5 c 128,-1,15
 437 -8 437 -8 321 -8 c 0,4,5
321 92 m 128,-1,17
 397 92 397 92 450.5 146 c 128,-1,18
 504 200 504 200 504 276 c 0,19,20
 504 351 504 351 450.5 404.5 c 128,-1,21
 397 458 397 458 321 458 c 128,-1,22
 245 458 245 458 191.5 404.5 c 128,-1,23
 138 351 138 351 138 276 c 0,24,25
 138 199 138 199 191.5 145.5 c 128,-1,16
 245 92 245 92 321 92 c 128,-1,17
EndSplineSet
Validated: 1
EndChar

StartChar: oacute
Encoding: 180 243 180
Width: 642
GlyphClass: 2
Flags: W
LayerCount: 2
Fore
SplineSet
349 640 m 1,0,-1
 285 640 l 1,1,-1
 344 800 l 1,2,-1
 433 800 l 1,3,-1
 349 640 l 1,0,-1
321 -8 m 0,4,5
 204 -8 204 -8 121.5 75.5 c 128,-1,6
 39 159 39 159 39 276 c 0,7,8
 39 392 39 392 121.5 474.5 c 128,-1,9
 204 557 204 557 321 557 c 0,10,11
 437 557 437 557 520 474.5 c 128,-1,12
 603 392 603 392 603 276 c 0,13,14
 603 159 603 159 520 75.5 c 128,-1,15
 437 -8 437 -8 321 -8 c 0,4,5
321 92 m 128,-1,17
 397 92 397 92 450.5 146 c 128,-1,18
 504 200 504 200 504 276 c 0,19,20
 504 351 504 351 450.5 404.5 c 128,-1,21
 397 458 397 458 321 458 c 128,-1,22
 245 458 245 458 191.5 404.5 c 128,-1,23
 138 351 138 351 138 276 c 0,24,25
 138 199 138 199 191.5 145.5 c 128,-1,16
 245 92 245 92 321 92 c 128,-1,17
EndSplineSet
Validated: 1
EndChar

StartChar: ocircumflex
Encoding: 181 244 181
Width: 642
GlyphClass: 2
Flags: W
LayerCount: 2
Fore
SplineSet
258 657 m 1,0,-1
 175 657 l 1,1,-1
 281 784 l 1,2,-1
 367 784 l 1,3,-1
 473 657 l 1,4,-1
 390 657 l 1,5,-1
 324 733 l 1,6,-1
 258 657 l 1,0,-1
321 -8 m 0,7,8
 204 -8 204 -8 121.5 75.5 c 128,-1,9
 39 159 39 159 39 276 c 0,10,11
 39 392 39 392 121.5 474.5 c 128,-1,12
 204 557 204 557 321 557 c 0,13,14
 437 557 437 557 520 474.5 c 128,-1,15
 603 392 603 392 603 276 c 0,16,17
 603 159 603 159 520 75.5 c 128,-1,18
 437 -8 437 -8 321 -8 c 0,7,8
321 92 m 128,-1,20
 397 92 397 92 450.5 146 c 128,-1,21
 504 200 504 200 504 276 c 0,22,23
 504 351 504 351 450.5 404.5 c 128,-1,24
 397 458 397 458 321 458 c 128,-1,25
 245 458 245 458 191.5 404.5 c 128,-1,26
 138 351 138 351 138 276 c 0,27,28
 138 199 138 199 191.5 145.5 c 128,-1,19
 245 92 245 92 321 92 c 128,-1,20
EndSplineSet
Validated: 1
EndChar

StartChar: otilde
Encoding: 182 245 182
Width: 642
GlyphClass: 2
Flags: W
LayerCount: 2
Fore
SplineSet
392 657 m 0,0,1
 369 655 369 655 348 666 c 128,-1,2
 327 677 327 677 315 690.5 c 128,-1,3
 303 704 303 704 289 715 c 128,-1,4
 275 726 275 726 263 725 c 0,5,6
 234 723 234 723 234 668 c 1,7,-1
 168 668 l 1,8,9
 168 719 168 719 191 752 c 128,-1,10
 214 785 214 785 254 786 c 0,11,12
 284 787 284 787 308 769 c 128,-1,13
 332 751 332 751 349.5 733.5 c 128,-1,14
 367 716 367 716 382 717 c 0,15,16
 409 719 409 719 409 774 c 1,17,-1
 475 774 l 1,18,19
 475 721 475 721 453 689.5 c 128,-1,20
 431 658 431 658 392 657 c 0,0,1
321 -8 m 0,21,22
 204 -8 204 -8 121.5 75.5 c 128,-1,23
 39 159 39 159 39 276 c 0,24,25
 39 392 39 392 121.5 474.5 c 128,-1,26
 204 557 204 557 321 557 c 0,27,28
 437 557 437 557 520 474.5 c 128,-1,29
 603 392 603 392 603 276 c 0,30,31
 603 159 603 159 520 75.5 c 128,-1,32
 437 -8 437 -8 321 -8 c 0,21,22
321 92 m 128,-1,34
 397 92 397 92 450.5 146 c 128,-1,35
 504 200 504 200 504 276 c 0,36,37
 504 351 504 351 450.5 404.5 c 128,-1,38
 397 458 397 458 321 458 c 128,-1,39
 245 458 245 458 191.5 404.5 c 128,-1,40
 138 351 138 351 138 276 c 0,41,42
 138 199 138 199 191.5 145.5 c 128,-1,33
 245 92 245 92 321 92 c 128,-1,34
EndSplineSet
Validated: 33
EndChar

StartChar: odieresis
Encoding: 183 246 183
Width: 642
GlyphClass: 2
Flags: W
LayerCount: 2
Fore
SplineSet
225 668 m 0,0,1
 203 668 203 668 187.5 683 c 128,-1,2
 172 698 172 698 172 720 c 128,-1,3
 172 742 172 742 187.5 757.5 c 128,-1,4
 203 773 203 773 225 773 c 0,5,6
 246 773 246 773 261.5 757.5 c 128,-1,7
 277 742 277 742 277 720 c 128,-1,8
 277 698 277 698 261.5 683 c 128,-1,9
 246 668 246 668 225 668 c 0,0,1
419 668 m 0,10,11
 397 668 397 668 382 683 c 128,-1,12
 367 698 367 698 367 720 c 128,-1,13
 367 742 367 742 382 757.5 c 128,-1,14
 397 773 397 773 419 773 c 0,15,16
 440 773 440 773 455.5 757.5 c 128,-1,17
 471 742 471 742 471 720 c 128,-1,18
 471 698 471 698 455.5 683 c 128,-1,19
 440 668 440 668 419 668 c 0,10,11
321 -8 m 0,20,21
 204 -8 204 -8 121.5 75.5 c 128,-1,22
 39 159 39 159 39 276 c 0,23,24
 39 392 39 392 121.5 474.5 c 128,-1,25
 204 557 204 557 321 557 c 0,26,27
 437 557 437 557 520 474.5 c 128,-1,28
 603 392 603 392 603 276 c 0,29,30
 603 159 603 159 520 75.5 c 128,-1,31
 437 -8 437 -8 321 -8 c 0,20,21
321 92 m 128,-1,33
 397 92 397 92 450.5 146 c 128,-1,34
 504 200 504 200 504 276 c 0,35,36
 504 351 504 351 450.5 404.5 c 128,-1,37
 397 458 397 458 321 458 c 128,-1,38
 245 458 245 458 191.5 404.5 c 128,-1,39
 138 351 138 351 138 276 c 0,40,41
 138 199 138 199 191.5 145.5 c 128,-1,32
 245 92 245 92 321 92 c 128,-1,33
EndSplineSet
Validated: 1
EndChar

StartChar: divide
Encoding: 184 247 184
Width: 533
GlyphClass: 2
Flags: W
LayerCount: 2
Fore
SplineSet
267 471 m 0,0,1
 242 471 242 471 224 488.5 c 128,-1,2
 206 506 206 506 206 531 c 128,-1,3
 206 556 206 556 224 574 c 128,-1,4
 242 592 242 592 267 592 c 0,5,6
 291 592 291 592 308.5 574 c 128,-1,7
 326 556 326 556 326 531 c 128,-1,8
 326 506 326 506 308.5 488.5 c 128,-1,9
 291 471 291 471 267 471 c 0,0,1
484 329 m 1,10,-1
 49 329 l 1,11,-1
 49 402 l 1,12,-1
 484 402 l 1,13,-1
 484 329 l 1,10,-1
267 140 m 0,14,15
 242 140 242 140 224 157.5 c 128,-1,16
 206 175 206 175 206 200 c 128,-1,17
 206 225 206 225 224 242.5 c 128,-1,18
 242 260 242 260 267 260 c 0,19,20
 291 260 291 260 308.5 242.5 c 128,-1,21
 326 225 326 225 326 200 c 128,-1,22
 326 175 326 175 308.5 157.5 c 128,-1,23
 291 140 291 140 267 140 c 0,14,15
EndSplineSet
Validated: 1
EndChar

StartChar: oslash
Encoding: 185 248 185
Width: 655
GlyphClass: 2
Flags: W
LayerCount: 2
Fore
SplineSet
328 -4 m 0,0,1
 229 -4 229 -4 152 57 c 1,2,-1
 89 -6 l 1,3,-1
 42 41 l 1,4,-1
 105 104 l 1,5,6
 44 181 44 181 44 281 c 0,7,8
 44 399 44 399 126.5 482 c 128,-1,9
 209 565 209 565 328 565 c 0,10,11
 426 565 426 565 505 502 c 1,12,-1
 568 566 l 1,13,-1
 614 519 l 1,14,-1
 551 456 l 1,15,16
 613 380 613 380 613 281 c 0,17,18
 613 163 613 163 529.5 79.5 c 128,-1,19
 446 -4 446 -4 328 -4 c 0,0,1
326 477 m 0,20,21
 244 477 244 477 188 420 c 128,-1,22
 132 363 132 363 132 282 c 0,23,24
 132 217 132 217 171 170 c 1,25,-1
 439 436 l 1,26,27
 390 477 390 477 326 477 c 0,20,21
326 84 m 0,28,29
 408 84 408 84 466 142 c 128,-1,30
 524 200 524 200 524 282 c 0,31,32
 524 343 524 343 485 390 c 1,33,-1
 218 123 l 1,34,35
 265 84 265 84 326 84 c 0,28,29
EndSplineSet
Validated: 1
EndChar

StartChar: ugrave
Encoding: 186 249 186
Width: 624
GlyphClass: 2
Flags: W
LayerCount: 2
Fore
SplineSet
347 640 m 1,0,-1
 283 640 l 1,1,-1
 199 800 l 1,2,-1
 288 800 l 1,3,-1
 347 640 l 1,0,-1
285 -8 m 0,4,5
 184 -8 184 -8 122 63 c 128,-1,6
 60 134 60 134 60 271 c 2,7,-1
 60 550 l 1,8,-1
 158 550 l 1,9,-1
 158 271 l 2,10,11
 158 181 158 181 200 135 c 128,-1,12
 242 89 242 89 307 89 c 0,13,14
 371 89 371 89 413.5 135 c 128,-1,15
 456 181 456 181 456 271 c 2,16,-1
 456 550 l 1,17,-1
 553 550 l 1,18,-1
 553 0 l 1,19,-1
 463 0 l 1,20,-1
 458 98 l 1,21,22
 434 51 434 51 389 21.5 c 128,-1,23
 344 -8 344 -8 285 -8 c 0,4,5
EndSplineSet
Validated: 1
Substitution2: "'ss01' Style Set 1 lookup 27 subtable" ugrave.ss01
Substitution2: "'salt' Stylistic Alternatives lookup 26 subtable" ugrave.ss01
Substitution2: "'aalt' Access All Alternates lookup 0 subtable" ugrave.ss01
EndChar

StartChar: uacute
Encoding: 187 250 187
Width: 624
GlyphClass: 2
Flags: W
LayerCount: 2
Fore
SplineSet
319 644 m 1,0,-1
 255 644 l 1,1,-1
 314 804 l 1,2,-1
 403 804 l 1,3,-1
 319 644 l 1,0,-1
285 -8 m 0,4,5
 184 -8 184 -8 122 63 c 128,-1,6
 60 134 60 134 60 271 c 2,7,-1
 60 550 l 1,8,-1
 158 550 l 1,9,-1
 158 271 l 2,10,11
 158 181 158 181 200 135 c 128,-1,12
 242 89 242 89 307 89 c 0,13,14
 371 89 371 89 413.5 135 c 128,-1,15
 456 181 456 181 456 271 c 2,16,-1
 456 550 l 1,17,-1
 553 550 l 1,18,-1
 553 0 l 1,19,-1
 463 0 l 1,20,-1
 458 98 l 1,21,22
 434 51 434 51 389 21.5 c 128,-1,23
 344 -8 344 -8 285 -8 c 0,4,5
EndSplineSet
Validated: 1
Substitution2: "'ss01' Style Set 1 lookup 27 subtable" uacute.ss01
Substitution2: "'salt' Stylistic Alternatives lookup 26 subtable" uacute.ss01
Substitution2: "'aalt' Access All Alternates lookup 0 subtable" uacute.ss01
EndChar

StartChar: ucircumflex
Encoding: 188 251 188
Width: 624
GlyphClass: 2
Flags: W
LayerCount: 2
Fore
SplineSet
241 657 m 1,0,-1
 158 657 l 1,1,-1
 264 784 l 1,2,-1
 350 784 l 1,3,-1
 456 657 l 1,4,-1
 373 657 l 1,5,-1
 307 733 l 1,6,-1
 241 657 l 1,0,-1
285 -8 m 0,7,8
 184 -8 184 -8 122 63 c 128,-1,9
 60 134 60 134 60 271 c 2,10,-1
 60 550 l 1,11,-1
 158 550 l 1,12,-1
 158 271 l 2,13,14
 158 181 158 181 200 135 c 128,-1,15
 242 89 242 89 307 89 c 0,16,17
 371 89 371 89 413.5 135 c 128,-1,18
 456 181 456 181 456 271 c 2,19,-1
 456 550 l 1,20,-1
 553 550 l 1,21,-1
 553 0 l 1,22,-1
 463 0 l 1,23,-1
 458 98 l 1,24,25
 434 51 434 51 389 21.5 c 128,-1,26
 344 -8 344 -8 285 -8 c 0,7,8
EndSplineSet
Validated: 1
Substitution2: "'ss01' Style Set 1 lookup 27 subtable" ucircumflex.ss01
Substitution2: "'salt' Stylistic Alternatives lookup 26 subtable" ucircumflex.ss01
Substitution2: "'aalt' Access All Alternates lookup 0 subtable" ucircumflex.ss01
EndChar

StartChar: udieresis
Encoding: 189 252 189
Width: 624
GlyphClass: 2
Flags: W
LayerCount: 2
Fore
SplineSet
210 668 m 0,0,1
 188 668 188 668 172.5 683 c 128,-1,2
 157 698 157 698 157 720 c 128,-1,3
 157 742 157 742 172.5 757.5 c 128,-1,4
 188 773 188 773 210 773 c 0,5,6
 231 773 231 773 246.5 757.5 c 128,-1,7
 262 742 262 742 262 720 c 128,-1,8
 262 698 262 698 246.5 683 c 128,-1,9
 231 668 231 668 210 668 c 0,0,1
404 668 m 128,-1,11
 382 668 382 668 367 683 c 128,-1,12
 352 698 352 698 352 720 c 128,-1,13
 352 742 352 742 367 757.5 c 128,-1,14
 382 773 382 773 404 773 c 128,-1,15
 426 773 426 773 441 757.5 c 128,-1,16
 456 742 456 742 456 720 c 128,-1,17
 456 698 456 698 441 683 c 128,-1,10
 426 668 426 668 404 668 c 128,-1,11
285 -8 m 0,18,19
 184 -8 184 -8 122 63 c 128,-1,20
 60 134 60 134 60 271 c 2,21,-1
 60 550 l 1,22,-1
 158 550 l 1,23,-1
 158 271 l 2,24,25
 158 181 158 181 200 135 c 128,-1,26
 242 89 242 89 307 89 c 0,27,28
 371 89 371 89 413.5 135 c 128,-1,29
 456 181 456 181 456 271 c 2,30,-1
 456 550 l 1,31,-1
 553 550 l 1,32,-1
 553 0 l 1,33,-1
 463 0 l 1,34,-1
 458 98 l 1,35,36
 434 51 434 51 389 21.5 c 128,-1,37
 344 -8 344 -8 285 -8 c 0,18,19
EndSplineSet
Validated: 1
Substitution2: "'ss01' Style Set 1 lookup 27 subtable" udieresis.ss01
Substitution2: "'salt' Stylistic Alternatives lookup 26 subtable" udieresis.ss01
Substitution2: "'aalt' Access All Alternates lookup 0 subtable" udieresis.ss01
EndChar

StartChar: yacute
Encoding: 190 253 190
Width: 564
GlyphClass: 2
Flags: W
LayerCount: 2
Fore
SplineSet
294 640 m 1,0,-1
 230 640 l 1,1,-1
 288 800 l 1,2,-1
 378 800 l 1,3,-1
 294 640 l 1,0,-1
114 -226 m 0,4,5
 61 -226 61 -226 13 -206 c 1,6,-1
 42 -119 l 1,7,8
 76 -133 76 -133 110 -133 c 0,9,10
 190 -133 190 -133 244 11 c 1,11,-1
 24 550 l 1,12,-1
 129 550 l 1,13,-1
 289 143 l 1,14,-1
 448 550 l 1,15,-1
 552 550 l 1,16,-1
 342 0 l 2,17,18
 296 -120 296 -120 244 -173 c 128,-1,19
 192 -226 192 -226 114 -226 c 0,4,5
EndSplineSet
Validated: 1
Substitution2: "'ss01' Style Set 1 lookup 27 subtable" yacute.ss01
Substitution2: "'salt' Stylistic Alternatives lookup 26 subtable" yacute.ss01
Substitution2: "'aalt' Access All Alternates lookup 0 subtable" yacute.ss01
EndChar

StartChar: thorn
Encoding: 191 254 191
Width: 687
GlyphClass: 2
Flags: W
LayerCount: 2
Fore
SplineSet
177 -220 m 1,0,-1
 79 -220 l 1,1,-1
 79 780 l 1,2,-1
 177 780 l 1,3,-1
 177 456 l 1,4,5
 207 503 207 503 258.5 531 c 128,-1,6
 310 559 310 559 371 559 c 0,7,8
 486 559 486 559 567.5 475.5 c 128,-1,9
 649 392 649 392 649 274 c 128,-1,10
 649 156 649 156 567.5 72 c 128,-1,11
 486 -12 486 -12 371 -12 c 0,12,13
 310 -12 310 -12 258.5 16.5 c 128,-1,14
 207 45 207 45 177 93 c 1,15,-1
 177 -220 l 1,0,-1
364 87 m 0,16,17
 441 87 441 87 496 142 c 128,-1,18
 551 197 551 197 551 274 c 128,-1,19
 551 351 551 351 496 406 c 128,-1,20
 441 461 441 461 364 461 c 0,21,22
 286 461 286 461 231.5 406 c 128,-1,23
 177 351 177 351 177 274 c 128,-1,24
 177 197 177 197 231.5 142 c 128,-1,25
 286 87 286 87 364 87 c 0,16,17
EndSplineSet
Validated: 1
EndChar

StartChar: ydieresis
Encoding: 192 255 192
Width: 564
GlyphClass: 2
Flags: W
LayerCount: 2
Fore
SplineSet
186 668 m 0,0,1
 164 668 164 668 148.5 683 c 128,-1,2
 133 698 133 698 133 720 c 128,-1,3
 133 742 133 742 148.5 757.5 c 128,-1,4
 164 773 164 773 186 773 c 0,5,6
 207 773 207 773 222.5 757.5 c 128,-1,7
 238 742 238 742 238 720 c 128,-1,8
 238 698 238 698 222.5 683 c 128,-1,9
 207 668 207 668 186 668 c 0,0,1
380 668 m 0,10,11
 358 668 358 668 343 683 c 128,-1,12
 328 698 328 698 328 720 c 128,-1,13
 328 742 328 742 343 757.5 c 128,-1,14
 358 773 358 773 380 773 c 0,15,16
 401 773 401 773 416.5 757.5 c 128,-1,17
 432 742 432 742 432 720 c 128,-1,18
 432 698 432 698 416.5 683 c 128,-1,19
 401 668 401 668 380 668 c 0,10,11
114 -226 m 0,20,21
 61 -226 61 -226 13 -206 c 1,22,-1
 42 -119 l 1,23,24
 76 -133 76 -133 110 -133 c 0,25,26
 153 -133 153 -133 182.5 -99.5 c 128,-1,27
 212 -66 212 -66 240 0 c 1,28,-1
 24 550 l 1,29,-1
 129 550 l 1,30,-1
 289 143 l 1,31,-1
 448 550 l 1,32,-1
 552 550 l 1,33,-1
 342 0 l 2,34,35
 296 -120 296 -120 244 -173 c 128,-1,36
 192 -226 192 -226 114 -226 c 0,20,21
EndSplineSet
Validated: 1
Substitution2: "'ss01' Style Set 1 lookup 27 subtable" ydieresis.ss01
Substitution2: "'salt' Stylistic Alternatives lookup 26 subtable" ydieresis.ss01
Substitution2: "'aalt' Access All Alternates lookup 0 subtable" ydieresis.ss01
EndChar

StartChar: Amacron
Encoding: 193 256 193
Width: 676
GlyphClass: 2
Flags: W
LayerCount: 2
Fore
SplineSet
521 850 m 1,0,-1
 156 850 l 1,1,-1
 156 931 l 1,2,-1
 521 931 l 1,3,-1
 521 850 l 1,0,-1
129 0 m 1,4,-1
 15 0 l 1,5,-1
 282 730 l 1,6,-1
 394 730 l 1,7,-1
 661 0 l 1,8,-1
 549 0 l 1,9,-1
 479 190 l 1,10,-1
 198 190 l 1,11,-1
 129 0 l 1,4,-1
338 591 m 1,12,-1
 228 287 l 1,13,-1
 449 287 l 1,14,-1
 338 591 l 1,12,-1
EndSplineSet
Validated: 1
Substitution2: "'ss02' Style Set 2 lookup 28 subtable" Amacron.ss02
Substitution2: "'aalt' Access All Alternates lookup 0 subtable" Amacron.ss02
EndChar

StartChar: amacron
Encoding: 194 257 194
Width: 678
GlyphClass: 2
Flags: W
LayerCount: 2
Fore
SplineSet
523 680 m 1,0,-1
 158 680 l 1,1,-1
 158 761 l 1,2,-1
 523 761 l 1,3,-1
 523 680 l 1,0,-1
307 -7 m 0,4,5
 196 -7 196 -7 117.5 76 c 128,-1,6
 39 159 39 159 39 275 c 0,7,8
 39 392 39 392 117.5 475 c 128,-1,9
 196 558 196 558 307 558 c 0,10,11
 373 558 373 558 429.5 523 c 128,-1,12
 486 488 486 488 512 434 c 1,13,-1
 517 550 l 1,14,-1
 607 550 l 1,15,-1
 607 0 l 1,16,-1
 517 0 l 1,17,-1
 512 115 l 1,18,19
 486 62 486 62 429.5 27.5 c 128,-1,20
 373 -7 373 -7 307 -7 c 0,4,5
323 90 m 128,-1,22
 400 90 400 90 454.5 144 c 128,-1,23
 509 198 509 198 509 275 c 128,-1,24
 509 352 509 352 454.5 407 c 128,-1,25
 400 462 400 462 323 462 c 0,26,27
 247 462 247 462 192.5 407 c 128,-1,28
 138 352 138 352 138 275 c 128,-1,29
 138 198 138 198 192 144 c 128,-1,21
 246 90 246 90 323 90 c 128,-1,22
EndSplineSet
Validated: 1
Substitution2: "'ss02' Style Set 2 lookup 28 subtable" amacron.ss02
Substitution2: "'ss01' Style Set 1 lookup 27 subtable" amacron.ss01
Substitution2: "'salt' Stylistic Alternatives lookup 26 subtable" amacron.ss01
AlternateSubs2: "'aalt' Access All Alternates lookup 1 subtable" amacron.ss01 amacron.ss02
EndChar

StartChar: Abreve
Encoding: 195 258 195
Width: 676
GlyphClass: 2
Flags: W
LayerCount: 2
Fore
SplineSet
339 817 m 0,0,1
 275 817 275 817 230 859.5 c 128,-1,2
 185 902 185 902 183 964 c 1,3,-1
 242 964 l 1,4,5
 244 926 244 926 272 901 c 128,-1,6
 300 876 300 876 339 876 c 0,7,8
 377 876 377 876 404.5 901 c 128,-1,9
 432 926 432 926 435 964 c 1,10,-1
 494 964 l 1,11,12
 491 902 491 902 446 859.5 c 128,-1,13
 401 817 401 817 339 817 c 0,0,1
129 0 m 1,14,-1
 15 0 l 1,15,-1
 282 730 l 1,16,-1
 394 730 l 1,17,-1
 661 0 l 1,18,-1
 549 0 l 1,19,-1
 479 190 l 1,20,-1
 198 190 l 1,21,-1
 129 0 l 1,14,-1
338 591 m 1,22,-1
 228 287 l 1,23,-1
 449 287 l 1,24,-1
 338 591 l 1,22,-1
EndSplineSet
Validated: 1
Substitution2: "'ss02' Style Set 2 lookup 28 subtable" Abreve.ss02
Substitution2: "'aalt' Access All Alternates lookup 0 subtable" Abreve.ss02
EndChar

StartChar: abreve
Encoding: 196 259 196
Width: 678
GlyphClass: 2
Flags: W
LayerCount: 2
Fore
SplineSet
336 647 m 0,0,1
 272 647 272 647 227 689.5 c 128,-1,2
 182 732 182 732 180 794 c 1,3,-1
 239 794 l 1,4,5
 241 756 241 756 269 731 c 128,-1,6
 297 706 297 706 336 706 c 128,-1,7
 375 706 375 706 402.5 731 c 128,-1,8
 430 756 430 756 432 794 c 1,9,-1
 491 794 l 1,10,11
 488 732 488 732 443 689.5 c 128,-1,12
 398 647 398 647 336 647 c 0,0,1
307 -7 m 0,13,14
 196 -7 196 -7 117.5 76 c 128,-1,15
 39 159 39 159 39 275 c 0,16,17
 39 392 39 392 117.5 475 c 128,-1,18
 196 558 196 558 307 558 c 0,19,20
 373 558 373 558 429.5 523 c 128,-1,21
 486 488 486 488 512 434 c 1,22,-1
 517 550 l 1,23,-1
 607 550 l 1,24,-1
 607 0 l 1,25,-1
 517 0 l 1,26,-1
 512 115 l 1,27,28
 486 62 486 62 429.5 27.5 c 128,-1,29
 373 -7 373 -7 307 -7 c 0,13,14
323 90 m 128,-1,31
 400 90 400 90 454.5 144 c 128,-1,32
 509 198 509 198 509 275 c 128,-1,33
 509 352 509 352 454.5 407 c 128,-1,34
 400 462 400 462 323 462 c 0,35,36
 247 462 247 462 192.5 407 c 128,-1,37
 138 352 138 352 138 275 c 128,-1,38
 138 198 138 198 192 144 c 128,-1,30
 246 90 246 90 323 90 c 128,-1,31
EndSplineSet
Validated: 1
Substitution2: "'ss02' Style Set 2 lookup 28 subtable" abreve.ss02
Substitution2: "'ss01' Style Set 1 lookup 27 subtable" abreve.ss01
Substitution2: "'salt' Stylistic Alternatives lookup 26 subtable" abreve.ss01
AlternateSubs2: "'aalt' Access All Alternates lookup 1 subtable" abreve.ss01 abreve.ss02
EndChar

StartChar: Aogonek
Encoding: 197 260 197
Width: 676
GlyphClass: 2
Flags: W
LayerCount: 2
Fore
SplineSet
626 -219 m 0,0,1
 591 -219 591 -219 567 -193.5 c 128,-1,2
 543 -168 543 -168 543 -129 c 0,3,4
 543 -117 543 -117 545.5 -105.5 c 128,-1,5
 548 -94 548 -94 553.5 -82.5 c 128,-1,6
 559 -71 559 -71 563.5 -61.5 c 128,-1,7
 568 -52 568 -52 576 -41.5 c 128,-1,8
 584 -31 584 -31 588 -25.5 c 128,-1,9
 592 -20 592 -20 600 -10.5 c 128,-1,10
 608 -1 608 -1 609 0 c 1,11,-1
 550 0 l 1,12,-1
 479 190 l 1,13,-1
 198 190 l 1,14,-1
 129 0 l 1,15,-1
 15 0 l 1,16,-1
 282 730 l 1,17,-1
 394 730 l 1,18,-1
 661 0 l 1,19,20
 657 -5 657 -5 649.5 -16.5 c 128,-1,21
 642 -28 642 -28 639 -32 c 128,-1,22
 636 -36 636 -36 630 -45 c 128,-1,23
 624 -54 624 -54 621.5 -58 c 128,-1,24
 619 -62 619 -62 615 -69 c 128,-1,25
 611 -76 611 -76 609.5 -80.5 c 128,-1,26
 608 -85 608 -85 606 -91 c 128,-1,27
 604 -97 604 -97 603.5 -102 c 128,-1,28
 603 -107 603 -107 603 -113 c 0,29,30
 603 -130 603 -130 612.5 -141.5 c 128,-1,31
 622 -153 622 -153 636 -153 c 0,32,33
 659 -153 659 -153 677 -131 c 1,34,-1
 706 -176 l 1,35,36
 679 -219 679 -219 626 -219 c 0,0,1
338 591 m 1,37,-1
 228 287 l 1,38,-1
 449 287 l 1,39,-1
 338 591 l 1,37,-1
EndSplineSet
Validated: 1
Substitution2: "'ss02' Style Set 2 lookup 28 subtable" Aogonek.ss02
Substitution2: "'aalt' Access All Alternates lookup 0 subtable" Aogonek.ss02
EndChar

StartChar: aogonek
Encoding: 198 261 198
Width: 676
GlyphClass: 2
Flags: W
LayerCount: 2
Fore
SplineSet
557 -208 m 0,0,1
 523 -208 523 -208 498.5 -182.5 c 128,-1,2
 474 -157 474 -157 474 -118 c 0,3,4
 474 -95 474 -95 482 -76.5 c 128,-1,5
 490 -58 490 -58 511 -31.5 c 128,-1,6
 532 -5 532 -5 535 0 c 1,7,-1
 517 0 l 1,8,-1
 512 115 l 1,9,10
 486 62 486 62 429.5 27.5 c 128,-1,11
 373 -7 373 -7 307 -7 c 0,12,13
 196 -7 196 -7 117.5 76 c 128,-1,14
 39 159 39 159 39 275 c 0,15,16
 39 392 39 392 117.5 475 c 128,-1,17
 196 558 196 558 307 558 c 0,18,19
 373 558 373 558 429.5 523 c 128,-1,20
 486 488 486 488 512 434 c 1,21,-1
 517 550 l 1,22,-1
 607 550 l 1,23,-1
 607 0 l 1,24,-1
 590 0 l 1,25,26
 582 -12 582 -12 568.5 -30.5 c 128,-1,27
 555 -49 555 -49 550 -57.5 c 128,-1,28
 545 -66 545 -66 540 -78 c 128,-1,29
 535 -90 535 -90 535 -102 c 0,30,31
 535 -119 535 -119 544.5 -130.5 c 128,-1,32
 554 -142 554 -142 568 -142 c 0,33,34
 592 -142 592 -142 608 -120 c 1,35,-1
 638 -165 l 1,36,37
 609 -208 609 -208 557 -208 c 0,0,1
323 90 m 128,-1,39
 400 90 400 90 454.5 144 c 128,-1,40
 509 198 509 198 509 275 c 128,-1,41
 509 352 509 352 454.5 407 c 128,-1,42
 400 462 400 462 323 462 c 0,43,44
 247 462 247 462 192.5 407 c 128,-1,45
 138 352 138 352 138 275 c 128,-1,46
 138 198 138 198 192 144 c 128,-1,38
 246 90 246 90 323 90 c 128,-1,39
EndSplineSet
Validated: 1
Substitution2: "'ss02' Style Set 2 lookup 28 subtable" aogonek.ss02
Substitution2: "'ss01' Style Set 1 lookup 27 subtable" aogonek.ss01
Substitution2: "'salt' Stylistic Alternatives lookup 26 subtable" aogonek.ss01
AlternateSubs2: "'aalt' Access All Alternates lookup 1 subtable" aogonek.ss01 aogonek.ss02
EndChar

StartChar: Cacute
Encoding: 199 262 199
Width: 761
GlyphClass: 2
Flags: W
LayerCount: 2
Fore
SplineSet
399 810 m 1,0,-1
 335 810 l 1,1,-1
 394 970 l 1,2,-1
 483 970 l 1,3,-1
 399 810 l 1,0,-1
425 -12 m 0,4,5
 269 -12 269 -12 159 98.5 c 128,-1,6
 49 209 49 209 49 365 c 0,7,8
 49 520 49 520 159 630 c 128,-1,9
 269 740 269 740 425 740 c 0,10,11
 513 740 513 740 590 702 c 128,-1,12
 667 664 667 664 720 598 c 1,13,-1
 635 535 l 1,14,15
 597 582 597 582 542 608.5 c 128,-1,16
 487 635 487 635 425 635 c 0,17,18
 313 635 313 635 233.5 556.5 c 128,-1,19
 154 478 154 478 154 366 c 0,20,21
 154 252 154 252 233.5 173 c 128,-1,22
 313 94 313 94 425 94 c 0,23,24
 489 94 489 94 544.5 121.5 c 128,-1,25
 600 149 600 149 637 198 c 1,26,-1
 727 142 l 1,27,28
 675 71 675 71 595.5 29.5 c 128,-1,29
 516 -12 516 -12 425 -12 c 0,4,5
EndSplineSet
Validated: 1
EndChar

StartChar: cacute
Encoding: 200 263 200
Width: 591
GlyphClass: 2
Flags: W
LayerCount: 2
Fore
SplineSet
332 640 m 1,0,-1
 268 640 l 1,1,-1
 327 800 l 1,2,-1
 416 800 l 1,3,-1
 332 640 l 1,0,-1
321 -8 m 0,4,5
 204 -8 204 -8 121.5 75.5 c 128,-1,6
 39 159 39 159 39 276 c 0,7,8
 39 392 39 392 121.5 474.5 c 128,-1,9
 204 557 204 557 321 557 c 0,10,11
 391 557 391 557 451.5 525 c 128,-1,12
 512 493 512 493 552 438 c 1,13,-1
 471 384 l 1,14,15
 415 458 415 458 321 458 c 0,16,17
 245 458 245 458 191.5 404.5 c 128,-1,18
 138 351 138 351 138 276 c 0,19,20
 138 199 138 199 191.5 145.5 c 128,-1,21
 245 92 245 92 321 92 c 0,22,23
 368 92 368 92 408 113 c 128,-1,24
 448 134 448 134 473 171 c 1,25,-1
 554 117 l 1,26,27
 516 60 516 60 454 26 c 128,-1,28
 392 -8 392 -8 321 -8 c 0,4,5
EndSplineSet
Validated: 1
EndChar

StartChar: Ccircumflex
Encoding: 201 264 201
Width: 761
GlyphClass: 2
Flags: W
LayerCount: 2
Fore
SplineSet
355 827 m 1,0,-1
 272 827 l 1,1,-1
 377 954 l 1,2,-1
 463 954 l 1,3,-1
 569 827 l 1,4,-1
 486 827 l 1,5,-1
 420 903 l 1,6,-1
 355 827 l 1,0,-1
425 -12 m 0,7,8
 269 -12 269 -12 159 98.5 c 128,-1,9
 49 209 49 209 49 365 c 0,10,11
 49 520 49 520 159 630 c 128,-1,12
 269 740 269 740 425 740 c 0,13,14
 513 740 513 740 590 702 c 128,-1,15
 667 664 667 664 720 598 c 1,16,-1
 635 535 l 1,17,18
 597 582 597 582 542 608.5 c 128,-1,19
 487 635 487 635 425 635 c 0,20,21
 313 635 313 635 233.5 556.5 c 128,-1,22
 154 478 154 478 154 366 c 0,23,24
 154 252 154 252 233.5 173 c 128,-1,25
 313 94 313 94 425 94 c 0,26,27
 489 94 489 94 544.5 121.5 c 128,-1,28
 600 149 600 149 637 198 c 1,29,-1
 727 142 l 1,30,31
 675 71 675 71 595.5 29.5 c 128,-1,32
 516 -12 516 -12 425 -12 c 0,7,8
EndSplineSet
Validated: 1
EndChar

StartChar: ccircumflex
Encoding: 202 265 202
Width: 591
GlyphClass: 2
Flags: W
LayerCount: 2
Fore
SplineSet
252 657 m 1,0,-1
 169 657 l 1,1,-1
 275 784 l 1,2,-1
 361 784 l 1,3,-1
 467 657 l 1,4,-1
 384 657 l 1,5,-1
 318 733 l 1,6,-1
 252 657 l 1,0,-1
321 -8 m 0,7,8
 204 -8 204 -8 121.5 75.5 c 128,-1,9
 39 159 39 159 39 276 c 0,10,11
 39 392 39 392 121.5 474.5 c 128,-1,12
 204 557 204 557 321 557 c 0,13,14
 391 557 391 557 451.5 525 c 128,-1,15
 512 493 512 493 552 438 c 1,16,-1
 471 384 l 1,17,18
 415 458 415 458 321 458 c 0,19,20
 245 458 245 458 191.5 404.5 c 128,-1,21
 138 351 138 351 138 276 c 0,22,23
 138 199 138 199 191.5 145.5 c 128,-1,24
 245 92 245 92 321 92 c 0,25,26
 368 92 368 92 408 113 c 128,-1,27
 448 134 448 134 473 171 c 1,28,-1
 554 117 l 1,29,30
 516 60 516 60 454 26 c 128,-1,31
 392 -8 392 -8 321 -8 c 0,7,8
EndSplineSet
Validated: 1
EndChar

StartChar: Cdotaccent
Encoding: 203 266 203
Width: 761
GlyphClass: 2
Flags: W
LayerCount: 2
Fore
SplineSet
407 830 m 0,0,1
 382 830 382 830 364 847.5 c 128,-1,2
 346 865 346 865 346 890 c 0,3,4
 346 916 346 916 364 933.5 c 128,-1,5
 382 951 382 951 407 951 c 0,6,7
 431 951 431 951 448.5 933 c 128,-1,8
 466 915 466 915 466 890 c 128,-1,9
 466 865 466 865 448.5 847.5 c 128,-1,10
 431 830 431 830 407 830 c 0,0,1
425 -12 m 0,11,12
 269 -12 269 -12 159 98.5 c 128,-1,13
 49 209 49 209 49 365 c 0,14,15
 49 520 49 520 159 630 c 128,-1,16
 269 740 269 740 425 740 c 0,17,18
 513 740 513 740 590 702 c 128,-1,19
 667 664 667 664 720 598 c 1,20,-1
 635 535 l 1,21,22
 597 582 597 582 542 608.5 c 128,-1,23
 487 635 487 635 425 635 c 0,24,25
 313 635 313 635 233.5 556.5 c 128,-1,26
 154 478 154 478 154 366 c 0,27,28
 154 252 154 252 233.5 173 c 128,-1,29
 313 94 313 94 425 94 c 0,30,31
 489 94 489 94 544.5 121.5 c 128,-1,32
 600 149 600 149 637 198 c 1,33,-1
 727 142 l 1,34,35
 675 71 675 71 595.5 29.5 c 128,-1,36
 516 -12 516 -12 425 -12 c 0,11,12
EndSplineSet
Validated: 1
EndChar

StartChar: cdotaccent
Encoding: 204 267 204
Width: 591
GlyphClass: 2
Flags: W
LayerCount: 2
Fore
SplineSet
306 660 m 0,0,1
 281 660 281 660 263 677.5 c 128,-1,2
 245 695 245 695 245 720 c 0,3,4
 245 746 245 746 262.5 763.5 c 128,-1,5
 280 781 280 781 306 781 c 0,6,7
 330 781 330 781 347.5 763 c 128,-1,8
 365 745 365 745 365 720 c 128,-1,9
 365 695 365 695 347.5 677.5 c 128,-1,10
 330 660 330 660 306 660 c 0,0,1
321 -8 m 0,11,12
 204 -8 204 -8 121.5 75.5 c 128,-1,13
 39 159 39 159 39 276 c 0,14,15
 39 392 39 392 121.5 474.5 c 128,-1,16
 204 557 204 557 321 557 c 0,17,18
 391 557 391 557 451.5 525 c 128,-1,19
 512 493 512 493 552 438 c 1,20,-1
 471 384 l 1,21,22
 415 458 415 458 321 458 c 0,23,24
 245 458 245 458 191.5 404.5 c 128,-1,25
 138 351 138 351 138 276 c 0,26,27
 138 199 138 199 191.5 145.5 c 128,-1,28
 245 92 245 92 321 92 c 0,29,30
 368 92 368 92 408 113 c 128,-1,31
 448 134 448 134 473 171 c 1,32,-1
 554 117 l 1,33,34
 516 60 516 60 454 26 c 128,-1,35
 392 -8 392 -8 321 -8 c 0,11,12
EndSplineSet
Validated: 1
EndChar

StartChar: Ccaron
Encoding: 205 268 205
Width: 761
GlyphClass: 2
Flags: W
LayerCount: 2
Fore
SplineSet
454 827 m 1,0,-1
 368 827 l 1,1,-1
 262 954 l 1,2,-1
 345 954 l 1,3,-1
 411 878 l 1,4,-1
 476 954 l 1,5,-1
 559 954 l 1,6,-1
 454 827 l 1,0,-1
425 -12 m 0,7,8
 269 -12 269 -12 159 98.5 c 128,-1,9
 49 209 49 209 49 365 c 0,10,11
 49 520 49 520 159 630 c 128,-1,12
 269 740 269 740 425 740 c 0,13,14
 513 740 513 740 590 702 c 128,-1,15
 667 664 667 664 720 598 c 1,16,-1
 635 535 l 1,17,18
 597 582 597 582 542 608.5 c 128,-1,19
 487 635 487 635 425 635 c 0,20,21
 313 635 313 635 233.5 556.5 c 128,-1,22
 154 478 154 478 154 366 c 0,23,24
 154 252 154 252 233.5 173 c 128,-1,25
 313 94 313 94 425 94 c 0,26,27
 489 94 489 94 544.5 121.5 c 128,-1,28
 600 149 600 149 637 198 c 1,29,-1
 727 142 l 1,30,31
 675 71 675 71 595.5 29.5 c 128,-1,32
 516 -12 516 -12 425 -12 c 0,7,8
EndSplineSet
Validated: 1
EndChar

StartChar: ccaron
Encoding: 206 269 206
Width: 591
GlyphClass: 2
Flags: W
LayerCount: 2
Fore
SplineSet
335 657 m 1,0,-1
 249 657 l 1,1,-1
 143 784 l 1,2,-1
 226 784 l 1,3,-1
 292 708 l 1,4,-1
 358 784 l 1,5,-1
 441 784 l 1,6,-1
 335 657 l 1,0,-1
321 -8 m 0,7,8
 204 -8 204 -8 121.5 75.5 c 128,-1,9
 39 159 39 159 39 276 c 0,10,11
 39 392 39 392 121.5 474.5 c 128,-1,12
 204 557 204 557 321 557 c 0,13,14
 391 557 391 557 451.5 525 c 128,-1,15
 512 493 512 493 552 438 c 1,16,-1
 471 384 l 1,17,18
 415 458 415 458 321 458 c 0,19,20
 245 458 245 458 191.5 404.5 c 128,-1,21
 138 351 138 351 138 276 c 0,22,23
 138 199 138 199 191.5 145.5 c 128,-1,24
 245 92 245 92 321 92 c 0,25,26
 368 92 368 92 408 113 c 128,-1,27
 448 134 448 134 473 171 c 1,28,-1
 554 117 l 1,29,30
 516 60 516 60 454 26 c 128,-1,31
 392 -8 392 -8 321 -8 c 0,7,8
EndSplineSet
Validated: 1
EndChar

StartChar: Dcaron
Encoding: 207 270 207
Width: 739
GlyphClass: 2
Flags: W
LayerCount: 2
Fore
SplineSet
337 827 m 1,0,-1
 251 827 l 1,1,-1
 145 954 l 1,2,-1
 228 954 l 1,3,-1
 294 878 l 1,4,-1
 359 954 l 1,5,-1
 442 954 l 1,6,-1
 337 827 l 1,0,-1
306 0 m 2,7,-1
 82 0 l 1,8,-1
 82 730 l 1,9,-1
 306 730 l 2,10,11
 474 730 474 730 582 625 c 128,-1,12
 690 520 690 520 690 366 c 0,13,14
 690 209 690 209 584 104.5 c 128,-1,15
 478 0 478 0 306 0 c 2,7,-1
185 629 m 1,16,-1
 185 102 l 1,17,-1
 306 102 l 2,18,19
 433 102 433 102 508 178 c 128,-1,20
 583 254 583 254 583 367 c 0,21,22
 583 476 583 476 506 552.5 c 128,-1,23
 429 629 429 629 306 629 c 2,24,-1
 185 629 l 1,16,-1
EndSplineSet
Validated: 1
EndChar

StartChar: dcaron
Encoding: 208 271 208
Width: 767
GlyphClass: 2
Flags: W
LayerCount: 2
Fore
SplineSet
307 -7 m 0,0,1
 196 -7 196 -7 117.5 76 c 128,-1,2
 39 159 39 159 39 275 c 0,3,4
 39 392 39 392 117.5 475 c 128,-1,5
 196 558 196 558 307 558 c 0,6,7
 373 558 373 558 428.5 524 c 128,-1,8
 484 490 484 490 509 437 c 1,9,-1
 509 780 l 1,10,-1
 607 780 l 1,11,-1
 607 0 l 1,12,-1
 517 0 l 1,13,-1
 512 115 l 1,14,15
 486 62 486 62 429.5 27.5 c 128,-1,16
 373 -7 373 -7 307 -7 c 0,0,1
744 567 m 1,17,-1
 676 567 l 1,18,-1
 665 780 l 1,19,-1
 754 780 l 1,20,-1
 744 567 l 1,17,-1
323 90 m 128,-1,22
 400 90 400 90 454.5 144 c 128,-1,23
 509 198 509 198 509 275 c 128,-1,24
 509 352 509 352 454.5 407 c 128,-1,25
 400 462 400 462 323 462 c 0,26,27
 247 462 247 462 192.5 407 c 128,-1,28
 138 352 138 352 138 275 c 128,-1,29
 138 198 138 198 192 144 c 128,-1,21
 246 90 246 90 323 90 c 128,-1,22
EndSplineSet
Validated: 1
Substitution2: "'ss01' Style Set 1 lookup 27 subtable" dcaron.ss01
Substitution2: "'salt' Stylistic Alternatives lookup 26 subtable" dcaron.ss01
Substitution2: "'aalt' Access All Alternates lookup 0 subtable" dcaron.ss01
EndChar

StartChar: Dcroat
Encoding: 209 272 209
Width: 743
GlyphClass: 2
Flags: W
LayerCount: 2
Fore
SplineSet
310 0 m 2,0,-1
 85 0 l 1,1,-1
 85 325 l 1,2,-1
 35 325 l 1,3,-1
 35 406 l 1,4,-1
 85 406 l 1,5,-1
 85 730 l 1,6,-1
 310 730 l 2,7,8
 478 730 478 730 586 625 c 128,-1,9
 694 520 694 520 694 366 c 0,10,11
 694 209 694 209 588 104.5 c 128,-1,12
 482 0 482 0 310 0 c 2,0,-1
189 325 m 1,13,-1
 189 102 l 1,14,-1
 310 102 l 2,15,16
 436 102 436 102 511.5 178 c 128,-1,17
 587 254 587 254 587 367 c 0,18,19
 587 476 587 476 509.5 552 c 128,-1,20
 432 628 432 628 310 628 c 2,21,-1
 189 628 l 1,22,-1
 189 406 l 1,23,-1
 418 406 l 1,24,-1
 418 325 l 1,25,-1
 189 325 l 1,13,-1
EndSplineSet
Validated: 1
EndChar

StartChar: dcroat
Encoding: 210 273 210
Width: 678
GlyphClass: 2
Flags: W
LayerCount: 2
Fore
SplineSet
307 -7 m 0,0,1
 196 -7 196 -7 117.5 76 c 128,-1,2
 39 159 39 159 39 275 c 0,3,4
 39 392 39 392 117.5 475 c 128,-1,5
 196 558 196 558 307 558 c 0,6,7
 373 558 373 558 428.5 524 c 128,-1,8
 484 490 484 490 509 437 c 1,9,-1
 509 638 l 1,10,-1
 302 638 l 1,11,-1
 302 704 l 1,12,-1
 509 704 l 1,13,-1
 509 780 l 1,14,-1
 607 780 l 1,15,-1
 607 704 l 1,16,-1
 667 704 l 1,17,-1
 667 638 l 1,18,-1
 607 638 l 1,19,-1
 607 0 l 1,20,-1
 517 0 l 1,21,-1
 512 115 l 1,22,23
 486 62 486 62 429.5 27.5 c 128,-1,24
 373 -7 373 -7 307 -7 c 0,0,1
323 90 m 128,-1,26
 400 90 400 90 454.5 144 c 128,-1,27
 509 198 509 198 509 275 c 128,-1,28
 509 352 509 352 454.5 407 c 128,-1,29
 400 462 400 462 323 462 c 0,30,31
 247 462 247 462 192.5 407 c 128,-1,32
 138 352 138 352 138 275 c 128,-1,33
 138 198 138 198 192 144 c 128,-1,25
 246 90 246 90 323 90 c 128,-1,26
EndSplineSet
Validated: 1
Substitution2: "'ss01' Style Set 1 lookup 27 subtable" dcroat.ss01
Substitution2: "'salt' Stylistic Alternatives lookup 26 subtable" dcroat.ss01
Substitution2: "'aalt' Access All Alternates lookup 0 subtable" dcroat.ss01
EndChar

StartChar: Emacron
Encoding: 211 274 211
Width: 591
GlyphClass: 2
Flags: W
LayerCount: 2
Fore
SplineSet
495 850 m 1,0,-1
 130 850 l 1,1,-1
 130 931 l 1,2,-1
 495 931 l 1,3,-1
 495 850 l 1,0,-1
543 0 m 1,4,-1
 82 0 l 1,5,-1
 82 730 l 1,6,-1
 533 730 l 1,7,-1
 533 635 l 1,8,-1
 184 635 l 1,9,-1
 184 422 l 1,10,-1
 513 422 l 1,11,-1
 513 327 l 1,12,-1
 184 327 l 1,13,-1
 184 100 l 1,14,-1
 543 100 l 1,15,-1
 543 0 l 1,4,-1
EndSplineSet
Validated: 1
EndChar

StartChar: emacron
Encoding: 212 275 212
Width: 643
GlyphClass: 2
Flags: W
LayerCount: 2
Fore
SplineSet
505 680 m 1,0,-1
 140 680 l 1,1,-1
 140 761 l 1,2,-1
 505 761 l 1,3,-1
 505 680 l 1,0,-1
331 -8 m 0,4,5
 207 -8 207 -8 123 75 c 128,-1,6
 39 158 39 158 39 276 c 0,7,8
 39 392 39 392 121 474.5 c 128,-1,9
 203 557 203 557 318 557 c 0,10,11
 437 557 437 557 517 475 c 128,-1,12
 597 393 597 393 597 276 c 0,13,14
 597 272 597 272 594 230 c 1,15,-1
 144 230 l 1,16,17
 155 167 155 167 207.5 125.5 c 128,-1,18
 260 84 260 84 331 84 c 0,19,20
 430 84 430 84 488 155 c 1,21,-1
 567 106 l 1,22,23
 528 54 528 54 464 23 c 128,-1,24
 400 -8 400 -8 331 -8 c 0,4,5
143 310 m 1,25,-1
 496 310 l 1,26,27
 492 375 492 375 442.5 420.5 c 128,-1,28
 393 466 393 466 319 466 c 0,29,30
 247 466 247 466 197.5 420.5 c 128,-1,31
 148 375 148 375 143 310 c 1,25,-1
EndSplineSet
Validated: 1
EndChar

StartChar: Ebreve
Encoding: 213 276 213
Width: 591
GlyphClass: 2
Flags: W
LayerCount: 2
Fore
SplineSet
312 817 m 0,0,1
 248 817 248 817 203 859.5 c 128,-1,2
 158 902 158 902 155 964 c 1,3,-1
 215 964 l 1,4,5
 217 926 217 926 244.5 901 c 128,-1,6
 272 876 272 876 312 876 c 0,7,8
 350 876 350 876 377.5 901 c 128,-1,9
 405 926 405 926 407 964 c 1,10,-1
 467 964 l 1,11,12
 464 902 464 902 419 859.5 c 128,-1,13
 374 817 374 817 312 817 c 0,0,1
543 0 m 1,14,-1
 82 0 l 1,15,-1
 82 730 l 1,16,-1
 533 730 l 1,17,-1
 533 635 l 1,18,-1
 184 635 l 1,19,-1
 184 422 l 1,20,-1
 513 422 l 1,21,-1
 513 327 l 1,22,-1
 184 327 l 1,23,-1
 184 100 l 1,24,-1
 543 100 l 1,25,-1
 543 0 l 1,14,-1
EndSplineSet
Validated: 1
EndChar

StartChar: ebreve
Encoding: 214 277 214
Width: 635
GlyphClass: 2
Flags: W
LayerCount: 2
Fore
SplineSet
318 647 m 128,-1,1
 255 647 255 647 210 689.5 c 128,-1,2
 165 732 165 732 162 794 c 1,3,-1
 222 794 l 1,4,5
 224 756 224 756 251.5 731 c 128,-1,6
 279 706 279 706 318 706 c 128,-1,7
 357 706 357 706 384.5 731 c 128,-1,8
 412 756 412 756 414 794 c 1,9,-1
 473 794 l 1,10,11
 471 732 471 732 426 689.5 c 128,-1,0
 381 647 381 647 318 647 c 128,-1,1
331 -8 m 0,12,13
 207 -8 207 -8 123 75 c 128,-1,14
 39 158 39 158 39 276 c 0,15,16
 39 392 39 392 121 474.5 c 128,-1,17
 203 557 203 557 318 557 c 0,18,19
 437 557 437 557 517 475 c 128,-1,20
 597 393 597 393 597 276 c 0,21,22
 597 272 597 272 594 230 c 1,23,-1
 144 230 l 1,24,25
 155 167 155 167 207.5 125.5 c 128,-1,26
 260 84 260 84 331 84 c 0,27,28
 430 84 430 84 488 155 c 1,29,-1
 567 106 l 1,30,31
 528 54 528 54 464 23 c 128,-1,32
 400 -8 400 -8 331 -8 c 0,12,13
143 310 m 1,33,-1
 496 310 l 1,34,35
 492 375 492 375 442.5 420.5 c 128,-1,36
 393 466 393 466 319 466 c 0,37,38
 247 466 247 466 197.5 420.5 c 128,-1,39
 148 375 148 375 143 310 c 1,33,-1
EndSplineSet
Validated: 1
EndChar

StartChar: Edotaccent
Encoding: 215 278 215
Width: 591
GlyphClass: 2
Flags: W
LayerCount: 2
Fore
SplineSet
313 830 m 0,0,1
 288 830 288 830 270.5 847.5 c 128,-1,2
 253 865 253 865 253 890 c 128,-1,3
 253 915 253 915 270.5 933 c 128,-1,4
 288 951 288 951 313 951 c 0,5,6
 337 951 337 951 354.5 933 c 128,-1,7
 372 915 372 915 372 890 c 128,-1,8
 372 865 372 865 354.5 847.5 c 128,-1,9
 337 830 337 830 313 830 c 0,0,1
543 0 m 1,10,-1
 82 0 l 1,11,-1
 82 730 l 1,12,-1
 533 730 l 1,13,-1
 533 635 l 1,14,-1
 184 635 l 1,15,-1
 184 422 l 1,16,-1
 513 422 l 1,17,-1
 513 327 l 1,18,-1
 184 327 l 1,19,-1
 184 100 l 1,20,-1
 543 100 l 1,21,-1
 543 0 l 1,10,-1
EndSplineSet
Validated: 1
EndChar

StartChar: edotaccent
Encoding: 216 279 216
Width: 635
GlyphClass: 2
Flags: W
LayerCount: 2
Fore
SplineSet
311 660 m 0,0,1
 286 660 286 660 268.5 677.5 c 128,-1,2
 251 695 251 695 251 720 c 128,-1,3
 251 745 251 745 268.5 763 c 128,-1,4
 286 781 286 781 311 781 c 0,5,6
 335 781 335 781 352.5 763 c 128,-1,7
 370 745 370 745 370 720 c 128,-1,8
 370 695 370 695 352.5 677.5 c 128,-1,9
 335 660 335 660 311 660 c 0,0,1
331 -8 m 0,10,11
 207 -8 207 -8 123 75 c 128,-1,12
 39 158 39 158 39 276 c 0,13,14
 39 392 39 392 121 474.5 c 128,-1,15
 203 557 203 557 318 557 c 0,16,17
 437 557 437 557 517 475 c 128,-1,18
 597 393 597 393 597 276 c 0,19,20
 597 272 597 272 594 230 c 1,21,-1
 144 230 l 1,22,23
 155 167 155 167 207.5 125.5 c 128,-1,24
 260 84 260 84 331 84 c 0,25,26
 430 84 430 84 488 155 c 1,27,-1
 567 106 l 1,28,29
 528 54 528 54 464 23 c 128,-1,30
 400 -8 400 -8 331 -8 c 0,10,11
143 310 m 1,31,-1
 496 310 l 1,32,33
 492 375 492 375 442.5 420.5 c 128,-1,34
 393 466 393 466 319 466 c 0,35,36
 247 466 247 466 197.5 420.5 c 128,-1,37
 148 375 148 375 143 310 c 1,31,-1
EndSplineSet
Validated: 1
EndChar

StartChar: Eogonek
Encoding: 217 280 217
Width: 603
GlyphClass: 2
Flags: W
LayerCount: 2
Fore
SplineSet
508 -219 m 0,0,1
 474 -219 474 -219 449.5 -193.5 c 128,-1,2
 425 -168 425 -168 425 -129 c 0,3,4
 425 -121 425 -121 426 -112.5 c 128,-1,5
 427 -104 427 -104 429.5 -95.5 c 128,-1,6
 432 -87 432 -87 434 -80.5 c 128,-1,7
 436 -74 436 -74 441 -65 c 128,-1,8
 446 -56 446 -56 448 -51.5 c 128,-1,9
 450 -47 450 -47 456.5 -37.5 c 128,-1,10
 463 -28 463 -28 464.5 -25 c 128,-1,11
 466 -22 466 -22 473.5 -12 c 128,-1,12
 481 -2 481 -2 482 0 c 1,13,-1
 82 0 l 1,14,-1
 82 730 l 1,15,-1
 533 730 l 1,16,-1
 533 635 l 1,17,-1
 184 635 l 1,18,-1
 184 422 l 1,19,-1
 513 422 l 1,20,-1
 513 327 l 1,21,-1
 184 327 l 1,22,-1
 184 100 l 1,23,-1
 543 100 l 1,24,-1
 543 0 l 1,25,26
 539 -5 539 -5 531 -17 c 128,-1,27
 523 -29 523 -29 520 -34 c 128,-1,28
 517 -39 517 -39 510.5 -48.5 c 128,-1,29
 504 -58 504 -58 501.5 -63 c 128,-1,30
 499 -68 499 -68 495.5 -75.5 c 128,-1,31
 492 -83 492 -83 490.5 -88.5 c 128,-1,32
 489 -94 489 -94 487.5 -100.5 c 128,-1,33
 486 -107 486 -107 486 -113 c 0,34,35
 486 -130 486 -130 495.5 -141.5 c 128,-1,36
 505 -153 505 -153 519 -153 c 0,37,38
 543 -153 543 -153 559 -131 c 1,39,-1
 588 -176 l 1,40,41
 561 -219 561 -219 508 -219 c 0,0,1
EndSplineSet
Validated: 1
EndChar

StartChar: eogonek
Encoding: 218 281 218
Width: 652
GlyphClass: 2
Flags: W
LayerCount: 2
Fore
SplineSet
533 -114 m 0,0,1
 499 -114 499 -114 474.5 -88 c 128,-1,2
 450 -62 450 -62 450 -24 c 0,3,4
 450 0 450 0 458 22 c 1,5,6
 396 -8 396 -8 331 -8 c 0,7,8
 207 -8 207 -8 123 75 c 128,-1,9
 39 158 39 158 39 276 c 0,10,11
 39 392 39 392 121 474.5 c 128,-1,12
 203 557 203 557 318 557 c 0,13,14
 437 557 437 557 517 475 c 128,-1,15
 597 393 597 393 597 276 c 0,16,17
 597 272 597 272 594 230 c 1,18,-1
 144 230 l 1,19,20
 155 167 155 167 207.5 125.5 c 128,-1,21
 260 84 260 84 331 84 c 0,22,23
 430 84 430 84 488 155 c 1,24,-1
 567 106 l 1,25,26
 534 59 534 59 522.5 36.5 c 128,-1,27
 511 14 511 14 511 -7 c 0,28,29
 511 -24 511 -24 520.5 -36 c 128,-1,30
 530 -48 530 -48 544 -48 c 0,31,32
 569 -48 569 -48 584 -25 c 1,33,-1
 613 -70 l 1,34,35
 586 -114 586 -114 533 -114 c 0,0,1
143 310 m 1,36,-1
 496 310 l 1,37,38
 492 375 492 375 442.5 420.5 c 128,-1,39
 393 466 393 466 319 466 c 0,40,41
 247 466 247 466 197.5 420.5 c 128,-1,42
 148 375 148 375 143 310 c 1,36,-1
EndSplineSet
Validated: 1
EndChar

StartChar: Ecaron
Encoding: 219 282 219
Width: 591
GlyphClass: 2
Flags: W
LayerCount: 2
Fore
SplineSet
345 827 m 1,0,-1
 259 827 l 1,1,-1
 153 954 l 1,2,-1
 236 954 l 1,3,-1
 302 878 l 1,4,-1
 367 954 l 1,5,-1
 450 954 l 1,6,-1
 345 827 l 1,0,-1
543 0 m 1,7,-1
 82 0 l 1,8,-1
 82 730 l 1,9,-1
 533 730 l 1,10,-1
 533 635 l 1,11,-1
 184 635 l 1,12,-1
 184 422 l 1,13,-1
 513 422 l 1,14,-1
 513 327 l 1,15,-1
 184 327 l 1,16,-1
 184 100 l 1,17,-1
 543 100 l 1,18,-1
 543 0 l 1,7,-1
EndSplineSet
Validated: 1
EndChar

StartChar: ecaron
Encoding: 220 283 220
Width: 635
GlyphClass: 2
Flags: W
LayerCount: 2
Fore
SplineSet
353 657 m 1,0,-1
 267 657 l 1,1,-1
 162 784 l 1,2,-1
 245 784 l 1,3,-1
 310 708 l 1,4,-1
 376 784 l 1,5,-1
 459 784 l 1,6,-1
 353 657 l 1,0,-1
331 -8 m 0,7,8
 207 -8 207 -8 123 75 c 128,-1,9
 39 158 39 158 39 276 c 0,10,11
 39 392 39 392 121 474.5 c 128,-1,12
 203 557 203 557 318 557 c 0,13,14
 437 557 437 557 517 475 c 128,-1,15
 597 393 597 393 597 276 c 0,16,17
 597 272 597 272 594 230 c 1,18,-1
 144 230 l 1,19,20
 155 167 155 167 207.5 125.5 c 128,-1,21
 260 84 260 84 331 84 c 0,22,23
 430 84 430 84 488 155 c 1,24,-1
 567 106 l 1,25,26
 528 54 528 54 464 23 c 128,-1,27
 400 -8 400 -8 331 -8 c 0,7,8
143 310 m 1,28,-1
 496 310 l 1,29,30
 492 375 492 375 442.5 420.5 c 128,-1,31
 393 466 393 466 319 466 c 0,32,33
 247 466 247 466 197.5 420.5 c 128,-1,34
 148 375 148 375 143 310 c 1,28,-1
EndSplineSet
Validated: 1
EndChar

StartChar: Gcircumflex
Encoding: 221 284 221
Width: 839
GlyphClass: 2
Flags: W
LayerCount: 2
Fore
SplineSet
354 827 m 1,0,-1
 271 827 l 1,1,-1
 376 954 l 1,2,-1
 462 954 l 1,3,-1
 568 827 l 1,4,-1
 485 827 l 1,5,-1
 419 903 l 1,6,-1
 354 827 l 1,0,-1
425 -12 m 0,7,8
 269 -12 269 -12 159 98.5 c 128,-1,9
 49 209 49 209 49 365 c 0,10,11
 49 520 49 520 159 630 c 128,-1,12
 269 740 269 740 425 740 c 0,13,14
 514 740 514 740 592 701 c 128,-1,15
 670 662 670 662 723 594 c 1,16,-1
 631 538 l 1,17,18
 594 583 594 583 540 609 c 128,-1,19
 486 635 486 635 425 635 c 0,20,21
 313 635 313 635 233.5 556.5 c 128,-1,22
 154 478 154 478 154 366 c 0,23,24
 154 252 154 252 233.5 173 c 128,-1,25
 313 94 313 94 425 94 c 0,26,27
 530 94 530 94 598 156.5 c 128,-1,28
 666 219 666 219 674 321 c 1,29,-1
 401 321 l 1,30,-1
 401 416 l 1,31,-1
 786 416 l 1,32,33
 790 395 790 395 790 365 c 0,34,35
 790 198 790 198 688.5 93 c 128,-1,36
 587 -12 587 -12 425 -12 c 0,7,8
EndSplineSet
Validated: 1
Substitution2: "'ss01' Style Set 1 lookup 27 subtable" Gcircumflex.ss01
Substitution2: "'salt' Stylistic Alternatives lookup 26 subtable" Gcircumflex.ss01
Substitution2: "'aalt' Access All Alternates lookup 0 subtable" Gcircumflex.ss01
EndChar

StartChar: gcircumflex
Encoding: 222 285 222
Width: 678
GlyphClass: 2
Flags: W
LayerCount: 2
Fore
SplineSet
258 657 m 1,0,-1
 175 657 l 1,1,-1
 280 784 l 1,2,-1
 366 784 l 1,3,-1
 472 657 l 1,4,-1
 389 657 l 1,5,-1
 323 733 l 1,6,-1
 258 657 l 1,0,-1
306 -230 m 0,7,8
 236 -230 236 -230 173 -200.5 c 128,-1,9
 110 -171 110 -171 71 -120 c 1,10,-1
 145 -63 l 1,11,12
 174 -97 174 -97 218 -116.5 c 128,-1,13
 262 -136 262 -136 311 -136 c 0,14,15
 397 -136 397 -136 453 -84.5 c 128,-1,16
 509 -33 509 -33 509 70 c 2,17,-1
 509 112 l 1,18,19
 484 61 484 61 428 27 c 128,-1,20
 372 -7 372 -7 307 -7 c 0,21,22
 196 -7 196 -7 117.5 76 c 128,-1,23
 39 159 39 159 39 275 c 0,24,25
 39 392 39 392 117.5 475 c 128,-1,26
 196 558 196 558 307 558 c 0,27,28
 373 558 373 558 429.5 523 c 128,-1,29
 486 488 486 488 512 434 c 1,30,-1
 517 550 l 1,31,-1
 607 550 l 1,32,-1
 607 86 l 2,33,34
 607 -68 607 -68 524 -149 c 128,-1,35
 441 -230 441 -230 306 -230 c 0,7,8
323 90 m 128,-1,37
 400 90 400 90 454.5 144 c 128,-1,38
 509 198 509 198 509 275 c 128,-1,39
 509 352 509 352 454.5 407 c 128,-1,40
 400 462 400 462 323 462 c 0,41,42
 247 462 247 462 192.5 407 c 128,-1,43
 138 352 138 352 138 275 c 128,-1,44
 138 198 138 198 192 144 c 128,-1,36
 246 90 246 90 323 90 c 128,-1,37
EndSplineSet
Validated: 1
Substitution2: "'ss01' Style Set 1 lookup 27 subtable" gcircumflex.ss01
Substitution2: "'salt' Stylistic Alternatives lookup 26 subtable" gcircumflex.ss01
Substitution2: "'aalt' Access All Alternates lookup 0 subtable" gcircumflex.ss01
EndChar

StartChar: Gbreve
Encoding: 223 286 223
Width: 839
GlyphClass: 2
Flags: W
LayerCount: 2
Fore
SplineSet
413 817 m 0,0,1
 349 817 349 817 304 859.5 c 128,-1,2
 259 902 259 902 256 964 c 1,3,-1
 316 964 l 1,4,5
 318 926 318 926 346 901 c 128,-1,6
 374 876 374 876 413 876 c 0,7,8
 451 876 451 876 478.5 901 c 128,-1,9
 506 926 506 926 508 964 c 1,10,-1
 568 964 l 1,11,12
 565 902 565 902 520 859.5 c 128,-1,13
 475 817 475 817 413 817 c 0,0,1
425 -12 m 0,14,15
 269 -12 269 -12 159 98.5 c 128,-1,16
 49 209 49 209 49 365 c 0,17,18
 49 520 49 520 159 630 c 128,-1,19
 269 740 269 740 425 740 c 0,20,21
 514 740 514 740 592 701 c 128,-1,22
 670 662 670 662 723 594 c 1,23,-1
 631 538 l 1,24,25
 594 583 594 583 540 609 c 128,-1,26
 486 635 486 635 425 635 c 0,27,28
 313 635 313 635 233.5 556.5 c 128,-1,29
 154 478 154 478 154 366 c 0,30,31
 154 252 154 252 233.5 173 c 128,-1,32
 313 94 313 94 425 94 c 0,33,34
 530 94 530 94 598 156.5 c 128,-1,35
 666 219 666 219 674 321 c 1,36,-1
 401 321 l 1,37,-1
 401 416 l 1,38,-1
 786 416 l 1,39,40
 790 395 790 395 790 365 c 0,41,42
 790 198 790 198 688.5 93 c 128,-1,43
 587 -12 587 -12 425 -12 c 0,14,15
EndSplineSet
Validated: 1
Substitution2: "'ss01' Style Set 1 lookup 27 subtable" Gbreve.ss01
Substitution2: "'salt' Stylistic Alternatives lookup 26 subtable" Gbreve.ss01
Substitution2: "'aalt' Access All Alternates lookup 0 subtable" Gbreve.ss01
EndChar

StartChar: gbreve
Encoding: 224 287 224
Width: 678
GlyphClass: 2
Flags: W
LayerCount: 2
Fore
SplineSet
317 647 m 0,0,1
 253 647 253 647 208.5 689.5 c 128,-1,2
 164 732 164 732 161 794 c 1,3,-1
 221 794 l 1,4,5
 223 756 223 756 250.5 731 c 128,-1,6
 278 706 278 706 317 706 c 128,-1,7
 356 706 356 706 383.5 731 c 128,-1,8
 411 756 411 756 413 794 c 1,9,-1
 472 794 l 1,10,11
 469 732 469 732 424 689.5 c 128,-1,12
 379 647 379 647 317 647 c 0,0,1
306 -230 m 0,13,14
 236 -230 236 -230 173 -200.5 c 128,-1,15
 110 -171 110 -171 71 -120 c 1,16,-1
 145 -63 l 1,17,18
 174 -97 174 -97 218 -116.5 c 128,-1,19
 262 -136 262 -136 311 -136 c 0,20,21
 397 -136 397 -136 453 -84.5 c 128,-1,22
 509 -33 509 -33 509 70 c 2,23,-1
 509 112 l 1,24,25
 484 61 484 61 428 27 c 128,-1,26
 372 -7 372 -7 307 -7 c 0,27,28
 196 -7 196 -7 117.5 76 c 128,-1,29
 39 159 39 159 39 275 c 0,30,31
 39 392 39 392 117.5 475 c 128,-1,32
 196 558 196 558 307 558 c 0,33,34
 373 558 373 558 429.5 523 c 128,-1,35
 486 488 486 488 512 434 c 1,36,-1
 517 550 l 1,37,-1
 607 550 l 1,38,-1
 607 86 l 2,39,40
 607 -68 607 -68 524 -149 c 128,-1,41
 441 -230 441 -230 306 -230 c 0,13,14
323 90 m 128,-1,43
 400 90 400 90 454.5 144 c 128,-1,44
 509 198 509 198 509 275 c 128,-1,45
 509 352 509 352 454.5 407 c 128,-1,46
 400 462 400 462 323 462 c 0,47,48
 247 462 247 462 192.5 407 c 128,-1,49
 138 352 138 352 138 275 c 128,-1,50
 138 198 138 198 192 144 c 128,-1,42
 246 90 246 90 323 90 c 128,-1,43
EndSplineSet
Validated: 1
Substitution2: "'ss01' Style Set 1 lookup 27 subtable" gbreve.ss01
Substitution2: "'salt' Stylistic Alternatives lookup 26 subtable" gbreve.ss01
Substitution2: "'aalt' Access All Alternates lookup 0 subtable" gbreve.ss01
EndChar

StartChar: Gdotaccent
Encoding: 225 288 225
Width: 839
GlyphClass: 2
Flags: W
LayerCount: 2
Fore
SplineSet
413 830 m 0,0,1
 388 830 388 830 370 847.5 c 128,-1,2
 352 865 352 865 352 890 c 0,3,4
 352 916 352 916 370 933.5 c 128,-1,5
 388 951 388 951 413 951 c 0,6,7
 437 951 437 951 454.5 933 c 128,-1,8
 472 915 472 915 472 890 c 128,-1,9
 472 865 472 865 454.5 847.5 c 128,-1,10
 437 830 437 830 413 830 c 0,0,1
425 -12 m 0,11,12
 269 -12 269 -12 159 98.5 c 128,-1,13
 49 209 49 209 49 365 c 0,14,15
 49 520 49 520 159 630 c 128,-1,16
 269 740 269 740 425 740 c 0,17,18
 514 740 514 740 592 701 c 128,-1,19
 670 662 670 662 723 594 c 1,20,-1
 631 538 l 1,21,22
 594 583 594 583 540 609 c 128,-1,23
 486 635 486 635 425 635 c 0,24,25
 313 635 313 635 233.5 556.5 c 128,-1,26
 154 478 154 478 154 366 c 0,27,28
 154 252 154 252 233.5 173 c 128,-1,29
 313 94 313 94 425 94 c 0,30,31
 530 94 530 94 598 156.5 c 128,-1,32
 666 219 666 219 674 321 c 1,33,-1
 401 321 l 1,34,-1
 401 416 l 1,35,-1
 786 416 l 1,36,37
 790 395 790 395 790 365 c 0,38,39
 790 198 790 198 688.5 93 c 128,-1,40
 587 -12 587 -12 425 -12 c 0,11,12
EndSplineSet
Validated: 1
Substitution2: "'ss01' Style Set 1 lookup 27 subtable" Gdotaccent.ss01
Substitution2: "'salt' Stylistic Alternatives lookup 26 subtable" Gdotaccent.ss01
Substitution2: "'aalt' Access All Alternates lookup 0 subtable" Gdotaccent.ss01
EndChar

StartChar: gdotaccent
Encoding: 226 289 226
Width: 678
GlyphClass: 2
Flags: W
LayerCount: 2
Fore
SplineSet
317 660 m 128,-1,1
 292 660 292 660 274.5 677.5 c 128,-1,2
 257 695 257 695 257 720 c 128,-1,3
 257 745 257 745 274.5 763 c 128,-1,4
 292 781 292 781 317 781 c 128,-1,5
 342 781 342 781 359.5 763 c 128,-1,6
 377 745 377 745 377 720 c 128,-1,7
 377 695 377 695 359.5 677.5 c 128,-1,0
 342 660 342 660 317 660 c 128,-1,1
306 -230 m 0,8,9
 236 -230 236 -230 173 -200.5 c 128,-1,10
 110 -171 110 -171 71 -120 c 1,11,-1
 145 -63 l 1,12,13
 174 -97 174 -97 218 -116.5 c 128,-1,14
 262 -136 262 -136 311 -136 c 0,15,16
 397 -136 397 -136 453 -84.5 c 128,-1,17
 509 -33 509 -33 509 70 c 2,18,-1
 509 112 l 1,19,20
 484 61 484 61 428 27 c 128,-1,21
 372 -7 372 -7 307 -7 c 0,22,23
 196 -7 196 -7 117.5 76 c 128,-1,24
 39 159 39 159 39 275 c 0,25,26
 39 392 39 392 117.5 475 c 128,-1,27
 196 558 196 558 307 558 c 0,28,29
 373 558 373 558 429.5 523 c 128,-1,30
 486 488 486 488 512 434 c 1,31,-1
 517 550 l 1,32,-1
 607 550 l 1,33,-1
 607 86 l 2,34,35
 607 -68 607 -68 524 -149 c 128,-1,36
 441 -230 441 -230 306 -230 c 0,8,9
323 90 m 128,-1,38
 400 90 400 90 454.5 144 c 128,-1,39
 509 198 509 198 509 275 c 128,-1,40
 509 352 509 352 454.5 407 c 128,-1,41
 400 462 400 462 323 462 c 0,42,43
 247 462 247 462 192.5 407 c 128,-1,44
 138 352 138 352 138 275 c 128,-1,45
 138 198 138 198 192 144 c 128,-1,37
 246 90 246 90 323 90 c 128,-1,38
EndSplineSet
Validated: 1
Substitution2: "'ss01' Style Set 1 lookup 27 subtable" gdotaccent.ss01
Substitution2: "'salt' Stylistic Alternatives lookup 26 subtable" gdotaccent.ss01
Substitution2: "'aalt' Access All Alternates lookup 0 subtable" gdotaccent.ss01
EndChar

StartChar: uni0122
Encoding: 227 290 227
Width: 839
GlyphClass: 2
Flags: W
LayerCount: 2
Fore
SplineSet
425 -12 m 0,0,1
 269 -12 269 -12 159 98.5 c 128,-1,2
 49 209 49 209 49 365 c 0,3,4
 49 520 49 520 159 630 c 128,-1,5
 269 740 269 740 425 740 c 0,6,7
 514 740 514 740 592 701 c 128,-1,8
 670 662 670 662 723 594 c 1,9,-1
 631 538 l 1,10,11
 594 583 594 583 540 609 c 128,-1,12
 486 635 486 635 425 635 c 0,13,14
 313 635 313 635 233.5 556.5 c 128,-1,15
 154 478 154 478 154 366 c 0,16,17
 154 252 154 252 233.5 173 c 128,-1,18
 313 94 313 94 425 94 c 0,19,20
 530 94 530 94 598 156.5 c 128,-1,21
 666 219 666 219 674 321 c 1,22,-1
 401 321 l 1,23,-1
 401 416 l 1,24,-1
 786 416 l 1,25,26
 790 395 790 395 790 365 c 0,27,28
 790 198 790 198 688.5 93 c 128,-1,29
 587 -12 587 -12 425 -12 c 0,0,1
443 -205 m 1,30,-1
 366 -205 l 1,31,-1
 384 -49 l 1,32,-1
 473 -49 l 1,33,-1
 443 -205 l 1,30,-1
EndSplineSet
Validated: 1
Substitution2: "'ss01' Style Set 1 lookup 27 subtable" uni0122.ss01
Substitution2: "'salt' Stylistic Alternatives lookup 26 subtable" uni0122.ss01
Substitution2: "'aalt' Access All Alternates lookup 0 subtable" uni0122.ss01
EndChar

StartChar: uni0123
Encoding: 228 291 228
Width: 678
GlyphClass: 2
Flags: W
LayerCount: 2
Fore
SplineSet
364 652 m 1,0,-1
 275 652 l 1,1,-1
 305 808 l 1,2,-1
 382 808 l 1,3,-1
 364 652 l 1,0,-1
306 -230 m 0,4,5
 236 -230 236 -230 173 -200.5 c 128,-1,6
 110 -171 110 -171 71 -120 c 1,7,-1
 145 -63 l 1,8,9
 174 -97 174 -97 218 -116.5 c 128,-1,10
 262 -136 262 -136 311 -136 c 0,11,12
 397 -136 397 -136 453 -84.5 c 128,-1,13
 509 -33 509 -33 509 70 c 2,14,-1
 509 112 l 1,15,16
 484 61 484 61 428 27 c 128,-1,17
 372 -7 372 -7 307 -7 c 0,18,19
 196 -7 196 -7 117.5 76 c 128,-1,20
 39 159 39 159 39 275 c 0,21,22
 39 392 39 392 117.5 475 c 128,-1,23
 196 558 196 558 307 558 c 0,24,25
 373 558 373 558 429.5 523 c 128,-1,26
 486 488 486 488 512 434 c 1,27,-1
 517 550 l 1,28,-1
 607 550 l 1,29,-1
 607 86 l 2,30,31
 607 -68 607 -68 524 -149 c 128,-1,32
 441 -230 441 -230 306 -230 c 0,4,5
323 90 m 128,-1,34
 400 90 400 90 454.5 144 c 128,-1,35
 509 198 509 198 509 275 c 128,-1,36
 509 352 509 352 454.5 407 c 128,-1,37
 400 462 400 462 323 462 c 0,38,39
 247 462 247 462 192.5 407 c 128,-1,40
 138 352 138 352 138 275 c 128,-1,41
 138 198 138 198 192 144 c 128,-1,33
 246 90 246 90 323 90 c 128,-1,34
EndSplineSet
Validated: 1
Substitution2: "'ss01' Style Set 1 lookup 27 subtable" uni0123.ss01
Substitution2: "'salt' Stylistic Alternatives lookup 26 subtable" uni0123.ss01
Substitution2: "'aalt' Access All Alternates lookup 0 subtable" uni0123.ss01
EndChar

StartChar: Hcircumflex
Encoding: 229 292 229
Width: 731
GlyphClass: 2
Flags: W
LayerCount: 2
Fore
SplineSet
304 827 m 1,0,-1
 221 827 l 1,1,-1
 326 954 l 1,2,-1
 412 954 l 1,3,-1
 518 827 l 1,4,-1
 435 827 l 1,5,-1
 369 903 l 1,6,-1
 304 827 l 1,0,-1
185 0 m 1,7,-1
 82 0 l 1,8,-1
 82 730 l 1,9,-1
 185 730 l 1,10,-1
 185 415 l 1,11,-1
 547 415 l 1,12,-1
 547 730 l 1,13,-1
 650 730 l 1,14,-1
 650 0 l 1,15,-1
 547 0 l 1,16,-1
 547 312 l 1,17,-1
 185 312 l 1,18,-1
 185 0 l 1,7,-1
EndSplineSet
Validated: 1
EndChar

StartChar: hcircumflex
Encoding: 230 293 230
Width: 627
GlyphClass: 2
Flags: W
LayerCount: 2
Fore
SplineSet
155 827 m 1,0,-1
 72 827 l 1,1,-1
 177 954 l 1,2,-1
 263 954 l 1,3,-1
 369 827 l 1,4,-1
 286 827 l 1,5,-1
 220 903 l 1,6,-1
 155 827 l 1,0,-1
172 0 m 1,7,-1
 74 0 l 1,8,-1
 74 780 l 1,9,-1
 172 780 l 1,10,-1
 172 455 l 1,11,12
 196 501 196 501 240 529.5 c 128,-1,13
 284 558 284 558 343 558 c 0,14,15
 444 558 444 558 505.5 487.5 c 128,-1,16
 567 417 567 417 567 280 c 2,17,-1
 567 0 l 1,18,-1
 470 0 l 1,19,-1
 470 280 l 2,20,21
 470 369 470 369 427.5 415.5 c 128,-1,22
 385 462 385 462 321 462 c 0,23,24
 256 462 256 462 214 416 c 128,-1,25
 172 370 172 370 172 280 c 2,26,-1
 172 0 l 1,7,-1
EndSplineSet
Validated: 1
EndChar

StartChar: Hbar
Encoding: 231 294 231
Width: 736
GlyphClass: 2
Flags: W
LayerCount: 2
Fore
SplineSet
188 0 m 1,0,-1
 85 0 l 1,1,-1
 85 578 l 1,2,-1
 44 578 l 1,3,-1
 44 647 l 1,4,-1
 85 647 l 1,5,-1
 85 730 l 1,6,-1
 188 730 l 1,7,-1
 188 647 l 1,8,-1
 550 647 l 1,9,-1
 550 730 l 1,10,-1
 653 730 l 1,11,-1
 653 647 l 1,12,-1
 692 647 l 1,13,-1
 692 578 l 1,14,-1
 653 578 l 1,15,-1
 653 0 l 1,16,-1
 550 0 l 1,17,-1
 550 312 l 1,18,-1
 188 312 l 1,19,-1
 188 0 l 1,0,-1
188 578 m 1,20,-1
 188 415 l 1,21,-1
 550 415 l 1,22,-1
 550 578 l 1,23,-1
 188 578 l 1,20,-1
EndSplineSet
Validated: 1
EndChar

StartChar: hbar
Encoding: 232 295 232
Width: 624
GlyphClass: 2
Flags: W
LayerCount: 2
Fore
SplineSet
169 0 m 1,0,-1
 72 0 l 1,1,-1
 72 636 l 1,2,-1
 4 636 l 1,3,-1
 4 705 l 1,4,-1
 72 705 l 1,5,-1
 72 780 l 1,6,-1
 169 780 l 1,7,-1
 169 705 l 1,8,-1
 319 705 l 1,9,-1
 319 636 l 1,10,-1
 169 636 l 1,11,-1
 169 455 l 1,12,13
 193 501 193 501 237.5 529.5 c 128,-1,14
 282 558 282 558 340 558 c 0,15,16
 441 558 441 558 503 487.5 c 128,-1,17
 565 417 565 417 565 280 c 2,18,-1
 565 0 l 1,19,-1
 467 0 l 1,20,-1
 467 280 l 2,21,22
 467 369 467 369 425 415.5 c 128,-1,23
 383 462 383 462 318 462 c 0,24,25
 254 462 254 462 211.5 416 c 128,-1,26
 169 370 169 370 169 280 c 2,27,-1
 169 0 l 1,0,-1
EndSplineSet
Validated: 1
EndChar

StartChar: Itilde
Encoding: 233 296 233
Width: 266
GlyphClass: 2
Flags: W
LayerCount: 2
Fore
SplineSet
204 827 m 0,0,1
 174 825 174 825 149.5 843 c 128,-1,2
 125 861 125 861 107 878.5 c 128,-1,3
 89 896 89 896 75 895 c 0,4,5
 46 893 46 893 46 838 c 1,6,-1
 -20 838 l 1,7,8
 -20 889 -20 889 3 922 c 128,-1,9
 26 955 26 955 66 956 c 0,10,11
 96 957 96 957 120 939.5 c 128,-1,12
 144 922 144 922 161.5 904 c 128,-1,13
 179 886 179 886 194 887 c 0,14,15
 221 889 221 889 221 944 c 1,16,-1
 287 944 l 1,17,18
 287 891 287 891 265 859.5 c 128,-1,19
 243 828 243 828 204 827 c 0,0,1
185 0 m 1,20,-1
 82 0 l 1,21,-1
 82 730 l 1,22,-1
 185 730 l 1,23,-1
 185 0 l 1,20,-1
EndSplineSet
Validated: 33
EndChar

StartChar: itilde
Encoding: 234 297 234
Width: 240
GlyphClass: 2
Flags: W
LayerCount: 2
Fore
SplineSet
191 657 m 0,0,1
 161 655 161 655 136.5 673 c 128,-1,2
 112 691 112 691 94 708.5 c 128,-1,3
 76 726 76 726 62 725 c 0,4,5
 33 723 33 723 33 668 c 1,6,-1
 -33 668 l 1,7,8
 -33 719 -33 719 -10 752 c 128,-1,9
 13 785 13 785 53 786 c 0,10,11
 83 787 83 787 107 769.5 c 128,-1,12
 131 752 131 752 148.5 734 c 128,-1,13
 166 716 166 716 181 717 c 0,14,15
 208 719 208 719 208 774 c 1,16,-1
 274 774 l 1,17,18
 274 721 274 721 252 689.5 c 128,-1,19
 230 658 230 658 191 657 c 0,0,1
169 0 m 1,20,-1
 72 0 l 1,21,-1
 72 550 l 1,22,-1
 169 550 l 1,23,-1
 169 0 l 1,20,-1
EndSplineSet
Validated: 33
EndChar

StartChar: Imacron
Encoding: 235 298 235
Width: 266
GlyphClass: 2
Flags: W
LayerCount: 2
Fore
SplineSet
315 850 m 1,0,-1
 -50 850 l 1,1,-1
 -50 931 l 1,2,-1
 315 931 l 1,3,-1
 315 850 l 1,0,-1
185 0 m 1,4,-1
 82 0 l 1,5,-1
 82 730 l 1,6,-1
 185 730 l 1,7,-1
 185 0 l 1,4,-1
EndSplineSet
Validated: 1
EndChar

StartChar: imacron
Encoding: 236 299 236
Width: 240
GlyphClass: 2
Flags: W
LayerCount: 2
Fore
SplineSet
265 680 m 1,0,-1
 -24 680 l 1,1,-1
 -24 761 l 1,2,-1
 265 761 l 1,3,-1
 265 680 l 1,0,-1
169 0 m 1,4,-1
 72 0 l 1,5,-1
 72 550 l 1,6,-1
 169 550 l 1,7,-1
 169 0 l 1,4,-1
EndSplineSet
Validated: 1
EndChar

StartChar: Ibreve
Encoding: 237 300 237
Width: 265
GlyphClass: 2
Flags: W
LayerCount: 2
Fore
SplineSet
133 817 m 128,-1,1
 70 817 70 817 24.5 859.5 c 128,-1,2
 -21 902 -21 902 -23 964 c 1,3,-1
 37 964 l 1,4,5
 39 926 39 926 66.5 901 c 128,-1,6
 94 876 94 876 133 876 c 128,-1,7
 172 876 172 876 199.5 901 c 128,-1,8
 227 926 227 926 229 964 c 1,9,-1
 288 964 l 1,10,11
 286 902 286 902 241 859.5 c 128,-1,0
 196 817 196 817 133 817 c 128,-1,1
185 0 m 1,12,-1
 82 0 l 1,13,-1
 82 730 l 1,14,-1
 185 730 l 1,15,-1
 185 0 l 1,12,-1
EndSplineSet
Validated: 1
EndChar

StartChar: ibreve
Encoding: 238 301 238
Width: 240
GlyphClass: 2
Flags: W
LayerCount: 2
Fore
SplineSet
121 662 m 128,-1,1
 65 662 65 662 27 698 c 128,-1,2
 -11 734 -11 734 -11 779 c 1,3,-1
 49 779 l 1,4,5
 49 757 49 757 69 739 c 128,-1,6
 89 721 89 721 121 721 c 0,7,8
 155 721 155 721 174 739.5 c 128,-1,9
 193 758 193 758 193 779 c 1,10,-1
 252 779 l 1,11,12
 252 734 252 734 214.5 698 c 128,-1,0
 177 662 177 662 121 662 c 128,-1,1
169 0 m 1,13,-1
 72 0 l 1,14,-1
 72 550 l 1,15,-1
 169 550 l 1,16,-1
 169 0 l 1,13,-1
EndSplineSet
Validated: 1
EndChar

StartChar: Iogonek
Encoding: 239 302 239
Width: 266
GlyphClass: 2
Flags: W
LayerCount: 2
Fore
SplineSet
155 -219 m 0,0,1
 120 -219 120 -219 96 -193.5 c 128,-1,2
 72 -168 72 -168 72 -129 c 0,3,4
 72 -115 72 -115 75 -101 c 128,-1,5
 78 -87 78 -87 80.5 -78.5 c 128,-1,6
 83 -70 83 -70 92 -55 c 128,-1,7
 101 -40 101 -40 103.5 -37 c 128,-1,8
 106 -34 106 -34 118 -17 c 2,9,-1
 131 0 l 1,10,-1
 82 0 l 1,11,-1
 82 730 l 1,12,-1
 185 730 l 1,13,-1
 185 0 l 1,14,15
 156 -43 156 -43 144 -66.5 c 128,-1,16
 132 -90 132 -90 132 -113 c 0,17,18
 132 -130 132 -130 141.5 -141.5 c 128,-1,19
 151 -153 151 -153 165 -153 c 0,20,21
 188 -153 188 -153 206 -131 c 1,22,-1
 235 -176 l 1,23,24
 208 -219 208 -219 155 -219 c 0,0,1
EndSplineSet
Validated: 1
EndChar

StartChar: iogonek
Encoding: 240 303 240
Width: 240
GlyphClass: 2
Flags: W
LayerCount: 2
Fore
SplineSet
121 606 m 128,-1,1
 96 606 96 606 77.5 624 c 128,-1,2
 59 642 59 642 59 668 c 128,-1,3
 59 694 59 694 77.5 712 c 128,-1,4
 96 730 96 730 121 730 c 128,-1,5
 146 730 146 730 164 711.5 c 128,-1,6
 182 693 182 693 182 668 c 128,-1,7
 182 643 182 643 164 624.5 c 128,-1,0
 146 606 146 606 121 606 c 128,-1,1
135 -219 m 0,8,9
 100 -219 100 -219 76 -193.5 c 128,-1,10
 52 -168 52 -168 52 -129 c 0,11,12
 52 -109 52 -109 59.5 -88.5 c 128,-1,13
 67 -68 67 -68 74 -56.5 c 128,-1,14
 81 -45 81 -45 96.5 -25 c 128,-1,15
 112 -5 112 -5 116 0 c 1,16,-1
 72 0 l 1,17,-1
 72 550 l 1,18,-1
 169 550 l 1,19,-1
 169 0 l 1,20,21
 165 -5 165 -5 157 -17 c 128,-1,22
 149 -29 149 -29 146 -34 c 128,-1,23
 143 -39 143 -39 136.5 -48.5 c 128,-1,24
 130 -58 130 -58 127.5 -63 c 128,-1,25
 125 -68 125 -68 121.5 -75.5 c 128,-1,26
 118 -83 118 -83 116.5 -88.5 c 128,-1,27
 115 -94 115 -94 113.5 -100.5 c 128,-1,28
 112 -107 112 -107 112 -113 c 0,29,30
 112 -130 112 -130 121.5 -141.5 c 128,-1,31
 131 -153 131 -153 145 -153 c 0,32,33
 168 -153 168 -153 186 -131 c 1,34,-1
 215 -176 l 1,35,36
 188 -219 188 -219 135 -219 c 0,8,9
EndSplineSet
Validated: 1
EndChar

StartChar: Idotaccent
Encoding: 241 304 241
Width: 266
GlyphClass: 2
Flags: W
LayerCount: 2
Fore
SplineSet
135 830 m 128,-1,1
 110 830 110 830 92.5 847.5 c 128,-1,2
 75 865 75 865 75 890 c 128,-1,3
 75 915 75 915 92.5 933 c 128,-1,4
 110 951 110 951 135 951 c 128,-1,5
 160 951 160 951 177.5 933 c 128,-1,6
 195 915 195 915 195 890 c 128,-1,7
 195 865 195 865 177.5 847.5 c 128,-1,0
 160 830 160 830 135 830 c 128,-1,1
185 0 m 1,8,-1
 82 0 l 1,9,-1
 82 730 l 1,10,-1
 185 730 l 1,11,-1
 185 0 l 1,8,-1
EndSplineSet
Validated: 1
EndChar

StartChar: dotlessi
Encoding: 242 305 242
Width: 240
GlyphClass: 2
Flags: W
LayerCount: 2
Fore
SplineSet
169 0 m 1,0,-1
 72 0 l 1,1,-1
 72 550 l 1,2,-1
 169 550 l 1,3,-1
 169 0 l 1,0,-1
EndSplineSet
Validated: 1
EndChar

StartChar: IJ
Encoding: 243 306 243
Width: 748
GlyphClass: 2
Flags: W
LayerCount: 2
Fore
SplineSet
185 0 m 1,0,-1
 82 0 l 1,1,-1
 82 730 l 1,2,-1
 185 730 l 1,3,-1
 185 0 l 1,0,-1
438 -8 m 0,4,5
 334 -8 334 -8 267 69 c 1,6,-1
 342 133 l 1,7,8
 383 94 383 94 437 94 c 0,9,10
 500 94 500 94 537 137 c 128,-1,11
 574 180 574 180 574 252 c 2,12,-1
 574 730 l 1,13,-1
 677 730 l 1,14,-1
 677 252 l 2,15,16
 677 134 677 134 610.5 63 c 128,-1,17
 544 -8 544 -8 438 -8 c 0,4,5
EndSplineSet
Validated: 1
EndChar

StartChar: ij
Encoding: 244 307 244
Width: 509
GlyphClass: 2
Flags: W
LayerCount: 2
Fore
SplineSet
121 606 m 128,-1,1
 96 606 96 606 77.5 624 c 128,-1,2
 59 642 59 642 59 668 c 128,-1,3
 59 694 59 694 77.5 712 c 128,-1,4
 96 730 96 730 121 730 c 128,-1,5
 146 730 146 730 164 711.5 c 128,-1,6
 182 693 182 693 182 668 c 128,-1,7
 182 643 182 643 164 624.5 c 128,-1,0
 146 606 146 606 121 606 c 128,-1,1
389 606 m 128,-1,9
 364 606 364 606 346 624.5 c 128,-1,10
 328 643 328 643 328 668 c 128,-1,11
 328 693 328 693 346 711.5 c 128,-1,12
 364 730 364 730 389 730 c 128,-1,13
 414 730 414 730 432 712 c 128,-1,14
 450 694 450 694 450 668 c 128,-1,15
 450 642 450 642 432 624 c 128,-1,8
 414 606 414 606 389 606 c 128,-1,9
169 0 m 1,16,-1
 72 0 l 1,17,-1
 72 550 l 1,18,-1
 169 550 l 1,19,-1
 169 0 l 1,16,-1
248 -231 m 0,20,21
 204 -231 204 -231 168 -217 c 1,22,-1
 194 -127 l 1,23,24
 215 -135 215 -135 235 -135 c 0,25,26
 340 -135 340 -135 340 8 c 2,27,-1
 340 550 l 1,28,-1
 438 550 l 1,29,-1
 438 8 l 2,30,31
 438 -116 438 -116 385.5 -173.5 c 128,-1,32
 333 -231 333 -231 248 -231 c 0,20,21
EndSplineSet
Validated: 1
EndChar

StartChar: Jcircumflex
Encoding: 245 308 245
Width: 500
GlyphClass: 2
Flags: W
LayerCount: 2
Fore
SplineSet
254 827 m 1,0,-1
 171 827 l 1,1,-1
 276 954 l 1,2,-1
 362 954 l 1,3,-1
 468 827 l 1,4,-1
 385 827 l 1,5,-1
 319 903 l 1,6,-1
 254 827 l 1,0,-1
196 -8 m 0,7,8
 92 -8 92 -8 25 69 c 1,9,-1
 100 133 l 1,10,11
 141 94 141 94 196 94 c 0,12,13
 258 94 258 94 295 137 c 128,-1,14
 332 180 332 180 332 252 c 2,15,-1
 332 730 l 1,16,-1
 435 730 l 1,17,-1
 435 252 l 2,18,19
 435 134 435 134 368.5 63 c 128,-1,20
 302 -8 302 -8 196 -8 c 0,7,8
EndSplineSet
Validated: 1
EndChar

StartChar: jcircumflex
Encoding: 246 309 246
Width: 267
GlyphClass: 2
Flags: W
LayerCount: 2
Fore
SplineSet
73 657 m 1,0,-1
 -10 657 l 1,1,-1
 96 784 l 1,2,-1
 182 784 l 1,3,-1
 288 657 l 1,4,-1
 205 657 l 1,5,-1
 139 733 l 1,6,-1
 73 657 l 1,0,-1
6 -231 m 0,7,8
 -38 -231 -38 -231 -74 -217 c 1,9,-1
 -48 -127 l 1,10,11
 -27 -135 -27 -135 -7 -135 c 0,12,13
 99 -135 99 -135 99 8 c 2,14,-1
 99 550 l 1,15,-1
 196 550 l 1,16,-1
 196 8 l 2,17,18
 196 -116 196 -116 144 -173.5 c 128,-1,19
 92 -231 92 -231 6 -231 c 0,7,8
EndSplineSet
Validated: 1
EndChar

StartChar: uni0136
Encoding: 247 310 247
Width: 656
GlyphClass: 2
Flags: W
LayerCount: 2
Fore
SplineSet
185 0 m 1,0,-1
 82 0 l 1,1,-1
 82 730 l 1,2,-1
 185 730 l 1,3,-1
 185 378 l 1,4,-1
 494 730 l 1,5,-1
 613 730 l 1,6,-1
 357 429 l 1,7,-1
 638 0 l 1,8,-1
 517 0 l 1,9,-1
 292 336 l 1,10,-1
 185 220 l 1,11,-1
 185 0 l 1,0,-1
353 -205 m 1,12,-1
 276 -205 l 1,13,-1
 294 -49 l 1,14,-1
 383 -49 l 1,15,-1
 353 -205 l 1,12,-1
EndSplineSet
Validated: 1
Substitution2: "'ss02' Style Set 2 lookup 28 subtable" uni0136.ss02
Substitution2: "'aalt' Access All Alternates lookup 0 subtable" uni0136.ss02
EndChar

StartChar: uni0137
Encoding: 248 311 248
Width: 577
GlyphClass: 2
Flags: W
LayerCount: 2
Fore
SplineSet
165 0 m 1,0,-1
 72 0 l 1,1,-1
 72 780 l 1,2,-1
 165 780 l 1,3,-1
 165 304 l 1,4,-1
 411 550 l 1,5,-1
 527 550 l 1,6,-1
 317 331 l 1,7,-1
 555 0 l 1,8,-1
 440 0 l 1,9,-1
 254 258 l 1,10,-1
 165 172 l 1,11,-1
 165 0 l 1,0,-1
301 -201 m 1,12,-1
 224 -201 l 1,13,-1
 242 -45 l 1,14,-1
 331 -45 l 1,15,-1
 301 -201 l 1,12,-1
EndSplineSet
Validated: 1
Substitution2: "'ss02' Style Set 2 lookup 28 subtable" uni0137.ss02
Substitution2: "'aalt' Access All Alternates lookup 0 subtable" uni0137.ss02
EndChar

StartChar: kgreenlandic
Encoding: 249 312 249
Width: 579
GlyphClass: 2
Flags: W
LayerCount: 2
Fore
SplineSet
165 0 m 1,0,-1
 72 0 l 1,1,-1
 72 550 l 1,2,-1
 165 550 l 1,3,-1
 165 311 l 1,4,-1
 404 550 l 1,5,-1
 527 550 l 1,6,-1
 318 332 l 1,7,-1
 556 0 l 1,8,-1
 437 0 l 1,9,-1
 253 256 l 1,10,-1
 165 172 l 1,11,-1
 165 0 l 1,0,-1
EndSplineSet
Validated: 1
EndChar

StartChar: Lacute
Encoding: 250 313 250
Width: 575
GlyphClass: 2
Flags: W
LayerCount: 2
Fore
SplineSet
326 810 m 1,0,-1
 262 810 l 1,1,-1
 321 970 l 1,2,-1
 410 970 l 1,3,-1
 326 810 l 1,0,-1
553 0 m 1,4,-1
 82 0 l 1,5,-1
 82 730 l 1,6,-1
 185 730 l 1,7,-1
 185 103 l 1,8,-1
 553 103 l 1,9,-1
 553 0 l 1,4,-1
EndSplineSet
Validated: 1
EndChar

StartChar: lacute
Encoding: 251 314 251
Width: 240
GlyphClass: 2
Flags: W
LayerCount: 2
Fore
SplineSet
151 845 m 1,0,-1
 87 845 l 1,1,-1
 146 1005 l 1,2,-1
 235 1005 l 1,3,-1
 151 845 l 1,0,-1
169 0 m 1,4,-1
 72 0 l 1,5,-1
 72 780 l 1,6,-1
 169 780 l 1,7,-1
 169 0 l 1,4,-1
EndSplineSet
Validated: 1
Substitution2: "'ss01' Style Set 1 lookup 27 subtable" lacute.ss01
Substitution2: "'salt' Stylistic Alternatives lookup 26 subtable" lacute.ss01
Substitution2: "'aalt' Access All Alternates lookup 0 subtable" lacute.ss01
EndChar

StartChar: uni013B
Encoding: 252 315 252
Width: 575
GlyphClass: 2
Flags: W
LayerCount: 2
Fore
SplineSet
553 0 m 1,0,-1
 82 0 l 1,1,-1
 82 730 l 1,2,-1
 185 730 l 1,3,-1
 185 103 l 1,4,-1
 553 103 l 1,5,-1
 553 0 l 1,0,-1
330 -205 m 1,6,-1
 253 -205 l 1,7,-1
 271 -49 l 1,8,-1
 360 -49 l 1,9,-1
 330 -205 l 1,6,-1
EndSplineSet
Validated: 1
EndChar

StartChar: uni013C
Encoding: 253 316 253
Width: 240
GlyphClass: 2
Flags: W
LayerCount: 2
Fore
SplineSet
169 0 m 1,0,-1
 72 0 l 1,1,-1
 72 780 l 1,2,-1
 169 780 l 1,3,-1
 169 0 l 1,0,-1
134 -201 m 1,4,-1
 57 -201 l 1,5,-1
 75 -45 l 1,6,-1
 164 -45 l 1,7,-1
 134 -201 l 1,4,-1
EndSplineSet
Validated: 1
Substitution2: "'ss01' Style Set 1 lookup 27 subtable" uni013C.ss01
Substitution2: "'salt' Stylistic Alternatives lookup 26 subtable" uni013C.ss01
Substitution2: "'aalt' Access All Alternates lookup 0 subtable" uni013C.ss01
EndChar

StartChar: Lcaron
Encoding: 254 317 254
Width: 585
GlyphClass: 2
Flags: W
LayerCount: 2
Fore
SplineSet
553 0 m 1,0,-1
 82 0 l 1,1,-1
 82 730 l 1,2,-1
 185 730 l 1,3,-1
 185 103 l 1,4,-1
 553 103 l 1,5,-1
 553 0 l 1,0,-1
359 487 m 1,6,-1
 291 487 l 1,7,-1
 338 730 l 1,8,-1
 427 730 l 1,9,-1
 359 487 l 1,6,-1
EndSplineSet
Validated: 1
EndChar

StartChar: lcaron
Encoding: 255 318 255
Width: 322
GlyphClass: 2
Flags: W
LayerCount: 2
Fore
SplineSet
299 568 m 1,0,-1
 231 568 l 1,1,-1
 220 782 l 1,2,-1
 310 782 l 1,3,-1
 299 568 l 1,0,-1
169 0 m 1,4,-1
 72 0 l 1,5,-1
 72 780 l 1,6,-1
 169 780 l 1,7,-1
 169 0 l 1,4,-1
EndSplineSet
Validated: 1
Substitution2: "'ss01' Style Set 1 lookup 27 subtable" lcaron.ss01
Substitution2: "'salt' Stylistic Alternatives lookup 26 subtable" lcaron.ss01
Substitution2: "'aalt' Access All Alternates lookup 0 subtable" lcaron.ss01
EndChar

StartChar: Ldot
Encoding: 256 319 256
Width: 575
GlyphClass: 3
Flags: W
LayerCount: 2
Fore
SplineSet
553 0 m 1,0,-1
 82 0 l 1,1,-1
 82 730 l 1,2,-1
 185 730 l 1,3,-1
 185 103 l 1,4,-1
 553 103 l 1,5,-1
 553 0 l 1,0,-1
361 340 m 0,6,7
 336 340 336 340 318.5 357.5 c 128,-1,8
 301 375 301 375 301 400 c 128,-1,9
 301 425 301 425 318.5 443 c 128,-1,10
 336 461 336 461 361 461 c 0,11,12
 385 461 385 461 402.5 443 c 128,-1,13
 420 425 420 425 420 400 c 128,-1,14
 420 375 420 375 402.5 357.5 c 128,-1,15
 385 340 385 340 361 340 c 0,6,7
EndSplineSet
Validated: 1
Ligature2: "Ligature Substitution lookup 3 subtable" L periodcentered
EndChar

StartChar: ldot
Encoding: 257 320 257
Width: 336
GlyphClass: 3
Flags: W
LayerCount: 2
Fore
SplineSet
169 0 m 1,0,-1
 72 0 l 1,1,-1
 72 780 l 1,2,-1
 169 780 l 1,3,-1
 169 0 l 1,0,-1
265 340 m 0,4,5
 240 340 240 340 222 357.5 c 128,-1,6
 204 375 204 375 204 400 c 0,7,8
 204 426 204 426 222 443.5 c 128,-1,9
 240 461 240 461 265 461 c 0,10,11
 289 461 289 461 306.5 443 c 128,-1,12
 324 425 324 425 324 400 c 128,-1,13
 324 375 324 375 306.5 357.5 c 128,-1,14
 289 340 289 340 265 340 c 0,4,5
EndSplineSet
Validated: 1
Ligature2: "Ligature Substitution lookup 3 subtable" l periodcentered
EndChar

